ISO-10303-21;
HEADER;
/* Generated by software containing ST-Developer
 * from STEP Tools, Inc. (www.steptools.com) 
 */

FILE_DESCRIPTION(
/* description */ (''),
/* implementation_level */ '2;1');

FILE_NAME(
/* name */ 'Paper Clip.step',
/* time_stamp */ '2026-09-27T20:16:27-04:00',
/* author */ (''),
/* organization */ (''),
/* preprocessor_version */ 'ST-DEVELOPER v20.2',
/* originating_system */ 'Autodesk Translation Framework v15.15.0.0',
/* authorisation */ '');

FILE_SCHEMA (('AUTOMOTIVE_DESIGN { 1 0 10303 214 3 1 1 }'));
ENDSEC;

DATA;
#10=MECHANICAL_DESIGN_GEOMETRIC_PRESENTATION_REPRESENTATION('',(#13),#417);
#11=SHAPE_REPRESENTATION_RELATIONSHIP('SRR','None',#424,#12);
#12=ADVANCED_BREP_SHAPE_REPRESENTATION('',(#14),#416);
#13=STYLED_ITEM('',(#434),#14);
#14=MANIFOLD_SOLID_BREP('Body1',#189);
#15=TOROIDAL_SURFACE('',#219,2.75,0.35);
#16=TOROIDAL_SURFACE('',#226,3.25,0.35);
#17=TOROIDAL_SURFACE('',#233,3.75,0.35);
#18=PLANE('',#210);
#19=PLANE('',#218);
#20=LINE('',#342,#24);
#21=LINE('',#385,#25);
#22=LINE('',#396,#26);
#23=LINE('',#408,#27);
#24=VECTOR('',#247,0.35);
#25=VECTOR('',#266,0.35);
#26=VECTOR('',#281,0.35);
#27=VECTOR('',#296,0.35);
#28=CYLINDRICAL_SURFACE('',#207,0.35);
#29=CYLINDRICAL_SURFACE('',#215,0.35);
#30=CYLINDRICAL_SURFACE('',#223,0.35);
#31=CYLINDRICAL_SURFACE('',#230,0.35);
#32=FACE_OUTER_BOUND('',#43,.T.);
#33=FACE_OUTER_BOUND('',#44,.T.);
#34=FACE_OUTER_BOUND('',#45,.T.);
#35=FACE_OUTER_BOUND('',#46,.T.);
#36=FACE_OUTER_BOUND('',#47,.T.);
#37=FACE_OUTER_BOUND('',#48,.T.);
#38=FACE_OUTER_BOUND('',#49,.T.);
#39=FACE_OUTER_BOUND('',#50,.T.);
#40=FACE_OUTER_BOUND('',#51,.T.);
#41=FACE_OUTER_BOUND('',#52,.T.);
#42=FACE_OUTER_BOUND('',#53,.T.);
#43=EDGE_LOOP('',(#122,#123,#124,#125,#126));
#44=EDGE_LOOP('',(#127,#128,#129,#130,#131,#132));
#45=EDGE_LOOP('',(#133));
#46=EDGE_LOOP('',(#134,#135,#136,#137,#138));
#47=EDGE_LOOP('',(#139,#140,#141,#142,#143,#144));
#48=EDGE_LOOP('',(#145));
#49=EDGE_LOOP('',(#146,#147,#148,#149,#150,#151));
#50=EDGE_LOOP('',(#152,#153,#154,#155,#156,#157));
#51=EDGE_LOOP('',(#158,#159,#160,#161,#162,#163));
#52=EDGE_LOOP('',(#164,#165,#166,#167,#168,#169));
#53=EDGE_LOOP('',(#170,#171,#172,#173,#174,#175));
#54=CIRCLE('',#203,0.15);
#55=CIRCLE('',#204,0.2);
#56=CIRCLE('',#205,0.35);
#57=CIRCLE('',#206,0.35);
#58=CIRCLE('',#208,0.35);
#59=CIRCLE('',#209,0.35);
#60=CIRCLE('',#211,0.35);
#61=CIRCLE('',#212,0.2);
#62=CIRCLE('',#213,0.15);
#63=CIRCLE('',#214,0.35);
#64=CIRCLE('',#216,0.35);
#65=CIRCLE('',#217,0.35);
#66=CIRCLE('',#220,2.4);
#67=CIRCLE('',#221,0.35);
#68=CIRCLE('',#222,0.35);
#69=CIRCLE('',#224,0.35);
#70=CIRCLE('',#225,0.35);
#71=CIRCLE('',#227,2.9);
#72=CIRCLE('',#228,0.35);
#73=CIRCLE('',#229,0.35);
#74=CIRCLE('',#231,0.35);
#75=CIRCLE('',#232,0.35);
#76=CIRCLE('',#234,3.4);
#77=VERTEX_POINT('',#333);
#78=VERTEX_POINT('',#335);
#79=VERTEX_POINT('',#337);
#80=VERTEX_POINT('',#341);
#81=VERTEX_POINT('',#343);
#82=VERTEX_POINT('',#374);
#83=VERTEX_POINT('',#375);
#84=VERTEX_POINT('',#377);
#85=VERTEX_POINT('',#382);
#86=VERTEX_POINT('',#383);
#87=VERTEX_POINT('',#389);
#88=VERTEX_POINT('',#391);
#89=VERTEX_POINT('',#395);
#90=VERTEX_POINT('',#397);
#91=VERTEX_POINT('',#401);
#92=VERTEX_POINT('',#403);
#93=VERTEX_POINT('',#407);
#94=VERTEX_POINT('',#409);
#95=EDGE_CURVE('',#77,#77,#54,.T.);
#96=EDGE_CURVE('',#77,#78,#55,.T.);
#97=EDGE_CURVE('',#78,#79,#56,.T.);
#98=EDGE_CURVE('',#79,#78,#57,.T.);
#99=EDGE_CURVE('',#79,#80,#20,.T.);
#100=EDGE_CURVE('',#80,#81,#58,.T.);
#101=EDGE_CURVE('',#81,#80,#59,.T.);
#102=EDGE_CURVE('',#82,#83,#60,.T.);
#103=EDGE_CURVE('',#83,#84,#61,.T.);
#104=EDGE_CURVE('',#84,#84,#62,.T.);
#105=EDGE_CURVE('',#83,#82,#63,.T.);
#106=EDGE_CURVE('',#85,#86,#64,.T.);
#107=EDGE_CURVE('',#85,#82,#21,.T.);
#108=EDGE_CURVE('',#86,#85,#65,.T.);
#109=EDGE_CURVE('',#81,#87,#66,.T.);
#110=EDGE_CURVE('',#87,#88,#67,.T.);
#111=EDGE_CURVE('',#88,#87,#68,.T.);
#112=EDGE_CURVE('',#88,#89,#22,.T.);
#113=EDGE_CURVE('',#89,#90,#69,.T.);
#114=EDGE_CURVE('',#90,#89,#70,.T.);
#115=EDGE_CURVE('',#90,#91,#71,.T.);
#116=EDGE_CURVE('',#91,#92,#72,.T.);
#117=EDGE_CURVE('',#92,#91,#73,.T.);
#118=EDGE_CURVE('',#92,#93,#23,.T.);
#119=EDGE_CURVE('',#93,#94,#74,.T.);
#120=EDGE_CURVE('',#94,#93,#75,.T.);
#121=EDGE_CURVE('',#94,#86,#76,.T.);
#122=ORIENTED_EDGE('',*,*,#95,.T.);
#123=ORIENTED_EDGE('',*,*,#96,.T.);
#124=ORIENTED_EDGE('',*,*,#97,.T.);
#125=ORIENTED_EDGE('',*,*,#98,.T.);
#126=ORIENTED_EDGE('',*,*,#96,.F.);
#127=ORIENTED_EDGE('',*,*,#98,.F.);
#128=ORIENTED_EDGE('',*,*,#99,.T.);
#129=ORIENTED_EDGE('',*,*,#100,.T.);
#130=ORIENTED_EDGE('',*,*,#101,.T.);
#131=ORIENTED_EDGE('',*,*,#99,.F.);
#132=ORIENTED_EDGE('',*,*,#97,.F.);
#133=ORIENTED_EDGE('',*,*,#95,.F.);
#134=ORIENTED_EDGE('',*,*,#102,.T.);
#135=ORIENTED_EDGE('',*,*,#103,.T.);
#136=ORIENTED_EDGE('',*,*,#104,.T.);
#137=ORIENTED_EDGE('',*,*,#103,.F.);
#138=ORIENTED_EDGE('',*,*,#105,.T.);
#139=ORIENTED_EDGE('',*,*,#106,.F.);
#140=ORIENTED_EDGE('',*,*,#107,.T.);
#141=ORIENTED_EDGE('',*,*,#105,.F.);
#142=ORIENTED_EDGE('',*,*,#102,.F.);
#143=ORIENTED_EDGE('',*,*,#107,.F.);
#144=ORIENTED_EDGE('',*,*,#108,.F.);
#145=ORIENTED_EDGE('',*,*,#104,.F.);
#146=ORIENTED_EDGE('',*,*,#100,.F.);
#147=ORIENTED_EDGE('',*,*,#101,.F.);
#148=ORIENTED_EDGE('',*,*,#109,.T.);
#149=ORIENTED_EDGE('',*,*,#110,.T.);
#150=ORIENTED_EDGE('',*,*,#111,.T.);
#151=ORIENTED_EDGE('',*,*,#109,.F.);
#152=ORIENTED_EDGE('',*,*,#111,.F.);
#153=ORIENTED_EDGE('',*,*,#112,.T.);
#154=ORIENTED_EDGE('',*,*,#113,.T.);
#155=ORIENTED_EDGE('',*,*,#114,.T.);
#156=ORIENTED_EDGE('',*,*,#112,.F.);
#157=ORIENTED_EDGE('',*,*,#110,.F.);
#158=ORIENTED_EDGE('',*,*,#113,.F.);
#159=ORIENTED_EDGE('',*,*,#114,.F.);
#160=ORIENTED_EDGE('',*,*,#115,.T.);
#161=ORIENTED_EDGE('',*,*,#116,.T.);
#162=ORIENTED_EDGE('',*,*,#117,.T.);
#163=ORIENTED_EDGE('',*,*,#115,.F.);
#164=ORIENTED_EDGE('',*,*,#117,.F.);
#165=ORIENTED_EDGE('',*,*,#118,.T.);
#166=ORIENTED_EDGE('',*,*,#119,.T.);
#167=ORIENTED_EDGE('',*,*,#120,.T.);
#168=ORIENTED_EDGE('',*,*,#118,.F.);
#169=ORIENTED_EDGE('',*,*,#116,.F.);
#170=ORIENTED_EDGE('',*,*,#119,.F.);
#171=ORIENTED_EDGE('',*,*,#120,.F.);
#172=ORIENTED_EDGE('',*,*,#121,.T.);
#173=ORIENTED_EDGE('',*,*,#108,.T.);
#174=ORIENTED_EDGE('',*,*,#106,.T.);
#175=ORIENTED_EDGE('',*,*,#121,.F.);
#176=(
BOUNDED_SURFACE()
B_SPLINE_SURFACE(2,2,((#306,#307,#308,#309,#310,#311,#312,#313,#314),(#315,
#316,#317,#318,#319,#320,#321,#322,#323),(#324,#325,#326,#327,#328,#329,
#330,#331,#332)),.UNSPECIFIED.,.F.,.T.,.F.)
B_SPLINE_SURFACE_WITH_KNOTS((3,3),(3,2,2,2,3),(-1.217312417578E-16,1.5707963267949),
(-3.14159265358979,-1.5707963267949,0.,1.5707963267949,3.14159265358979),
 .UNSPECIFIED.)
GEOMETRIC_REPRESENTATION_ITEM()
RATIONAL_B_SPLINE_SURFACE(((1.,0.707106781186548,1.,0.707106781186548,1.,
0.707106781186548,1.,0.707106781186548,1.),(0.707106781186548,0.5,0.707106781186548,
0.5,0.707106781186548,0.5,0.707106781186548,0.5,0.707106781186548),(1.,
0.707106781186548,1.,0.707106781186548,1.,0.707106781186548,1.,0.707106781186548,
1.)))
REPRESENTATION_ITEM('')
SURFACE()
);
#177=(
BOUNDED_SURFACE()
B_SPLINE_SURFACE(2,2,((#347,#348,#349,#350,#351,#352,#353,#354,#355),(#356,
#357,#358,#359,#360,#361,#362,#363,#364),(#365,#366,#367,#368,#369,#370,
#371,#372,#373)),.UNSPECIFIED.,.F.,.T.,.F.)
B_SPLINE_SURFACE_WITH_KNOTS((3,3),(3,2,2,2,3),(-1.5707963267949,0.),(-3.14159265358979,
-1.5707963267949,0.,1.5707963267949,3.14159265358979),.UNSPECIFIED.)
GEOMETRIC_REPRESENTATION_ITEM()
RATIONAL_B_SPLINE_SURFACE(((1.,0.707106781186548,1.,0.707106781186548,1.,
0.707106781186548,1.,0.707106781186548,1.),(0.707106781186548,0.5,0.707106781186548,
0.5,0.707106781186548,0.5,0.707106781186548,0.5,0.707106781186548),(1.,
0.707106781186548,1.,0.707106781186548,1.,0.707106781186548,1.,0.707106781186548,
1.)))
REPRESENTATION_ITEM('')
SURFACE()
);
#178=ADVANCED_FACE('',(#32),#176,.F.);
#179=ADVANCED_FACE('',(#33),#28,.T.);
#180=ADVANCED_FACE('',(#34),#18,.T.);
#181=ADVANCED_FACE('',(#35),#177,.F.);
#182=ADVANCED_FACE('',(#36),#29,.T.);
#183=ADVANCED_FACE('',(#37),#19,.F.);
#184=ADVANCED_FACE('',(#38),#15,.T.);
#185=ADVANCED_FACE('',(#39),#30,.T.);
#186=ADVANCED_FACE('',(#40),#16,.T.);
#187=ADVANCED_FACE('',(#41),#31,.T.);
#188=ADVANCED_FACE('',(#42),#17,.T.);
#189=CLOSED_SHELL('',(#178,#179,#180,#181,#182,#183,#184,#185,#186,#187,
#188));
#190=DERIVED_UNIT_ELEMENT(#192,1.);
#191=DERIVED_UNIT_ELEMENT(#419,-3.);
#192=(
MASS_UNIT()
NAMED_UNIT(*)
SI_UNIT(.KILO.,.GRAM.)
);
#193=DERIVED_UNIT((#190,#191));
#194=MEASURE_REPRESENTATION_ITEM('density measure',
POSITIVE_RATIO_MEASURE(7850.),#193);
#195=PROPERTY_DEFINITION_REPRESENTATION(#200,#197);
#196=PROPERTY_DEFINITION_REPRESENTATION(#201,#198);
#197=REPRESENTATION('material name',(#199),#416);
#198=REPRESENTATION('density',(#194),#416);
#199=DESCRIPTIVE_REPRESENTATION_ITEM('Steel','Steel');
#200=PROPERTY_DEFINITION('material property','material name',#426);
#201=PROPERTY_DEFINITION('material property','density of part',#426);
#202=AXIS2_PLACEMENT_3D('',#305,#235,#236);
#203=AXIS2_PLACEMENT_3D('',#334,#237,#238);
#204=AXIS2_PLACEMENT_3D('',#336,#239,#240);
#205=AXIS2_PLACEMENT_3D('',#338,#241,#242);
#206=AXIS2_PLACEMENT_3D('',#339,#243,#244);
#207=AXIS2_PLACEMENT_3D('',#340,#245,#246);
#208=AXIS2_PLACEMENT_3D('',#344,#248,#249);
#209=AXIS2_PLACEMENT_3D('',#345,#250,#251);
#210=AXIS2_PLACEMENT_3D('',#346,#252,#253);
#211=AXIS2_PLACEMENT_3D('',#376,#254,#255);
#212=AXIS2_PLACEMENT_3D('',#378,#256,#257);
#213=AXIS2_PLACEMENT_3D('',#379,#258,#259);
#214=AXIS2_PLACEMENT_3D('',#380,#260,#261);
#215=AXIS2_PLACEMENT_3D('',#381,#262,#263);
#216=AXIS2_PLACEMENT_3D('',#384,#264,#265);
#217=AXIS2_PLACEMENT_3D('',#386,#267,#268);
#218=AXIS2_PLACEMENT_3D('',#387,#269,#270);
#219=AXIS2_PLACEMENT_3D('',#388,#271,#272);
#220=AXIS2_PLACEMENT_3D('',#390,#273,#274);
#221=AXIS2_PLACEMENT_3D('',#392,#275,#276);
#222=AXIS2_PLACEMENT_3D('',#393,#277,#278);
#223=AXIS2_PLACEMENT_3D('',#394,#279,#280);
#224=AXIS2_PLACEMENT_3D('',#398,#282,#283);
#225=AXIS2_PLACEMENT_3D('',#399,#284,#285);
#226=AXIS2_PLACEMENT_3D('',#400,#286,#287);
#227=AXIS2_PLACEMENT_3D('',#402,#288,#289);
#228=AXIS2_PLACEMENT_3D('',#404,#290,#291);
#229=AXIS2_PLACEMENT_3D('',#405,#292,#293);
#230=AXIS2_PLACEMENT_3D('',#406,#294,#295);
#231=AXIS2_PLACEMENT_3D('',#410,#297,#298);
#232=AXIS2_PLACEMENT_3D('',#411,#299,#300);
#233=AXIS2_PLACEMENT_3D('',#412,#301,#302);
#234=AXIS2_PLACEMENT_3D('',#413,#303,#304);
#235=DIRECTION('axis',(0.,0.,1.));
#236=DIRECTION('refdir',(1.,0.,0.));
#237=DIRECTION('center_axis',(-3.67394039744206E-16,1.,0.));
#238=DIRECTION('ref_axis',(-1.,-3.67394039744206E-16,0.));
#239=DIRECTION('center_axis',(-1.,-3.67394039744206E-16,0.));
#240=DIRECTION('ref_axis',(0.,0.,1.));
#241=DIRECTION('center_axis',(3.67394039744206E-16,-1.,0.));
#242=DIRECTION('ref_axis',(-1.,-3.96508223080413E-16,0.));
#243=DIRECTION('center_axis',(3.67394039744206E-16,-1.,0.));
#244=DIRECTION('ref_axis',(-1.,-3.96508223080413E-16,0.));
#245=DIRECTION('center_axis',(2.40048221540574E-16,-1.,0.));
#246=DIRECTION('ref_axis',(-1.,-2.40048221540574E-16,0.));
#247=DIRECTION('',(-2.40048221540574E-16,1.,0.));
#248=DIRECTION('center_axis',(3.67394039744206E-16,-1.,0.));
#249=DIRECTION('ref_axis',(-1.,-3.67394039744206E-16,0.));
#250=DIRECTION('center_axis',(3.67394039744206E-16,-1.,0.));
#251=DIRECTION('ref_axis',(-1.,-3.67394039744206E-16,0.));
#252=DIRECTION('center_axis',(3.67394039744206E-16,-1.,0.));
#253=DIRECTION('ref_axis',(-1.,-3.67394039744206E-16,0.));
#254=DIRECTION('center_axis',(0.,-1.,0.));
#255=DIRECTION('ref_axis',(1.,0.,0.));
#256=DIRECTION('center_axis',(-1.,0.,1.22464679914735E-16));
#257=DIRECTION('ref_axis',(-1.22464679914735E-16,0.,-1.));
#258=DIRECTION('center_axis',(0.,1.,0.));
#259=DIRECTION('ref_axis',(1.,0.,0.));
#260=DIRECTION('center_axis',(0.,-1.,0.));
#261=DIRECTION('ref_axis',(1.,0.,0.));
#262=DIRECTION('center_axis',(0.,1.,0.));
#263=DIRECTION('ref_axis',(1.,0.,0.));
#264=DIRECTION('center_axis',(0.,1.,0.));
#265=DIRECTION('ref_axis',(1.,0.,0.));
#266=DIRECTION('',(0.,-1.,0.));
#267=DIRECTION('center_axis',(0.,1.,0.));
#268=DIRECTION('ref_axis',(1.,0.,0.));
#269=DIRECTION('center_axis',(0.,1.,0.));
#270=DIRECTION('ref_axis',(1.,0.,0.));
#271=DIRECTION('center_axis',(0.,0.,-1.));
#272=DIRECTION('ref_axis',(-1.,0.,0.));
#273=DIRECTION('center_axis',(0.,0.,1.));
#274=DIRECTION('ref_axis',(-1.,0.,0.));
#275=DIRECTION('center_axis',(-2.44929359829471E-16,1.,0.));
#276=DIRECTION('ref_axis',(1.,2.44929359829471E-16,0.));
#277=DIRECTION('center_axis',(-2.44929359829471E-16,1.,0.));
#278=DIRECTION('ref_axis',(1.,2.44929359829471E-16,0.));
#279=DIRECTION('center_axis',(0.,1.,0.));
#280=DIRECTION('ref_axis',(1.,0.,0.));
#281=DIRECTION('',(0.,-1.,0.));
#282=DIRECTION('center_axis',(-2.44929359829471E-16,1.,0.));
#283=DIRECTION('ref_axis',(1.,2.44929359829471E-16,0.));
#284=DIRECTION('center_axis',(-2.44929359829471E-16,1.,0.));
#285=DIRECTION('ref_axis',(1.,2.44929359829471E-16,0.));
#286=DIRECTION('center_axis',(0.,0.,-1.));
#287=DIRECTION('ref_axis',(-1.,0.,0.));
#288=DIRECTION('center_axis',(0.,0.,1.));
#289=DIRECTION('ref_axis',(-1.,0.,0.));
#290=DIRECTION('center_axis',(1.22464679914735E-16,-1.,0.));
#291=DIRECTION('ref_axis',(-1.,-1.22464679914735E-16,0.));
#292=DIRECTION('center_axis',(1.22464679914735E-16,-1.,0.));
#293=DIRECTION('ref_axis',(-1.,-1.22464679914735E-16,0.));
#294=DIRECTION('center_axis',(1.26882631385732E-16,-1.,0.));
#295=DIRECTION('ref_axis',(-1.,-1.26882631385732E-16,0.));
#296=DIRECTION('',(-1.26882631385732E-16,1.,0.));
#297=DIRECTION('center_axis',(1.22464679914735E-16,-1.,0.));
#298=DIRECTION('ref_axis',(-1.,-1.22464679914735E-16,0.));
#299=DIRECTION('center_axis',(1.22464679914735E-16,-1.,0.));
#300=DIRECTION('ref_axis',(-1.,-1.22464679914735E-16,0.));
#301=DIRECTION('center_axis',(0.,0.,-1.));
#302=DIRECTION('ref_axis',(-1.,0.,0.));
#303=DIRECTION('center_axis',(0.,0.,1.));
#304=DIRECTION('ref_axis',(-1.,0.,0.));
#305=CARTESIAN_POINT('',(0.,0.,0.));
#306=CARTESIAN_POINT('Ctrl Pts',(6.50000000000001,0.2,0.35));
#307=CARTESIAN_POINT('Ctrl Pts',(6.15000000000001,0.2,0.35));
#308=CARTESIAN_POINT('Ctrl Pts',(6.15000000000001,0.2,0.));
#309=CARTESIAN_POINT('Ctrl Pts',(6.15000000000001,0.2,-0.35));
#310=CARTESIAN_POINT('Ctrl Pts',(6.50000000000001,0.2,-0.35));
#311=CARTESIAN_POINT('Ctrl Pts',(6.85000000000001,0.2,-0.35));
#312=CARTESIAN_POINT('Ctrl Pts',(6.85000000000001,0.2,0.));
#313=CARTESIAN_POINT('Ctrl Pts',(6.85000000000001,0.2,0.35));
#314=CARTESIAN_POINT('Ctrl Pts',(6.50000000000001,0.2,0.35));
#315=CARTESIAN_POINT('Ctrl Pts',(6.50000000000001,1.02817400295607E-16,
0.35));
#316=CARTESIAN_POINT('Ctrl Pts',(6.15000000000001,-2.57705136148653E-17,
0.35));
#317=CARTESIAN_POINT('Ctrl Pts',(6.15000000000001,-2.45045053518637E-17,
-4.65123890093741E-34));
#318=CARTESIAN_POINT('Ctrl Pts',(6.15000000000001,-2.32384970888619E-17,
-0.35));
#319=CARTESIAN_POINT('Ctrl Pts',(6.50000000000001,1.0534941682161E-16,-0.35));
#320=CARTESIAN_POINT('Ctrl Pts',(6.85000000000001,2.33937330732082E-16,
-0.35));
#321=CARTESIAN_POINT('Ctrl Pts',(6.85000000000001,2.32671322469081E-16,
4.65123890093741E-34));
#322=CARTESIAN_POINT('Ctrl Pts',(6.85000000000001,2.31405314206079E-16,
0.35));
#323=CARTESIAN_POINT('Ctrl Pts',(6.50000000000001,1.02817400295607E-16,
0.35));
#324=CARTESIAN_POINT('Ctrl Pts',(6.50000000000001,1.38777878078145E-16,
0.15));
#325=CARTESIAN_POINT('Ctrl Pts',(6.35000000000001,8.36687721165137E-17,
0.15));
#326=CARTESIAN_POINT('Ctrl Pts',(6.35000000000001,8.36687721165137E-17,
0.));
#327=CARTESIAN_POINT('Ctrl Pts',(6.35000000000001,8.36687721165137E-17,
-0.15));
#328=CARTESIAN_POINT('Ctrl Pts',(6.50000000000001,1.38777878078145E-16,
-0.15));
#329=CARTESIAN_POINT('Ctrl Pts',(6.65000000000001,1.93886984039775E-16,
-0.15));
#330=CARTESIAN_POINT('Ctrl Pts',(6.65000000000001,1.93886984039775E-16,
0.));
#331=CARTESIAN_POINT('Ctrl Pts',(6.65000000000001,1.93886984039775E-16,
0.15));
#332=CARTESIAN_POINT('Ctrl Pts',(6.50000000000001,1.38777878078145E-16,
0.15));
#333=CARTESIAN_POINT('',(6.50000000000001,2.69956760879135E-32,0.15));
#334=CARTESIAN_POINT('Origin',(6.50000000000001,0.,0.));
#335=CARTESIAN_POINT('',(6.50000000000001,0.2,0.35));
#336=CARTESIAN_POINT('Origin',(6.50000000000001,0.2,0.15));
#337=CARTESIAN_POINT('',(6.85000000000001,0.2,4.28626379701574E-17));
#338=CARTESIAN_POINT('Origin',(6.50000000000001,0.2,0.));
#339=CARTESIAN_POINT('Origin',(6.50000000000001,0.2,0.));
#340=CARTESIAN_POINT('Origin',(6.5,9.25,0.));
#341=CARTESIAN_POINT('',(6.85,9.25,4.28626379701574E-17));
#342=CARTESIAN_POINT('',(6.85,9.25,4.28626379701574E-17));
#343=CARTESIAN_POINT('',(6.15,9.25,4.28626379701574E-17));
#344=CARTESIAN_POINT('Origin',(6.5,9.25,0.));
#345=CARTESIAN_POINT('Origin',(6.5,9.25,0.));
#346=CARTESIAN_POINT('Origin',(6.50000000000001,0.,0.));
#347=CARTESIAN_POINT('Ctrl Pts',(0.,0.,-0.15));
#348=CARTESIAN_POINT('Ctrl Pts',(-0.15,0.,-0.15));
#349=CARTESIAN_POINT('Ctrl Pts',(-0.15,0.,0.));
#350=CARTESIAN_POINT('Ctrl Pts',(-0.15,0.,0.15));
#351=CARTESIAN_POINT('Ctrl Pts',(0.,0.,0.15));
#352=CARTESIAN_POINT('Ctrl Pts',(0.15,0.,0.15));
#353=CARTESIAN_POINT('Ctrl Pts',(0.15,0.,0.));
#354=CARTESIAN_POINT('Ctrl Pts',(0.15,0.,-0.15));
#355=CARTESIAN_POINT('Ctrl Pts',(0.,0.,-0.15));
#356=CARTESIAN_POINT('Ctrl Pts',(0.,-6.12323399573677E-18,-0.35));
#357=CARTESIAN_POINT('Ctrl Pts',(-0.35,-6.12323399573677E-18,-0.35));
#358=CARTESIAN_POINT('Ctrl Pts',(-0.35,0.,0.));
#359=CARTESIAN_POINT('Ctrl Pts',(-0.35,6.12323399573677E-18,0.35));
#360=CARTESIAN_POINT('Ctrl Pts',(0.,6.12323399573677E-18,0.35));
#361=CARTESIAN_POINT('Ctrl Pts',(0.35,6.12323399573677E-18,0.35));
#362=CARTESIAN_POINT('Ctrl Pts',(0.35,0.,0.));
#363=CARTESIAN_POINT('Ctrl Pts',(0.35,-6.12323399573677E-18,-0.35));
#364=CARTESIAN_POINT('Ctrl Pts',(0.,-6.12323399573677E-18,-0.35));
#365=CARTESIAN_POINT('Ctrl Pts',(0.,0.2,-0.35));
#366=CARTESIAN_POINT('Ctrl Pts',(-0.35,0.2,-0.35));
#367=CARTESIAN_POINT('Ctrl Pts',(-0.35,0.2,0.));
#368=CARTESIAN_POINT('Ctrl Pts',(-0.35,0.2,0.35));
#369=CARTESIAN_POINT('Ctrl Pts',(0.,0.2,0.35));
#370=CARTESIAN_POINT('Ctrl Pts',(0.35,0.2,0.35));
#371=CARTESIAN_POINT('Ctrl Pts',(0.35,0.2,0.));
#372=CARTESIAN_POINT('Ctrl Pts',(0.35,0.2,-0.35));
#373=CARTESIAN_POINT('Ctrl Pts',(0.,0.2,-0.35));
#374=CARTESIAN_POINT('',(-0.35,0.2,-4.28626379701574E-17));
#375=CARTESIAN_POINT('',(-4.28626379701574E-17,0.2,-0.35));
#376=CARTESIAN_POINT('Origin',(0.,0.2,0.));
#377=CARTESIAN_POINT('',(-1.83697019872103E-17,0.,-0.15));
#378=CARTESIAN_POINT('Origin',(-1.83697019872103E-17,0.2,-0.15));
#379=CARTESIAN_POINT('Origin',(0.,0.,0.));
#380=CARTESIAN_POINT('Origin',(0.,0.2,0.));
#381=CARTESIAN_POINT('Origin',(0.,0.,0.));
#382=CARTESIAN_POINT('',(-0.35,16.25,4.28626379701574E-17));
#383=CARTESIAN_POINT('',(0.35,16.25,4.28626379701574E-17));
#384=CARTESIAN_POINT('Origin',(0.,16.25,0.));
#385=CARTESIAN_POINT('',(-0.35,0.,4.28626379701574E-17));
#386=CARTESIAN_POINT('Origin',(0.,16.25,0.));
#387=CARTESIAN_POINT('Origin',(0.,0.,0.));
#388=CARTESIAN_POINT('Origin',(3.75,9.25,0.));
#389=CARTESIAN_POINT('',(1.35,9.25,4.28626379701574E-17));
#390=CARTESIAN_POINT('Origin',(3.75,9.25,4.28626379701574E-17));
#391=CARTESIAN_POINT('',(0.650000000000003,9.25,4.28626379701574E-17));
#392=CARTESIAN_POINT('Origin',(1.,9.25,0.));
#393=CARTESIAN_POINT('Origin',(1.,9.25,0.));
#394=CARTESIAN_POINT('Origin',(1.,-10.,0.));
#395=CARTESIAN_POINT('',(0.650000000000003,-10.,4.28626379701574E-17));
#396=CARTESIAN_POINT('',(0.650000000000003,-10.,4.28626379701574E-17));
#397=CARTESIAN_POINT('',(1.35,-10.,4.28626379701574E-17));
#398=CARTESIAN_POINT('Origin',(1.,-10.,0.));
#399=CARTESIAN_POINT('Origin',(1.,-10.,0.));
#400=CARTESIAN_POINT('Origin',(4.25,-10.,0.));
#401=CARTESIAN_POINT('',(7.15,-10.,4.28626379701574E-17));
#402=CARTESIAN_POINT('Origin',(4.25,-10.,4.28626379701574E-17));
#403=CARTESIAN_POINT('',(7.85,-10.,4.28626379701574E-17));
#404=CARTESIAN_POINT('Origin',(7.5,-10.,0.));
#405=CARTESIAN_POINT('Origin',(7.5,-10.,0.));
#406=CARTESIAN_POINT('Origin',(7.5,16.25,0.));
#407=CARTESIAN_POINT('',(7.85,16.25,4.28626379701574E-17));
#408=CARTESIAN_POINT('',(7.85,16.25,4.28626379701574E-17));
#409=CARTESIAN_POINT('',(7.15,16.25,4.28626379701574E-17));
#410=CARTESIAN_POINT('Origin',(7.5,16.25,0.));
#411=CARTESIAN_POINT('Origin',(7.5,16.25,0.));
#412=CARTESIAN_POINT('Origin',(3.75,16.25,0.));
#413=CARTESIAN_POINT('Origin',(3.75,16.25,4.28626379701574E-17));
#414=UNCERTAINTY_MEASURE_WITH_UNIT(LENGTH_MEASURE(0.01),#418,
'DISTANCE_ACCURACY_VALUE',
'Maximum model space distance between geometric entities at asserted c
onnectivities');
#415=UNCERTAINTY_MEASURE_WITH_UNIT(LENGTH_MEASURE(0.01),#418,
'DISTANCE_ACCURACY_VALUE',
'Maximum model space distance between geometric entities at asserted c
onnectivities');
#416=(
GEOMETRIC_REPRESENTATION_CONTEXT(3)
GLOBAL_UNCERTAINTY_ASSIGNED_CONTEXT((#414))
GLOBAL_UNIT_ASSIGNED_CONTEXT((#418,#420,#421))
REPRESENTATION_CONTEXT('','3D')
);
#417=(
GEOMETRIC_REPRESENTATION_CONTEXT(3)
GLOBAL_UNCERTAINTY_ASSIGNED_CONTEXT((#415))
GLOBAL_UNIT_ASSIGNED_CONTEXT((#418,#420,#421))
REPRESENTATION_CONTEXT('','3D')
);
#418=(
LENGTH_UNIT()
NAMED_UNIT(*)
SI_UNIT(.MILLI.,.METRE.)
);
#419=(
LENGTH_UNIT()
NAMED_UNIT(*)
SI_UNIT($,.METRE.)
);
#420=(
NAMED_UNIT(*)
PLANE_ANGLE_UNIT()
SI_UNIT($,.RADIAN.)
);
#421=(
NAMED_UNIT(*)
SI_UNIT($,.STERADIAN.)
SOLID_ANGLE_UNIT()
);
#422=SHAPE_DEFINITION_REPRESENTATION(#423,#424);
#423=PRODUCT_DEFINITION_SHAPE('',$,#426);
#424=SHAPE_REPRESENTATION('',(#202),#416);
#425=PRODUCT_DEFINITION_CONTEXT('part definition',#430,'design');
#426=PRODUCT_DEFINITION('2026-09-26-18-15-15-186','Paper Clip',#427,#425);
#427=PRODUCT_DEFINITION_FORMATION('',$,#432);
#428=PRODUCT_RELATED_PRODUCT_CATEGORY('Paper Clip','Paper Clip',(#432));
#429=APPLICATION_PROTOCOL_DEFINITION('international standard',
'automotive_design',2009,#430);
#430=APPLICATION_CONTEXT(
'Core Data for Automotive Mechanical Design Process');
#431=PRODUCT_CONTEXT('part definition',#430,'mechanical');
#432=PRODUCT('2026-09-26-18-15-15-186','Paper Clip',$,(#431));
#433=PRESENTATION_STYLE_ASSIGNMENT((#435));
#434=PRESENTATION_STYLE_ASSIGNMENT((#436));
#435=SURFACE_STYLE_USAGE(.BOTH.,#437);
#436=SURFACE_STYLE_USAGE(.BOTH.,#438);
#437=SURFACE_SIDE_STYLE('',(#439));
#438=SURFACE_SIDE_STYLE('',(#440));
#439=SURFACE_STYLE_FILL_AREA(#441);
#440=SURFACE_STYLE_FILL_AREA(#442);
#441=FILL_AREA_STYLE('Steel - Satin',(#443));
#442=FILL_AREA_STYLE('Gold - Polished',(#444));
#443=FILL_AREA_STYLE_COLOUR('Steel - Satin',#445);
#444=FILL_AREA_STYLE_COLOUR('Gold - Polished',#446);
#445=COLOUR_RGB('Steel - Satin',0.627450980392157,0.627450980392157,0.627450980392157);
#446=COLOUR_RGB('Gold - Polished',0.956862745098039,0.898039215686275,0.654901960784314);
ENDSEC;
END-ISO-10303-21;
