ISO-10303-21;
HEADER;
/* Generated by software containing ST-Developer
 * from STEP Tools, Inc. (www.steptools.com) 
 */

FILE_DESCRIPTION(
/* description */ (''),
/* implementation_level */ '2;1');

FILE_NAME(
/* name */ 'Printable Hinged Box.step',
/* time_stamp */ '2026-09-30T01:54:50-04:00',
/* author */ (''),
/* organization */ (''),
/* preprocessor_version */ 'ST-DEVELOPER v20.2',
/* originating_system */ 'Autodesk Translation Framework v15.15.0.0',
/* authorisation */ '');

FILE_SCHEMA (('AUTOMOTIVE_DESIGN { 1 0 10303 214 3 1 1 }'));
ENDSEC;

DATA;
#10=MECHANICAL_DESIGN_GEOMETRIC_PRESENTATION_REPRESENTATION('',(#49,#50,
#51,#52),#1357);
#11=ITEM_DEFINED_TRANSFORMATION($,$,#799,#863);
#12=ITEM_DEFINED_TRANSFORMATION($,$,#834,#864);
#13=(
REPRESENTATION_RELATIONSHIP($,$,#1371,#1370)
REPRESENTATION_RELATIONSHIP_WITH_TRANSFORMATION(#11)
SHAPE_REPRESENTATION_RELATIONSHIP()
);
#14=(
REPRESENTATION_RELATIONSHIP($,$,#1372,#1370)
REPRESENTATION_RELATIONSHIP_WITH_TRANSFORMATION(#12)
SHAPE_REPRESENTATION_RELATIONSHIP()
);
#15=CONTEXT_DEPENDENT_SHAPE_REPRESENTATION(#13,#1368);
#16=CONTEXT_DEPENDENT_SHAPE_REPRESENTATION(#14,#1369);
#17=NEXT_ASSEMBLY_USAGE_OCCURRENCE('BoxBottom:1','BoxBottom:1',
'BoxBottom:1',#1374,#1375,'BoxBottom:1');
#18=NEXT_ASSEMBLY_USAGE_OCCURRENCE('BoxTop:1','BoxTop:1','BoxTop:1',#1374,
#1376,'BoxTop:1');
#19=SHAPE_REPRESENTATION_RELATIONSHIP('SRR','None',#1371,#21);
#20=SHAPE_REPRESENTATION_RELATIONSHIP('SRR','None',#1372,#22);
#21=ADVANCED_BREP_SHAPE_REPRESENTATION('',(#53,#54,#55),#1355);
#22=ADVANCED_BREP_SHAPE_REPRESENTATION('',(#56),#1356);
#23=CYLINDRICAL_SURFACE('',#821,4.);
#24=CYLINDRICAL_SURFACE('',#829,4.);
#25=CYLINDRICAL_SURFACE('',#836,4.);
#26=CYLINDRICAL_SURFACE('',#849,4.);
#27=CONICAL_SURFACE('',#815,2.3881182905104,0.244346095279206);
#28=CONICAL_SURFACE('',#845,2.,0.244346095279206);
#29=CIRCLE('',#811,0.271267962689196);
#30=CIRCLE('',#812,1.4);
#31=CIRCLE('',#813,1.62968197947559);
#32=CIRCLE('',#814,1.62968197947559);
#33=CIRCLE('',#816,2.26264865003405);
#34=CIRCLE('',#822,4.);
#35=CIRCLE('',#823,4.);
#36=CIRCLE('',#830,4.);
#37=CIRCLE('',#831,4.);
#38=CIRCLE('',#837,4.);
#39=CIRCLE('',#838,4.);
#40=CIRCLE('',#841,1.24156368896519);
#41=CIRCLE('',#842,1.);
#42=CIRCLE('',#843,0.271267962689196);
#43=CIRCLE('',#844,1.24156368896519);
#44=CIRCLE('',#846,2.);
#45=CIRCLE('',#850,4.);
#46=CIRCLE('',#851,4.);
#47=(
BOUNDED_SURFACE()
B_SPLINE_SURFACE(2,2,((#1134,#1135,#1136,#1137,#1138,#1139,#1140,#1141,
#1142),(#1143,#1144,#1145,#1146,#1147,#1148,#1149,#1150,#1151),(#1152,#1153,
#1154,#1155,#1156,#1157,#1158,#1159,#1160)),.UNSPECIFIED.,.F.,.T.,.F.)
B_SPLINE_SURFACE_WITH_KNOTS((3,3),(3,2,2,2,3),(-1.5707963267949,-0.244346095279206),
(-3.14159265358979,-1.5707963267949,0.,1.5707963267949,3.14159265358979),
 .UNSPECIFIED.)
GEOMETRIC_REPRESENTATION_ITEM()
RATIONAL_B_SPLINE_SURFACE(((1.,0.707106781186548,1.,0.707106781186548,1.,
0.707106781186548,1.,0.707106781186548,1.),(0.788010753606714,0.557207747523229,
0.788010753606714,0.557207747523229,0.788010753606714,0.557207747523229,
0.788010753606714,0.557207747523229,0.788010753606714),(1.,0.707106781186548,
1.,0.707106781186548,1.,0.707106781186548,1.,0.707106781186548,1.)))
REPRESENTATION_ITEM('')
SURFACE()
);
#48=(
BOUNDED_SURFACE()
B_SPLINE_SURFACE(2,2,((#1251,#1252,#1253,#1254,#1255,#1256,#1257,#1258,
#1259),(#1260,#1261,#1262,#1263,#1264,#1265,#1266,#1267,#1268),(#1269,#1270,
#1271,#1272,#1273,#1274,#1275,#1276,#1277)),.UNSPECIFIED.,.F.,.T.,.F.)
B_SPLINE_SURFACE_WITH_KNOTS((3,3),(3,2,2,2,3),(-1.5707963267949,-0.244346095279205),
(-3.14159265358979,-1.5707963267949,0.,1.5707963267949,3.14159265358979),
 .UNSPECIFIED.)
GEOMETRIC_REPRESENTATION_ITEM()
RATIONAL_B_SPLINE_SURFACE(((1.,0.707106781186548,1.,0.707106781186548,1.,
0.707106781186548,1.,0.707106781186548,1.),(0.788010753606714,0.557207747523229,
0.788010753606714,0.557207747523229,0.788010753606714,0.557207747523229,
0.788010753606714,0.557207747523229,0.788010753606714),(1.,0.707106781186548,
1.,0.707106781186548,1.,0.707106781186548,1.,0.707106781186548,1.)))
REPRESENTATION_ITEM('')
SURFACE()
);
#49=STYLED_ITEM('',(#1389),#53);
#50=STYLED_ITEM('',(#1389),#54);
#51=STYLED_ITEM('',(#1389),#55);
#52=STYLED_ITEM('',(#1389),#56);
#53=MANIFOLD_SOLID_BREP('Body1',#771);
#54=MANIFOLD_SOLID_BREP('Body2',#772);
#55=MANIFOLD_SOLID_BREP('Body3',#773);
#56=MANIFOLD_SOLID_BREP('Body1',#774);
#57=FACE_BOUND('',#117,.T.);
#58=FACE_BOUND('',#128,.T.);
#59=FACE_BOUND('',#145,.T.);
#60=FACE_BOUND('',#155,.T.);
#61=FACE_OUTER_BOUND('',#107,.T.);
#62=FACE_OUTER_BOUND('',#108,.T.);
#63=FACE_OUTER_BOUND('',#109,.T.);
#64=FACE_OUTER_BOUND('',#110,.T.);
#65=FACE_OUTER_BOUND('',#111,.T.);
#66=FACE_OUTER_BOUND('',#112,.T.);
#67=FACE_OUTER_BOUND('',#113,.T.);
#68=FACE_OUTER_BOUND('',#114,.T.);
#69=FACE_OUTER_BOUND('',#115,.T.);
#70=FACE_OUTER_BOUND('',#116,.T.);
#71=FACE_OUTER_BOUND('',#118,.T.);
#72=FACE_OUTER_BOUND('',#119,.T.);
#73=FACE_OUTER_BOUND('',#120,.T.);
#74=FACE_OUTER_BOUND('',#121,.T.);
#75=FACE_OUTER_BOUND('',#122,.T.);
#76=FACE_OUTER_BOUND('',#123,.T.);
#77=FACE_OUTER_BOUND('',#124,.T.);
#78=FACE_OUTER_BOUND('',#125,.T.);
#79=FACE_OUTER_BOUND('',#126,.T.);
#80=FACE_OUTER_BOUND('',#127,.T.);
#81=FACE_OUTER_BOUND('',#129,.T.);
#82=FACE_OUTER_BOUND('',#130,.T.);
#83=FACE_OUTER_BOUND('',#131,.T.);
#84=FACE_OUTER_BOUND('',#132,.T.);
#85=FACE_OUTER_BOUND('',#133,.T.);
#86=FACE_OUTER_BOUND('',#134,.T.);
#87=FACE_OUTER_BOUND('',#135,.T.);
#88=FACE_OUTER_BOUND('',#136,.T.);
#89=FACE_OUTER_BOUND('',#137,.T.);
#90=FACE_OUTER_BOUND('',#138,.T.);
#91=FACE_OUTER_BOUND('',#139,.T.);
#92=FACE_OUTER_BOUND('',#140,.T.);
#93=FACE_OUTER_BOUND('',#141,.T.);
#94=FACE_OUTER_BOUND('',#142,.T.);
#95=FACE_OUTER_BOUND('',#143,.T.);
#96=FACE_OUTER_BOUND('',#144,.T.);
#97=FACE_OUTER_BOUND('',#146,.T.);
#98=FACE_OUTER_BOUND('',#147,.T.);
#99=FACE_OUTER_BOUND('',#148,.T.);
#100=FACE_OUTER_BOUND('',#149,.T.);
#101=FACE_OUTER_BOUND('',#150,.T.);
#102=FACE_OUTER_BOUND('',#151,.T.);
#103=FACE_OUTER_BOUND('',#152,.T.);
#104=FACE_OUTER_BOUND('',#153,.T.);
#105=FACE_OUTER_BOUND('',#154,.T.);
#106=FACE_OUTER_BOUND('',#156,.T.);
#107=EDGE_LOOP('',(#487,#488,#489,#490));
#108=EDGE_LOOP('',(#491,#492,#493,#494));
#109=EDGE_LOOP('',(#495,#496,#497,#498));
#110=EDGE_LOOP('',(#499,#500,#501,#502));
#111=EDGE_LOOP('',(#503,#504,#505,#506));
#112=EDGE_LOOP('',(#507,#508,#509,#510));
#113=EDGE_LOOP('',(#511,#512,#513,#514));
#114=EDGE_LOOP('',(#515,#516,#517,#518));
#115=EDGE_LOOP('',(#519,#520,#521,#522));
#116=EDGE_LOOP('',(#523,#524,#525,#526));
#117=EDGE_LOOP('',(#527,#528,#529,#530));
#118=EDGE_LOOP('',(#531,#532,#533,#534));
#119=EDGE_LOOP('',(#535,#536,#537,#538,#539));
#120=EDGE_LOOP('',(#540,#541,#542,#543,#544));
#121=EDGE_LOOP('',(#545));
#122=EDGE_LOOP('',(#546,#547,#548,#549));
#123=EDGE_LOOP('',(#550,#551,#552,#553));
#124=EDGE_LOOP('',(#554,#555,#556,#557));
#125=EDGE_LOOP('',(#558,#559,#560,#561));
#126=EDGE_LOOP('',(#562,#563,#564,#565));
#127=EDGE_LOOP('',(#566,#567,#568,#569));
#128=EDGE_LOOP('',(#570));
#129=EDGE_LOOP('',(#571,#572,#573,#574));
#130=EDGE_LOOP('',(#575,#576,#577,#578));
#131=EDGE_LOOP('',(#579,#580,#581,#582));
#132=EDGE_LOOP('',(#583,#584,#585,#586));
#133=EDGE_LOOP('',(#587,#588,#589,#590));
#134=EDGE_LOOP('',(#591,#592,#593,#594));
#135=EDGE_LOOP('',(#595,#596,#597,#598));
#136=EDGE_LOOP('',(#599,#600,#601,#602));
#137=EDGE_LOOP('',(#603,#604,#605,#606));
#138=EDGE_LOOP('',(#607,#608,#609,#610));
#139=EDGE_LOOP('',(#611,#612,#613,#614,#615));
#140=EDGE_LOOP('',(#616,#617,#618,#619,#620));
#141=EDGE_LOOP('',(#621));
#142=EDGE_LOOP('',(#622,#623,#624,#625));
#143=EDGE_LOOP('',(#626,#627,#628,#629));
#144=EDGE_LOOP('',(#630,#631,#632,#633));
#145=EDGE_LOOP('',(#634));
#146=EDGE_LOOP('',(#635,#636,#637,#638));
#147=EDGE_LOOP('',(#639,#640,#641,#642));
#148=EDGE_LOOP('',(#643,#644,#645,#646));
#149=EDGE_LOOP('',(#647,#648,#649,#650));
#150=EDGE_LOOP('',(#651,#652,#653,#654));
#151=EDGE_LOOP('',(#655,#656,#657,#658));
#152=EDGE_LOOP('',(#659,#660,#661,#662,#663));
#153=EDGE_LOOP('',(#664,#665,#666,#667,#668));
#154=EDGE_LOOP('',(#669,#670,#671,#672,#673,#674,#675,#676));
#155=EDGE_LOOP('',(#677,#678,#679,#680));
#156=EDGE_LOOP('',(#681,#682,#683,#684,#685,#686));
#157=LINE('',#1086,#239);
#158=LINE('',#1088,#240);
#159=LINE('',#1090,#241);
#160=LINE('',#1091,#242);
#161=LINE('',#1094,#243);
#162=LINE('',#1096,#244);
#163=LINE('',#1097,#245);
#164=LINE('',#1100,#246);
#165=LINE('',#1102,#247);
#166=LINE('',#1103,#248);
#167=LINE('',#1105,#249);
#168=LINE('',#1106,#250);
#169=LINE('',#1111,#251);
#170=LINE('',#1113,#252);
#171=LINE('',#1115,#253);
#172=LINE('',#1116,#254);
#173=LINE('',#1119,#255);
#174=LINE('',#1121,#256);
#175=LINE('',#1122,#257);
#176=LINE('',#1125,#258);
#177=LINE('',#1127,#259);
#178=LINE('',#1128,#260);
#179=LINE('',#1130,#261);
#180=LINE('',#1131,#262);
#181=LINE('',#1171,#263);
#182=LINE('',#1176,#264);
#183=LINE('',#1178,#265);
#184=LINE('',#1180,#266);
#185=LINE('',#1181,#267);
#186=LINE('',#1184,#268);
#187=LINE('',#1186,#269);
#188=LINE('',#1187,#270);
#189=LINE('',#1190,#271);
#190=LINE('',#1192,#272);
#191=LINE('',#1193,#273);
#192=LINE('',#1202,#274);
#193=LINE('',#1204,#275);
#194=LINE('',#1206,#276);
#195=LINE('',#1207,#277);
#196=LINE('',#1210,#278);
#197=LINE('',#1212,#279);
#198=LINE('',#1213,#280);
#199=LINE('',#1216,#281);
#200=LINE('',#1218,#282);
#201=LINE('',#1219,#283);
#202=LINE('',#1229,#284);
#203=LINE('',#1231,#285);
#204=LINE('',#1233,#286);
#205=LINE('',#1234,#287);
#206=LINE('',#1239,#288);
#207=LINE('',#1243,#289);
#208=LINE('',#1244,#290);
#209=LINE('',#1247,#291);
#210=LINE('',#1249,#292);
#211=LINE('',#1250,#293);
#212=LINE('',#1287,#294);
#213=LINE('',#1293,#295);
#214=LINE('',#1294,#296);
#215=LINE('',#1296,#297);
#216=LINE('',#1297,#298);
#217=LINE('',#1303,#299);
#218=LINE('',#1305,#300);
#219=LINE('',#1309,#301);
#220=LINE('',#1311,#302);
#221=LINE('',#1313,#303);
#222=LINE('',#1314,#304);
#223=LINE('',#1317,#305);
#224=LINE('',#1319,#306);
#225=LINE('',#1320,#307);
#226=LINE('',#1323,#308);
#227=LINE('',#1325,#309);
#228=LINE('',#1326,#310);
#229=LINE('',#1328,#311);
#230=LINE('',#1329,#312);
#231=LINE('',#1334,#313);
#232=LINE('',#1336,#314);
#233=LINE('',#1338,#315);
#234=LINE('',#1339,#316);
#235=LINE('',#1341,#317);
#236=LINE('',#1342,#318);
#237=LINE('',#1344,#319);
#238=LINE('',#1345,#320);
#239=VECTOR('',#871,10.);
#240=VECTOR('',#872,10.);
#241=VECTOR('',#873,10.);
#242=VECTOR('',#874,10.);
#243=VECTOR('',#877,10.);
#244=VECTOR('',#878,10.);
#245=VECTOR('',#879,10.);
#246=VECTOR('',#882,10.);
#247=VECTOR('',#883,10.);
#248=VECTOR('',#884,10.);
#249=VECTOR('',#887,10.);
#250=VECTOR('',#888,10.);
#251=VECTOR('',#893,10.);
#252=VECTOR('',#894,10.);
#253=VECTOR('',#895,10.);
#254=VECTOR('',#896,10.);
#255=VECTOR('',#899,10.);
#256=VECTOR('',#900,10.);
#257=VECTOR('',#901,10.);
#258=VECTOR('',#904,10.);
#259=VECTOR('',#905,10.);
#260=VECTOR('',#906,10.);
#261=VECTOR('',#909,10.);
#262=VECTOR('',#910,10.);
#263=VECTOR('',#927,2.);
#264=VECTOR('',#932,10.);
#265=VECTOR('',#933,10.);
#266=VECTOR('',#934,10.);
#267=VECTOR('',#935,10.);
#268=VECTOR('',#938,10.);
#269=VECTOR('',#939,10.);
#270=VECTOR('',#940,10.);
#271=VECTOR('',#943,10.);
#272=VECTOR('',#944,10.);
#273=VECTOR('',#945,10.);
#274=VECTOR('',#958,10.);
#275=VECTOR('',#959,10.);
#276=VECTOR('',#960,10.);
#277=VECTOR('',#961,10.);
#278=VECTOR('',#964,10.);
#279=VECTOR('',#965,10.);
#280=VECTOR('',#966,10.);
#281=VECTOR('',#969,10.);
#282=VECTOR('',#970,10.);
#283=VECTOR('',#971,10.);
#284=VECTOR('',#986,10.);
#285=VECTOR('',#987,10.);
#286=VECTOR('',#988,10.);
#287=VECTOR('',#989,10.);
#288=VECTOR('',#994,10.);
#289=VECTOR('',#999,10.);
#290=VECTOR('',#1000,10.);
#291=VECTOR('',#1003,10.);
#292=VECTOR('',#1004,10.);
#293=VECTOR('',#1005,10.);
#294=VECTOR('',#1016,2.);
#295=VECTOR('',#1023,10.);
#296=VECTOR('',#1024,10.);
#297=VECTOR('',#1025,10.);
#298=VECTOR('',#1026,10.);
#299=VECTOR('',#1033,10.);
#300=VECTOR('',#1036,10.);
#301=VECTOR('',#1039,10.);
#302=VECTOR('',#1040,10.);
#303=VECTOR('',#1041,10.);
#304=VECTOR('',#1042,10.);
#305=VECTOR('',#1045,10.);
#306=VECTOR('',#1046,10.);
#307=VECTOR('',#1047,10.);
#308=VECTOR('',#1050,10.);
#309=VECTOR('',#1051,10.);
#310=VECTOR('',#1052,10.);
#311=VECTOR('',#1055,10.);
#312=VECTOR('',#1056,10.);
#313=VECTOR('',#1061,10.);
#314=VECTOR('',#1062,10.);
#315=VECTOR('',#1063,10.);
#316=VECTOR('',#1064,10.);
#317=VECTOR('',#1067,10.);
#318=VECTOR('',#1068,10.);
#319=VECTOR('',#1071,10.);
#320=VECTOR('',#1072,10.);
#321=VERTEX_POINT('',#1084);
#322=VERTEX_POINT('',#1085);
#323=VERTEX_POINT('',#1087);
#324=VERTEX_POINT('',#1089);
#325=VERTEX_POINT('',#1093);
#326=VERTEX_POINT('',#1095);
#327=VERTEX_POINT('',#1099);
#328=VERTEX_POINT('',#1101);
#329=VERTEX_POINT('',#1109);
#330=VERTEX_POINT('',#1110);
#331=VERTEX_POINT('',#1112);
#332=VERTEX_POINT('',#1114);
#333=VERTEX_POINT('',#1118);
#334=VERTEX_POINT('',#1120);
#335=VERTEX_POINT('',#1124);
#336=VERTEX_POINT('',#1126);
#337=VERTEX_POINT('',#1161);
#338=VERTEX_POINT('',#1163);
#339=VERTEX_POINT('',#1165);
#340=VERTEX_POINT('',#1169);
#341=VERTEX_POINT('',#1174);
#342=VERTEX_POINT('',#1175);
#343=VERTEX_POINT('',#1177);
#344=VERTEX_POINT('',#1179);
#345=VERTEX_POINT('',#1183);
#346=VERTEX_POINT('',#1185);
#347=VERTEX_POINT('',#1189);
#348=VERTEX_POINT('',#1191);
#349=VERTEX_POINT('',#1200);
#350=VERTEX_POINT('',#1201);
#351=VERTEX_POINT('',#1203);
#352=VERTEX_POINT('',#1205);
#353=VERTEX_POINT('',#1209);
#354=VERTEX_POINT('',#1211);
#355=VERTEX_POINT('',#1215);
#356=VERTEX_POINT('',#1217);
#357=VERTEX_POINT('',#1227);
#358=VERTEX_POINT('',#1228);
#359=VERTEX_POINT('',#1230);
#360=VERTEX_POINT('',#1232);
#361=VERTEX_POINT('',#1236);
#362=VERTEX_POINT('',#1238);
#363=VERTEX_POINT('',#1242);
#364=VERTEX_POINT('',#1246);
#365=VERTEX_POINT('',#1248);
#366=VERTEX_POINT('',#1278);
#367=VERTEX_POINT('',#1279);
#368=VERTEX_POINT('',#1281);
#369=VERTEX_POINT('',#1286);
#370=VERTEX_POINT('',#1291);
#371=VERTEX_POINT('',#1292);
#372=VERTEX_POINT('',#1295);
#373=VERTEX_POINT('',#1299);
#374=VERTEX_POINT('',#1301);
#375=VERTEX_POINT('',#1307);
#376=VERTEX_POINT('',#1308);
#377=VERTEX_POINT('',#1310);
#378=VERTEX_POINT('',#1312);
#379=VERTEX_POINT('',#1316);
#380=VERTEX_POINT('',#1318);
#381=VERTEX_POINT('',#1322);
#382=VERTEX_POINT('',#1324);
#383=VERTEX_POINT('',#1332);
#384=VERTEX_POINT('',#1333);
#385=VERTEX_POINT('',#1335);
#386=VERTEX_POINT('',#1337);
#387=EDGE_CURVE('',#321,#322,#157,.F.);
#388=EDGE_CURVE('',#321,#323,#158,.F.);
#389=EDGE_CURVE('',#324,#323,#159,.T.);
#390=EDGE_CURVE('',#322,#324,#160,.T.);
#391=EDGE_CURVE('',#325,#321,#161,.F.);
#392=EDGE_CURVE('',#325,#326,#162,.F.);
#393=EDGE_CURVE('',#323,#326,#163,.T.);
#394=EDGE_CURVE('',#327,#325,#164,.F.);
#395=EDGE_CURVE('',#327,#328,#165,.F.);
#396=EDGE_CURVE('',#326,#328,#166,.T.);
#397=EDGE_CURVE('',#322,#327,#167,.F.);
#398=EDGE_CURVE('',#328,#324,#168,.T.);
#399=EDGE_CURVE('',#329,#330,#169,.T.);
#400=EDGE_CURVE('',#330,#331,#170,.T.);
#401=EDGE_CURVE('',#332,#331,#171,.T.);
#402=EDGE_CURVE('',#329,#332,#172,.T.);
#403=EDGE_CURVE('',#333,#329,#173,.T.);
#404=EDGE_CURVE('',#334,#332,#174,.T.);
#405=EDGE_CURVE('',#333,#334,#175,.T.);
#406=EDGE_CURVE('',#335,#333,#176,.T.);
#407=EDGE_CURVE('',#336,#334,#177,.T.);
#408=EDGE_CURVE('',#335,#336,#178,.T.);
#409=EDGE_CURVE('',#330,#335,#179,.T.);
#410=EDGE_CURVE('',#331,#336,#180,.T.);
#411=EDGE_CURVE('',#337,#337,#29,.T.);
#412=EDGE_CURVE('',#337,#338,#30,.T.);
#413=EDGE_CURVE('',#339,#338,#31,.T.);
#414=EDGE_CURVE('',#338,#339,#32,.T.);
#415=EDGE_CURVE('',#340,#340,#33,.F.);
#416=EDGE_CURVE('',#340,#339,#181,.T.);
#417=EDGE_CURVE('',#341,#342,#182,.T.);
#418=EDGE_CURVE('',#342,#343,#183,.T.);
#419=EDGE_CURVE('',#344,#343,#184,.T.);
#420=EDGE_CURVE('',#341,#344,#185,.T.);
#421=EDGE_CURVE('',#341,#345,#186,.T.);
#422=EDGE_CURVE('',#346,#344,#187,.T.);
#423=EDGE_CURVE('',#345,#346,#188,.T.);
#424=EDGE_CURVE('',#345,#347,#189,.T.);
#425=EDGE_CURVE('',#348,#346,#190,.T.);
#426=EDGE_CURVE('',#347,#348,#191,.T.);
#427=EDGE_CURVE('',#342,#347,#34,.T.);
#428=EDGE_CURVE('',#343,#348,#35,.T.);
#429=EDGE_CURVE('',#349,#350,#192,.T.);
#430=EDGE_CURVE('',#349,#351,#193,.T.);
#431=EDGE_CURVE('',#351,#352,#194,.T.);
#432=EDGE_CURVE('',#350,#352,#195,.T.);
#433=EDGE_CURVE('',#349,#353,#196,.T.);
#434=EDGE_CURVE('',#353,#354,#197,.T.);
#435=EDGE_CURVE('',#354,#351,#198,.T.);
#436=EDGE_CURVE('',#353,#355,#199,.T.);
#437=EDGE_CURVE('',#355,#356,#200,.T.);
#438=EDGE_CURVE('',#356,#354,#201,.T.);
#439=EDGE_CURVE('',#350,#355,#36,.T.);
#440=EDGE_CURVE('',#352,#356,#37,.T.);
#441=EDGE_CURVE('',#357,#358,#202,.T.);
#442=EDGE_CURVE('',#358,#359,#203,.T.);
#443=EDGE_CURVE('',#359,#360,#204,.T.);
#444=EDGE_CURVE('',#360,#357,#205,.T.);
#445=EDGE_CURVE('',#358,#361,#38,.T.);
#446=EDGE_CURVE('',#361,#362,#206,.T.);
#447=EDGE_CURVE('',#362,#359,#39,.T.);
#448=EDGE_CURVE('',#360,#363,#207,.T.);
#449=EDGE_CURVE('',#363,#362,#208,.T.);
#450=EDGE_CURVE('',#364,#363,#209,.T.);
#451=EDGE_CURVE('',#364,#365,#210,.T.);
#452=EDGE_CURVE('',#365,#360,#211,.T.);
#453=EDGE_CURVE('',#366,#367,#40,.T.);
#454=EDGE_CURVE('',#367,#368,#41,.T.);
#455=EDGE_CURVE('',#368,#368,#42,.T.);
#456=EDGE_CURVE('',#367,#366,#43,.T.);
#457=EDGE_CURVE('',#366,#369,#212,.T.);
#458=EDGE_CURVE('',#369,#369,#44,.T.);
#459=EDGE_CURVE('',#370,#371,#213,.T.);
#460=EDGE_CURVE('',#370,#365,#214,.T.);
#461=EDGE_CURVE('',#372,#365,#215,.T.);
#462=EDGE_CURVE('',#371,#372,#216,.T.);
#463=EDGE_CURVE('',#371,#373,#45,.T.);
#464=EDGE_CURVE('',#374,#372,#46,.T.);
#465=EDGE_CURVE('',#373,#374,#217,.T.);
#466=EDGE_CURVE('',#364,#374,#218,.T.);
#467=EDGE_CURVE('',#375,#376,#219,.F.);
#468=EDGE_CURVE('',#375,#377,#220,.F.);
#469=EDGE_CURVE('',#378,#377,#221,.T.);
#470=EDGE_CURVE('',#376,#378,#222,.T.);
#471=EDGE_CURVE('',#379,#375,#223,.F.);
#472=EDGE_CURVE('',#379,#380,#224,.F.);
#473=EDGE_CURVE('',#377,#380,#225,.T.);
#474=EDGE_CURVE('',#381,#379,#226,.F.);
#475=EDGE_CURVE('',#381,#382,#227,.F.);
#476=EDGE_CURVE('',#380,#382,#228,.T.);
#477=EDGE_CURVE('',#376,#381,#229,.F.);
#478=EDGE_CURVE('',#382,#378,#230,.T.);
#479=EDGE_CURVE('',#383,#384,#231,.T.);
#480=EDGE_CURVE('',#384,#385,#232,.T.);
#481=EDGE_CURVE('',#386,#385,#233,.T.);
#482=EDGE_CURVE('',#383,#386,#234,.T.);
#483=EDGE_CURVE('',#357,#383,#235,.T.);
#484=EDGE_CURVE('',#386,#361,#236,.T.);
#485=EDGE_CURVE('',#384,#370,#237,.T.);
#486=EDGE_CURVE('',#385,#373,#238,.T.);
#487=ORIENTED_EDGE('',*,*,#387,.F.);
#488=ORIENTED_EDGE('',*,*,#388,.T.);
#489=ORIENTED_EDGE('',*,*,#389,.F.);
#490=ORIENTED_EDGE('',*,*,#390,.F.);
#491=ORIENTED_EDGE('',*,*,#391,.F.);
#492=ORIENTED_EDGE('',*,*,#392,.T.);
#493=ORIENTED_EDGE('',*,*,#393,.F.);
#494=ORIENTED_EDGE('',*,*,#388,.F.);
#495=ORIENTED_EDGE('',*,*,#394,.F.);
#496=ORIENTED_EDGE('',*,*,#395,.T.);
#497=ORIENTED_EDGE('',*,*,#396,.F.);
#498=ORIENTED_EDGE('',*,*,#392,.F.);
#499=ORIENTED_EDGE('',*,*,#397,.F.);
#500=ORIENTED_EDGE('',*,*,#390,.T.);
#501=ORIENTED_EDGE('',*,*,#398,.F.);
#502=ORIENTED_EDGE('',*,*,#395,.F.);
#503=ORIENTED_EDGE('',*,*,#397,.T.);
#504=ORIENTED_EDGE('',*,*,#394,.T.);
#505=ORIENTED_EDGE('',*,*,#391,.T.);
#506=ORIENTED_EDGE('',*,*,#387,.T.);
#507=ORIENTED_EDGE('',*,*,#399,.T.);
#508=ORIENTED_EDGE('',*,*,#400,.T.);
#509=ORIENTED_EDGE('',*,*,#401,.F.);
#510=ORIENTED_EDGE('',*,*,#402,.F.);
#511=ORIENTED_EDGE('',*,*,#403,.T.);
#512=ORIENTED_EDGE('',*,*,#402,.T.);
#513=ORIENTED_EDGE('',*,*,#404,.F.);
#514=ORIENTED_EDGE('',*,*,#405,.F.);
#515=ORIENTED_EDGE('',*,*,#406,.T.);
#516=ORIENTED_EDGE('',*,*,#405,.T.);
#517=ORIENTED_EDGE('',*,*,#407,.F.);
#518=ORIENTED_EDGE('',*,*,#408,.F.);
#519=ORIENTED_EDGE('',*,*,#409,.T.);
#520=ORIENTED_EDGE('',*,*,#408,.T.);
#521=ORIENTED_EDGE('',*,*,#410,.F.);
#522=ORIENTED_EDGE('',*,*,#400,.F.);
#523=ORIENTED_EDGE('',*,*,#410,.T.);
#524=ORIENTED_EDGE('',*,*,#407,.T.);
#525=ORIENTED_EDGE('',*,*,#404,.T.);
#526=ORIENTED_EDGE('',*,*,#401,.T.);
#527=ORIENTED_EDGE('',*,*,#389,.T.);
#528=ORIENTED_EDGE('',*,*,#393,.T.);
#529=ORIENTED_EDGE('',*,*,#396,.T.);
#530=ORIENTED_EDGE('',*,*,#398,.T.);
#531=ORIENTED_EDGE('',*,*,#409,.F.);
#532=ORIENTED_EDGE('',*,*,#399,.F.);
#533=ORIENTED_EDGE('',*,*,#403,.F.);
#534=ORIENTED_EDGE('',*,*,#406,.F.);
#535=ORIENTED_EDGE('',*,*,#411,.F.);
#536=ORIENTED_EDGE('',*,*,#412,.T.);
#537=ORIENTED_EDGE('',*,*,#413,.F.);
#538=ORIENTED_EDGE('',*,*,#414,.F.);
#539=ORIENTED_EDGE('',*,*,#412,.F.);
#540=ORIENTED_EDGE('',*,*,#415,.F.);
#541=ORIENTED_EDGE('',*,*,#416,.T.);
#542=ORIENTED_EDGE('',*,*,#413,.T.);
#543=ORIENTED_EDGE('',*,*,#414,.T.);
#544=ORIENTED_EDGE('',*,*,#416,.F.);
#545=ORIENTED_EDGE('',*,*,#411,.T.);
#546=ORIENTED_EDGE('',*,*,#417,.T.);
#547=ORIENTED_EDGE('',*,*,#418,.T.);
#548=ORIENTED_EDGE('',*,*,#419,.F.);
#549=ORIENTED_EDGE('',*,*,#420,.F.);
#550=ORIENTED_EDGE('',*,*,#421,.F.);
#551=ORIENTED_EDGE('',*,*,#420,.T.);
#552=ORIENTED_EDGE('',*,*,#422,.F.);
#553=ORIENTED_EDGE('',*,*,#423,.F.);
#554=ORIENTED_EDGE('',*,*,#424,.F.);
#555=ORIENTED_EDGE('',*,*,#423,.T.);
#556=ORIENTED_EDGE('',*,*,#425,.F.);
#557=ORIENTED_EDGE('',*,*,#426,.F.);
#558=ORIENTED_EDGE('',*,*,#427,.T.);
#559=ORIENTED_EDGE('',*,*,#426,.T.);
#560=ORIENTED_EDGE('',*,*,#428,.F.);
#561=ORIENTED_EDGE('',*,*,#418,.F.);
#562=ORIENTED_EDGE('',*,*,#428,.T.);
#563=ORIENTED_EDGE('',*,*,#425,.T.);
#564=ORIENTED_EDGE('',*,*,#422,.T.);
#565=ORIENTED_EDGE('',*,*,#419,.T.);
#566=ORIENTED_EDGE('',*,*,#427,.F.);
#567=ORIENTED_EDGE('',*,*,#417,.F.);
#568=ORIENTED_EDGE('',*,*,#421,.T.);
#569=ORIENTED_EDGE('',*,*,#424,.T.);
#570=ORIENTED_EDGE('',*,*,#415,.T.);
#571=ORIENTED_EDGE('',*,*,#429,.F.);
#572=ORIENTED_EDGE('',*,*,#430,.T.);
#573=ORIENTED_EDGE('',*,*,#431,.T.);
#574=ORIENTED_EDGE('',*,*,#432,.F.);
#575=ORIENTED_EDGE('',*,*,#433,.T.);
#576=ORIENTED_EDGE('',*,*,#434,.T.);
#577=ORIENTED_EDGE('',*,*,#435,.T.);
#578=ORIENTED_EDGE('',*,*,#430,.F.);
#579=ORIENTED_EDGE('',*,*,#436,.T.);
#580=ORIENTED_EDGE('',*,*,#437,.T.);
#581=ORIENTED_EDGE('',*,*,#438,.T.);
#582=ORIENTED_EDGE('',*,*,#434,.F.);
#583=ORIENTED_EDGE('',*,*,#439,.F.);
#584=ORIENTED_EDGE('',*,*,#432,.T.);
#585=ORIENTED_EDGE('',*,*,#440,.T.);
#586=ORIENTED_EDGE('',*,*,#437,.F.);
#587=ORIENTED_EDGE('',*,*,#440,.F.);
#588=ORIENTED_EDGE('',*,*,#431,.F.);
#589=ORIENTED_EDGE('',*,*,#435,.F.);
#590=ORIENTED_EDGE('',*,*,#438,.F.);
#591=ORIENTED_EDGE('',*,*,#439,.T.);
#592=ORIENTED_EDGE('',*,*,#436,.F.);
#593=ORIENTED_EDGE('',*,*,#433,.F.);
#594=ORIENTED_EDGE('',*,*,#429,.T.);
#595=ORIENTED_EDGE('',*,*,#441,.T.);
#596=ORIENTED_EDGE('',*,*,#442,.T.);
#597=ORIENTED_EDGE('',*,*,#443,.T.);
#598=ORIENTED_EDGE('',*,*,#444,.T.);
#599=ORIENTED_EDGE('',*,*,#445,.T.);
#600=ORIENTED_EDGE('',*,*,#446,.T.);
#601=ORIENTED_EDGE('',*,*,#447,.T.);
#602=ORIENTED_EDGE('',*,*,#442,.F.);
#603=ORIENTED_EDGE('',*,*,#448,.F.);
#604=ORIENTED_EDGE('',*,*,#443,.F.);
#605=ORIENTED_EDGE('',*,*,#447,.F.);
#606=ORIENTED_EDGE('',*,*,#449,.F.);
#607=ORIENTED_EDGE('',*,*,#448,.T.);
#608=ORIENTED_EDGE('',*,*,#450,.F.);
#609=ORIENTED_EDGE('',*,*,#451,.T.);
#610=ORIENTED_EDGE('',*,*,#452,.T.);
#611=ORIENTED_EDGE('',*,*,#453,.T.);
#612=ORIENTED_EDGE('',*,*,#454,.T.);
#613=ORIENTED_EDGE('',*,*,#455,.T.);
#614=ORIENTED_EDGE('',*,*,#454,.F.);
#615=ORIENTED_EDGE('',*,*,#456,.T.);
#616=ORIENTED_EDGE('',*,*,#453,.F.);
#617=ORIENTED_EDGE('',*,*,#457,.T.);
#618=ORIENTED_EDGE('',*,*,#458,.F.);
#619=ORIENTED_EDGE('',*,*,#457,.F.);
#620=ORIENTED_EDGE('',*,*,#456,.F.);
#621=ORIENTED_EDGE('',*,*,#455,.F.);
#622=ORIENTED_EDGE('',*,*,#459,.F.);
#623=ORIENTED_EDGE('',*,*,#460,.T.);
#624=ORIENTED_EDGE('',*,*,#461,.F.);
#625=ORIENTED_EDGE('',*,*,#462,.F.);
#626=ORIENTED_EDGE('',*,*,#463,.F.);
#627=ORIENTED_EDGE('',*,*,#462,.T.);
#628=ORIENTED_EDGE('',*,*,#464,.F.);
#629=ORIENTED_EDGE('',*,*,#465,.F.);
#630=ORIENTED_EDGE('',*,*,#451,.F.);
#631=ORIENTED_EDGE('',*,*,#466,.T.);
#632=ORIENTED_EDGE('',*,*,#464,.T.);
#633=ORIENTED_EDGE('',*,*,#461,.T.);
#634=ORIENTED_EDGE('',*,*,#458,.T.);
#635=ORIENTED_EDGE('',*,*,#467,.F.);
#636=ORIENTED_EDGE('',*,*,#468,.T.);
#637=ORIENTED_EDGE('',*,*,#469,.F.);
#638=ORIENTED_EDGE('',*,*,#470,.F.);
#639=ORIENTED_EDGE('',*,*,#471,.F.);
#640=ORIENTED_EDGE('',*,*,#472,.T.);
#641=ORIENTED_EDGE('',*,*,#473,.F.);
#642=ORIENTED_EDGE('',*,*,#468,.F.);
#643=ORIENTED_EDGE('',*,*,#474,.F.);
#644=ORIENTED_EDGE('',*,*,#475,.T.);
#645=ORIENTED_EDGE('',*,*,#476,.F.);
#646=ORIENTED_EDGE('',*,*,#472,.F.);
#647=ORIENTED_EDGE('',*,*,#477,.F.);
#648=ORIENTED_EDGE('',*,*,#470,.T.);
#649=ORIENTED_EDGE('',*,*,#478,.F.);
#650=ORIENTED_EDGE('',*,*,#475,.F.);
#651=ORIENTED_EDGE('',*,*,#477,.T.);
#652=ORIENTED_EDGE('',*,*,#474,.T.);
#653=ORIENTED_EDGE('',*,*,#471,.T.);
#654=ORIENTED_EDGE('',*,*,#467,.T.);
#655=ORIENTED_EDGE('',*,*,#479,.T.);
#656=ORIENTED_EDGE('',*,*,#480,.T.);
#657=ORIENTED_EDGE('',*,*,#481,.F.);
#658=ORIENTED_EDGE('',*,*,#482,.F.);
#659=ORIENTED_EDGE('',*,*,#483,.T.);
#660=ORIENTED_EDGE('',*,*,#482,.T.);
#661=ORIENTED_EDGE('',*,*,#484,.T.);
#662=ORIENTED_EDGE('',*,*,#445,.F.);
#663=ORIENTED_EDGE('',*,*,#441,.F.);
#664=ORIENTED_EDGE('',*,*,#485,.T.);
#665=ORIENTED_EDGE('',*,*,#459,.T.);
#666=ORIENTED_EDGE('',*,*,#463,.T.);
#667=ORIENTED_EDGE('',*,*,#486,.F.);
#668=ORIENTED_EDGE('',*,*,#480,.F.);
#669=ORIENTED_EDGE('',*,*,#486,.T.);
#670=ORIENTED_EDGE('',*,*,#465,.T.);
#671=ORIENTED_EDGE('',*,*,#466,.F.);
#672=ORIENTED_EDGE('',*,*,#450,.T.);
#673=ORIENTED_EDGE('',*,*,#449,.T.);
#674=ORIENTED_EDGE('',*,*,#446,.F.);
#675=ORIENTED_EDGE('',*,*,#484,.F.);
#676=ORIENTED_EDGE('',*,*,#481,.T.);
#677=ORIENTED_EDGE('',*,*,#469,.T.);
#678=ORIENTED_EDGE('',*,*,#473,.T.);
#679=ORIENTED_EDGE('',*,*,#476,.T.);
#680=ORIENTED_EDGE('',*,*,#478,.T.);
#681=ORIENTED_EDGE('',*,*,#485,.F.);
#682=ORIENTED_EDGE('',*,*,#479,.F.);
#683=ORIENTED_EDGE('',*,*,#483,.F.);
#684=ORIENTED_EDGE('',*,*,#444,.F.);
#685=ORIENTED_EDGE('',*,*,#452,.F.);
#686=ORIENTED_EDGE('',*,*,#460,.F.);
#687=PLANE('',#800);
#688=PLANE('',#801);
#689=PLANE('',#802);
#690=PLANE('',#803);
#691=PLANE('',#804);
#692=PLANE('',#805);
#693=PLANE('',#806);
#694=PLANE('',#807);
#695=PLANE('',#808);
#696=PLANE('',#809);
#697=PLANE('',#810);
#698=PLANE('',#817);
#699=PLANE('',#818);
#700=PLANE('',#819);
#701=PLANE('',#820);
#702=PLANE('',#824);
#703=PLANE('',#825);
#704=PLANE('',#826);
#705=PLANE('',#827);
#706=PLANE('',#828);
#707=PLANE('',#832);
#708=PLANE('',#833);
#709=PLANE('',#835);
#710=PLANE('',#839);
#711=PLANE('',#840);
#712=PLANE('',#847);
#713=PLANE('',#848);
#714=PLANE('',#852);
#715=PLANE('',#853);
#716=PLANE('',#854);
#717=PLANE('',#855);
#718=PLANE('',#856);
#719=PLANE('',#857);
#720=PLANE('',#858);
#721=PLANE('',#859);
#722=PLANE('',#860);
#723=PLANE('',#861);
#724=PLANE('',#862);
#725=ADVANCED_FACE('',(#61),#687,.F.);
#726=ADVANCED_FACE('',(#62),#688,.F.);
#727=ADVANCED_FACE('',(#63),#689,.F.);
#728=ADVANCED_FACE('',(#64),#690,.F.);
#729=ADVANCED_FACE('',(#65),#691,.T.);
#730=ADVANCED_FACE('',(#66),#692,.T.);
#731=ADVANCED_FACE('',(#67),#693,.T.);
#732=ADVANCED_FACE('',(#68),#694,.T.);
#733=ADVANCED_FACE('',(#69),#695,.T.);
#734=ADVANCED_FACE('',(#70,#57),#696,.T.);
#735=ADVANCED_FACE('',(#71),#697,.F.);
#736=ADVANCED_FACE('',(#72),#47,.T.);
#737=ADVANCED_FACE('',(#73),#27,.F.);
#738=ADVANCED_FACE('',(#74),#698,.F.);
#739=ADVANCED_FACE('',(#75),#699,.T.);
#740=ADVANCED_FACE('',(#76),#700,.T.);
#741=ADVANCED_FACE('',(#77),#701,.T.);
#742=ADVANCED_FACE('',(#78),#23,.T.);
#743=ADVANCED_FACE('',(#79),#702,.T.);
#744=ADVANCED_FACE('',(#80,#58),#703,.F.);
#745=ADVANCED_FACE('',(#81),#704,.F.);
#746=ADVANCED_FACE('',(#82),#705,.F.);
#747=ADVANCED_FACE('',(#83),#706,.F.);
#748=ADVANCED_FACE('',(#84),#24,.T.);
#749=ADVANCED_FACE('',(#85),#707,.F.);
#750=ADVANCED_FACE('',(#86),#708,.T.);
#751=ADVANCED_FACE('',(#87),#709,.F.);
#752=ADVANCED_FACE('',(#88),#25,.T.);
#753=ADVANCED_FACE('',(#89),#710,.T.);
#754=ADVANCED_FACE('',(#90),#711,.T.);
#755=ADVANCED_FACE('',(#91),#48,.F.);
#756=ADVANCED_FACE('',(#92),#28,.T.);
#757=ADVANCED_FACE('',(#93),#712,.T.);
#758=ADVANCED_FACE('',(#94),#713,.T.);
#759=ADVANCED_FACE('',(#95),#26,.T.);
#760=ADVANCED_FACE('',(#96,#59),#714,.F.);
#761=ADVANCED_FACE('',(#97),#715,.F.);
#762=ADVANCED_FACE('',(#98),#716,.F.);
#763=ADVANCED_FACE('',(#99),#717,.F.);
#764=ADVANCED_FACE('',(#100),#718,.F.);
#765=ADVANCED_FACE('',(#101),#719,.T.);
#766=ADVANCED_FACE('',(#102),#720,.T.);
#767=ADVANCED_FACE('',(#103),#721,.T.);
#768=ADVANCED_FACE('',(#104),#722,.T.);
#769=ADVANCED_FACE('',(#105,#60),#723,.T.);
#770=ADVANCED_FACE('',(#106),#724,.F.);
#771=CLOSED_SHELL('',(#725,#726,#727,#728,#729,#730,#731,#732,#733,#734,
#735));
#772=CLOSED_SHELL('',(#736,#737,#738,#739,#740,#741,#742,#743,#744));
#773=CLOSED_SHELL('',(#745,#746,#747,#748,#749,#750));
#774=CLOSED_SHELL('',(#751,#752,#753,#754,#755,#756,#757,#758,#759,#760,
#761,#762,#763,#764,#765,#766,#767,#768,#769,#770));
#775=DERIVED_UNIT_ELEMENT(#779,1.);
#776=DERIVED_UNIT_ELEMENT(#1359,-3.);
#777=DERIVED_UNIT_ELEMENT(#779,1.);
#778=DERIVED_UNIT_ELEMENT(#1359,-3.);
#779=(
MASS_UNIT()
NAMED_UNIT(*)
SI_UNIT(.KILO.,.GRAM.)
);
#780=DERIVED_UNIT((#775,#776));
#781=DERIVED_UNIT((#777,#778));
#782=MEASURE_REPRESENTATION_ITEM('density measure',
POSITIVE_RATIO_MEASURE(7850.),#780);
#783=MEASURE_REPRESENTATION_ITEM('density measure',
POSITIVE_RATIO_MEASURE(7850.),#781);
#784=PROPERTY_DEFINITION_REPRESENTATION(#794,#788);
#785=PROPERTY_DEFINITION_REPRESENTATION(#795,#789);
#786=PROPERTY_DEFINITION_REPRESENTATION(#796,#790);
#787=PROPERTY_DEFINITION_REPRESENTATION(#797,#791);
#788=REPRESENTATION('material name',(#792),#1355);
#789=REPRESENTATION('density',(#782),#1355);
#790=REPRESENTATION('material name',(#793),#1356);
#791=REPRESENTATION('density',(#783),#1356);
#792=DESCRIPTIVE_REPRESENTATION_ITEM('Steel','Steel');
#793=DESCRIPTIVE_REPRESENTATION_ITEM('Steel','Steel');
#794=PROPERTY_DEFINITION('material property','material name',#1375);
#795=PROPERTY_DEFINITION('material property','density of part',#1375);
#796=PROPERTY_DEFINITION('material property','material name',#1376);
#797=PROPERTY_DEFINITION('material property','density of part',#1376);
#798=AXIS2_PLACEMENT_3D('',#1081,#865,#866);
#799=AXIS2_PLACEMENT_3D('',#1082,#867,#868);
#800=AXIS2_PLACEMENT_3D('',#1083,#869,#870);
#801=AXIS2_PLACEMENT_3D('',#1092,#875,#876);
#802=AXIS2_PLACEMENT_3D('',#1098,#880,#881);
#803=AXIS2_PLACEMENT_3D('',#1104,#885,#886);
#804=AXIS2_PLACEMENT_3D('',#1107,#889,#890);
#805=AXIS2_PLACEMENT_3D('',#1108,#891,#892);
#806=AXIS2_PLACEMENT_3D('',#1117,#897,#898);
#807=AXIS2_PLACEMENT_3D('',#1123,#902,#903);
#808=AXIS2_PLACEMENT_3D('',#1129,#907,#908);
#809=AXIS2_PLACEMENT_3D('',#1132,#911,#912);
#810=AXIS2_PLACEMENT_3D('',#1133,#913,#914);
#811=AXIS2_PLACEMENT_3D('',#1162,#915,#916);
#812=AXIS2_PLACEMENT_3D('',#1164,#917,#918);
#813=AXIS2_PLACEMENT_3D('',#1166,#919,#920);
#814=AXIS2_PLACEMENT_3D('',#1167,#921,#922);
#815=AXIS2_PLACEMENT_3D('',#1168,#923,#924);
#816=AXIS2_PLACEMENT_3D('',#1170,#925,#926);
#817=AXIS2_PLACEMENT_3D('',#1172,#928,#929);
#818=AXIS2_PLACEMENT_3D('',#1173,#930,#931);
#819=AXIS2_PLACEMENT_3D('',#1182,#936,#937);
#820=AXIS2_PLACEMENT_3D('',#1188,#941,#942);
#821=AXIS2_PLACEMENT_3D('',#1194,#946,#947);
#822=AXIS2_PLACEMENT_3D('',#1195,#948,#949);
#823=AXIS2_PLACEMENT_3D('',#1196,#950,#951);
#824=AXIS2_PLACEMENT_3D('',#1197,#952,#953);
#825=AXIS2_PLACEMENT_3D('',#1198,#954,#955);
#826=AXIS2_PLACEMENT_3D('',#1199,#956,#957);
#827=AXIS2_PLACEMENT_3D('',#1208,#962,#963);
#828=AXIS2_PLACEMENT_3D('',#1214,#967,#968);
#829=AXIS2_PLACEMENT_3D('',#1220,#972,#973);
#830=AXIS2_PLACEMENT_3D('',#1221,#974,#975);
#831=AXIS2_PLACEMENT_3D('',#1222,#976,#977);
#832=AXIS2_PLACEMENT_3D('',#1223,#978,#979);
#833=AXIS2_PLACEMENT_3D('',#1224,#980,#981);
#834=AXIS2_PLACEMENT_3D('',#1225,#982,#983);
#835=AXIS2_PLACEMENT_3D('',#1226,#984,#985);
#836=AXIS2_PLACEMENT_3D('',#1235,#990,#991);
#837=AXIS2_PLACEMENT_3D('',#1237,#992,#993);
#838=AXIS2_PLACEMENT_3D('',#1240,#995,#996);
#839=AXIS2_PLACEMENT_3D('',#1241,#997,#998);
#840=AXIS2_PLACEMENT_3D('',#1245,#1001,#1002);
#841=AXIS2_PLACEMENT_3D('',#1280,#1006,#1007);
#842=AXIS2_PLACEMENT_3D('',#1282,#1008,#1009);
#843=AXIS2_PLACEMENT_3D('',#1283,#1010,#1011);
#844=AXIS2_PLACEMENT_3D('',#1284,#1012,#1013);
#845=AXIS2_PLACEMENT_3D('',#1285,#1014,#1015);
#846=AXIS2_PLACEMENT_3D('',#1288,#1017,#1018);
#847=AXIS2_PLACEMENT_3D('',#1289,#1019,#1020);
#848=AXIS2_PLACEMENT_3D('',#1290,#1021,#1022);
#849=AXIS2_PLACEMENT_3D('',#1298,#1027,#1028);
#850=AXIS2_PLACEMENT_3D('',#1300,#1029,#1030);
#851=AXIS2_PLACEMENT_3D('',#1302,#1031,#1032);
#852=AXIS2_PLACEMENT_3D('',#1304,#1034,#1035);
#853=AXIS2_PLACEMENT_3D('',#1306,#1037,#1038);
#854=AXIS2_PLACEMENT_3D('',#1315,#1043,#1044);
#855=AXIS2_PLACEMENT_3D('',#1321,#1048,#1049);
#856=AXIS2_PLACEMENT_3D('',#1327,#1053,#1054);
#857=AXIS2_PLACEMENT_3D('',#1330,#1057,#1058);
#858=AXIS2_PLACEMENT_3D('',#1331,#1059,#1060);
#859=AXIS2_PLACEMENT_3D('',#1340,#1065,#1066);
#860=AXIS2_PLACEMENT_3D('',#1343,#1069,#1070);
#861=AXIS2_PLACEMENT_3D('',#1346,#1073,#1074);
#862=AXIS2_PLACEMENT_3D('',#1347,#1075,#1076);
#863=AXIS2_PLACEMENT_3D('',#1348,#1077,#1078);
#864=AXIS2_PLACEMENT_3D('',#1349,#1079,#1080);
#865=DIRECTION('axis',(0.,0.,1.));
#866=DIRECTION('refdir',(1.,0.,0.));
#867=DIRECTION('axis',(0.,0.,1.));
#868=DIRECTION('refdir',(1.,0.,0.));
#869=DIRECTION('center_axis',(0.,1.,0.));
#870=DIRECTION('ref_axis',(-1.,0.,0.));
#871=DIRECTION('',(1.,0.,0.));
#872=DIRECTION('',(0.,0.,-1.));
#873=DIRECTION('',(1.,0.,0.));
#874=DIRECTION('',(0.,0.,1.));
#875=DIRECTION('center_axis',(1.,0.,0.));
#876=DIRECTION('ref_axis',(0.,1.,0.));
#877=DIRECTION('',(0.,-1.,0.));
#878=DIRECTION('',(0.,0.,-1.));
#879=DIRECTION('',(0.,-1.,0.));
#880=DIRECTION('center_axis',(-4.1086505480261E-33,-1.,0.));
#881=DIRECTION('ref_axis',(1.,-4.1086505480261E-33,0.));
#882=DIRECTION('',(-1.,4.1086505480261E-33,0.));
#883=DIRECTION('',(0.,0.,-1.));
#884=DIRECTION('',(-1.,4.1086505480261E-33,0.));
#885=DIRECTION('center_axis',(-1.,8.21730109605221E-33,0.));
#886=DIRECTION('ref_axis',(-8.21730109605221E-33,-1.,0.));
#887=DIRECTION('',(8.21730109605221E-33,1.,0.));
#888=DIRECTION('',(8.21730109605221E-33,1.,0.));
#889=DIRECTION('center_axis',(0.,0.,1.));
#890=DIRECTION('ref_axis',(1.,0.,0.));
#891=DIRECTION('center_axis',(0.,1.,0.));
#892=DIRECTION('ref_axis',(-1.,0.,0.));
#893=DIRECTION('',(-1.,0.,0.));
#894=DIRECTION('',(0.,0.,1.));
#895=DIRECTION('',(-1.,0.,0.));
#896=DIRECTION('',(0.,0.,1.));
#897=DIRECTION('center_axis',(1.,0.,0.));
#898=DIRECTION('ref_axis',(0.,1.,0.));
#899=DIRECTION('',(0.,1.,0.));
#900=DIRECTION('',(0.,1.,0.));
#901=DIRECTION('',(0.,0.,1.));
#902=DIRECTION('center_axis',(-4.1086505480261E-33,-1.,0.));
#903=DIRECTION('ref_axis',(1.,-4.1086505480261E-33,0.));
#904=DIRECTION('',(1.,-4.1086505480261E-33,0.));
#905=DIRECTION('',(1.,-4.1086505480261E-33,0.));
#906=DIRECTION('',(0.,0.,1.));
#907=DIRECTION('center_axis',(-1.,8.21730109605221E-33,0.));
#908=DIRECTION('ref_axis',(-8.21730109605221E-33,-1.,0.));
#909=DIRECTION('',(-8.21730109605221E-33,-1.,0.));
#910=DIRECTION('',(-8.21730109605221E-33,-1.,0.));
#911=DIRECTION('center_axis',(0.,0.,1.));
#912=DIRECTION('ref_axis',(1.,0.,0.));
#913=DIRECTION('center_axis',(0.,0.,1.));
#914=DIRECTION('ref_axis',(1.,0.,0.));
#915=DIRECTION('center_axis',(1.,0.,0.));
#916=DIRECTION('ref_axis',(0.,-1.,0.));
#917=DIRECTION('center_axis',(0.,-1.,0.));
#918=DIRECTION('ref_axis',(0.,0.,-1.));
#919=DIRECTION('center_axis',(-1.,0.,-8.94213510343956E-16));
#920=DIRECTION('ref_axis',(0.,-1.,0.));
#921=DIRECTION('center_axis',(-1.,0.,-8.94213510343956E-16));
#922=DIRECTION('ref_axis',(0.,-1.,0.));
#923=DIRECTION('center_axis',(1.,0.,0.));
#924=DIRECTION('ref_axis',(0.,-1.,0.));
#925=DIRECTION('center_axis',(1.,0.,0.));
#926=DIRECTION('ref_axis',(0.,-1.,0.));
#927=DIRECTION('',(-0.970295726275996,-0.241921895599668,2.96268875089793E-17));
#928=DIRECTION('center_axis',(-1.,0.,0.));
#929=DIRECTION('ref_axis',(0.,-1.,0.));
#930=DIRECTION('center_axis',(0.,-0.699400338353003,-0.714730135583848));
#931=DIRECTION('ref_axis',(0.,-0.714730135583848,0.699400338353003));
#932=DIRECTION('',(0.,-0.714730135583848,0.699400338353003));
#933=DIRECTION('',(-1.,0.,0.));
#934=DIRECTION('',(0.,-0.714730135583848,0.699400338353003));
#935=DIRECTION('',(-1.,0.,0.));
#936=DIRECTION('center_axis',(0.,1.,-1.11022302462516E-16));
#937=DIRECTION('ref_axis',(0.,-1.11022302462516E-16,-1.));
#938=DIRECTION('',(0.,1.11022302462516E-16,1.));
#939=DIRECTION('',(0.,-1.11022302462516E-16,-1.));
#940=DIRECTION('',(-1.,0.,0.));
#941=DIRECTION('center_axis',(0.,0.,1.));
#942=DIRECTION('ref_axis',(0.,1.,0.));
#943=DIRECTION('',(0.,-1.,0.));
#944=DIRECTION('',(0.,1.,0.));
#945=DIRECTION('',(-1.,0.,0.));
#946=DIRECTION('center_axis',(-1.,0.,0.));
#947=DIRECTION('ref_axis',(0.,-1.,0.));
#948=DIRECTION('center_axis',(-1.,0.,0.));
#949=DIRECTION('ref_axis',(0.,-1.,0.));
#950=DIRECTION('center_axis',(-1.,0.,0.));
#951=DIRECTION('ref_axis',(0.,-1.,0.));
#952=DIRECTION('center_axis',(-1.,0.,0.));
#953=DIRECTION('ref_axis',(0.,-1.,0.));
#954=DIRECTION('center_axis',(-1.,0.,0.));
#955=DIRECTION('ref_axis',(0.,-1.,0.));
#956=DIRECTION('center_axis',(1.14943663338548E-32,0.699400338353003,0.714730135583848));
#957=DIRECTION('ref_axis',(-1.17463054530294E-32,-0.714730135583848,0.699400338353003));
#958=DIRECTION('',(-1.17463054530294E-32,-0.714730135583848,0.699400338353003));
#959=DIRECTION('',(1.,-1.64346021921044E-32,0.));
#960=DIRECTION('',(-1.17463054530294E-32,-0.714730135583848,0.699400338353003));
#961=DIRECTION('',(1.,-1.64346021921044E-32,0.));
#962=DIRECTION('center_axis',(-1.64346021921044E-32,-1.,1.11022302462516E-16));
#963=DIRECTION('ref_axis',(-1.82460737542294E-48,-1.11022302462516E-16,
-1.));
#964=DIRECTION('',(1.82460737542294E-48,1.11022302462516E-16,1.));
#965=DIRECTION('',(1.,-1.64346021921044E-32,0.));
#966=DIRECTION('',(-1.82460737542294E-48,-1.11022302462516E-16,-1.));
#967=DIRECTION('center_axis',(0.,0.,-1.));
#968=DIRECTION('ref_axis',(1.64346021921044E-32,1.,0.));
#969=DIRECTION('',(-1.64346021921044E-32,-1.,0.));
#970=DIRECTION('',(1.,-1.64346021921044E-32,0.));
#971=DIRECTION('',(1.64346021921044E-32,1.,0.));
#972=DIRECTION('center_axis',(-1.,1.64346021921044E-32,0.));
#973=DIRECTION('ref_axis',(-1.64346021921044E-32,-1.,0.));
#974=DIRECTION('center_axis',(-1.,1.64346021921044E-32,0.));
#975=DIRECTION('ref_axis',(-1.64346021921044E-32,-1.,0.));
#976=DIRECTION('center_axis',(-1.,1.64346021921044E-32,0.));
#977=DIRECTION('ref_axis',(-1.64346021921044E-32,-1.,0.));
#978=DIRECTION('center_axis',(-1.,1.64346021921044E-32,0.));
#979=DIRECTION('ref_axis',(-1.64346021921044E-32,-1.,0.));
#980=DIRECTION('center_axis',(-1.,1.64346021921044E-32,0.));
#981=DIRECTION('ref_axis',(-1.64346021921044E-32,-1.,0.));
#982=DIRECTION('axis',(0.,0.,1.));
#983=DIRECTION('refdir',(1.,0.,0.));
#984=DIRECTION('center_axis',(1.14943659501836E-32,0.699400315007674,0.714730158428456));
#985=DIRECTION('ref_axis',(1.17463058284714E-32,0.714730158428456,-0.699400315007674));
#986=DIRECTION('',(-1.17463058284714E-32,-0.714730158428456,0.699400315007674));
#987=DIRECTION('',(-1.,1.64346021921044E-32,-9.12303674117085E-49));
#988=DIRECTION('',(1.17463058284714E-32,0.714730158428456,-0.699400315007674));
#989=DIRECTION('',(1.,-4.1086505480261E-33,0.));
#990=DIRECTION('center_axis',(1.,-1.64346021921044E-32,9.12303674117085E-49));
#991=DIRECTION('ref_axis',(-1.64346021921044E-32,-1.,0.));
#992=DIRECTION('center_axis',(-1.,1.64346021921044E-32,0.));
#993=DIRECTION('ref_axis',(-1.64346021921044E-32,-1.,0.));
#994=DIRECTION('',(-1.,1.64346021921044E-32,-9.12303674117085E-49));
#995=DIRECTION('center_axis',(1.,-1.64346021921044E-32,0.));
#996=DIRECTION('ref_axis',(-1.64346021921044E-32,-1.,0.));
#997=DIRECTION('center_axis',(-1.,1.64346021921044E-32,-9.12303674117085E-49));
#998=DIRECTION('ref_axis',(-1.64346021921044E-32,-1.,0.));
#999=DIRECTION('',(-9.12303674117085E-49,3.74833699062739E-81,1.));
#1000=DIRECTION('',(-1.64346021921044E-32,-1.,0.));
#1001=DIRECTION('center_axis',(-4.1086505480261E-33,-1.,0.));
#1002=DIRECTION('ref_axis',(1.,-4.1086505480261E-33,0.));
#1003=DIRECTION('',(1.,-4.1086505480261E-33,0.));
#1004=DIRECTION('',(-9.12303674117085E-49,3.74833699062739E-81,-1.));
#1005=DIRECTION('',(1.,-4.1086505480261E-33,0.));
#1006=DIRECTION('center_axis',(1.,0.,-8.94213510343956E-16));
#1007=DIRECTION('ref_axis',(0.,1.,0.));
#1008=DIRECTION('center_axis',(0.,-1.,0.));
#1009=DIRECTION('ref_axis',(0.,0.,-1.));
#1010=DIRECTION('center_axis',(-1.,0.,0.));
#1011=DIRECTION('ref_axis',(0.,1.,0.));
#1012=DIRECTION('center_axis',(1.,0.,-8.94213510343956E-16));
#1013=DIRECTION('ref_axis',(0.,1.,0.));
#1014=DIRECTION('center_axis',(-1.,0.,0.));
#1015=DIRECTION('ref_axis',(0.,1.,0.));
#1016=DIRECTION('',(-0.970295726275996,-0.241921895599668,-2.96268875089793E-17));
#1017=DIRECTION('center_axis',(-1.,0.,9.12303674117085E-49));
#1018=DIRECTION('ref_axis',(0.,1.,0.));
#1019=DIRECTION('center_axis',(1.,0.,0.));
#1020=DIRECTION('ref_axis',(0.,1.,0.));
#1021=DIRECTION('center_axis',(-6.52050949536567E-49,-0.699400315007674,
-0.714730158428456));
#1022=DIRECTION('ref_axis',(0.,0.714730158428456,-0.699400315007674));
#1023=DIRECTION('',(0.,-0.714730158428456,0.699400315007674));
#1024=DIRECTION('',(1.,-4.1086505480261E-33,0.));
#1025=DIRECTION('',(0.,0.714730158428456,-0.699400315007674));
#1026=DIRECTION('',(1.,0.,-9.12303674117085E-49));
#1027=DIRECTION('center_axis',(1.,0.,-9.12303674117085E-49));
#1028=DIRECTION('ref_axis',(0.,-1.,0.));
#1029=DIRECTION('center_axis',(-1.,0.,0.));
#1030=DIRECTION('ref_axis',(0.,-1.,0.));
#1031=DIRECTION('center_axis',(1.,0.,0.));
#1032=DIRECTION('ref_axis',(0.,-1.,0.));
#1033=DIRECTION('',(1.,0.,-9.12303674117085E-49));
#1034=DIRECTION('center_axis',(-1.,0.,9.12303674117085E-49));
#1035=DIRECTION('ref_axis',(0.,-1.,0.));
#1036=DIRECTION('',(0.,-1.,0.));
#1037=DIRECTION('center_axis',(0.,1.,0.));
#1038=DIRECTION('ref_axis',(-1.,0.,0.));
#1039=DIRECTION('',(1.,0.,0.));
#1040=DIRECTION('',(0.,0.,-1.));
#1041=DIRECTION('',(1.,0.,0.));
#1042=DIRECTION('',(0.,0.,1.));
#1043=DIRECTION('center_axis',(1.,0.,0.));
#1044=DIRECTION('ref_axis',(0.,1.,0.));
#1045=DIRECTION('',(0.,-1.,0.));
#1046=DIRECTION('',(0.,0.,-1.));
#1047=DIRECTION('',(0.,-1.,0.));
#1048=DIRECTION('center_axis',(-4.1086505480261E-33,-1.,0.));
#1049=DIRECTION('ref_axis',(1.,-4.1086505480261E-33,0.));
#1050=DIRECTION('',(-1.,4.1086505480261E-33,0.));
#1051=DIRECTION('',(0.,0.,-1.));
#1052=DIRECTION('',(-1.,4.1086505480261E-33,0.));
#1053=DIRECTION('center_axis',(-1.,8.21730109605221E-33,0.));
#1054=DIRECTION('ref_axis',(-8.21730109605221E-33,-1.,0.));
#1055=DIRECTION('',(8.21730109605221E-33,1.,0.));
#1056=DIRECTION('',(8.21730109605221E-33,1.,0.));
#1057=DIRECTION('center_axis',(0.,0.,1.));
#1058=DIRECTION('ref_axis',(1.,0.,0.));
#1059=DIRECTION('center_axis',(0.,1.,0.));
#1060=DIRECTION('ref_axis',(-1.,0.,0.));
#1061=DIRECTION('',(-1.,0.,0.));
#1062=DIRECTION('',(0.,0.,1.));
#1063=DIRECTION('',(-1.,0.,0.));
#1064=DIRECTION('',(0.,0.,1.));
#1065=DIRECTION('center_axis',(1.,0.,0.));
#1066=DIRECTION('ref_axis',(0.,1.,0.));
#1067=DIRECTION('',(0.,1.,0.));
#1068=DIRECTION('',(-1.64346021921044E-32,-1.,0.));
#1069=DIRECTION('center_axis',(-1.,8.21730109605221E-33,0.));
#1070=DIRECTION('ref_axis',(-8.21730109605221E-33,-1.,0.));
#1071=DIRECTION('',(-8.21730109605221E-33,-1.,0.));
#1072=DIRECTION('',(-8.21730109605221E-33,-1.,0.));
#1073=DIRECTION('center_axis',(0.,0.,1.));
#1074=DIRECTION('ref_axis',(1.,0.,0.));
#1075=DIRECTION('center_axis',(0.,0.,1.));
#1076=DIRECTION('ref_axis',(1.,0.,0.));
#1077=DIRECTION('',(0.,0.,1.));
#1078=DIRECTION('',(1.,0.,0.));
#1079=DIRECTION('',(0.,0.,1.));
#1080=DIRECTION('',(-1.,0.,0.));
#1081=CARTESIAN_POINT('',(0.,0.,0.));
#1082=CARTESIAN_POINT('',(0.,0.,0.));
#1083=CARTESIAN_POINT('Origin',(30.,28.,0.));
#1084=CARTESIAN_POINT('',(28.,28.,2.));
#1085=CARTESIAN_POINT('',(2.,28.,2.));
#1086=CARTESIAN_POINT('',(22.5,28.,2.));
#1087=CARTESIAN_POINT('',(28.,28.,10.));
#1088=CARTESIAN_POINT('',(28.,28.,0.));
#1089=CARTESIAN_POINT('',(2.,28.,10.));
#1090=CARTESIAN_POINT('',(22.5,28.,10.));
#1091=CARTESIAN_POINT('',(2.,28.,0.));
#1092=CARTESIAN_POINT('Origin',(28.,-1.23259516440783E-31,0.));
#1093=CARTESIAN_POINT('',(28.,2.,2.));
#1094=CARTESIAN_POINT('',(28.,7.5,2.));
#1095=CARTESIAN_POINT('',(28.,2.,10.));
#1096=CARTESIAN_POINT('',(28.,2.,0.));
#1097=CARTESIAN_POINT('',(28.,7.5,10.));
#1098=CARTESIAN_POINT('Origin',(8.21730109605221E-33,2.,0.));
#1099=CARTESIAN_POINT('',(2.,2.,2.));
#1100=CARTESIAN_POINT('',(7.5,2.,2.));
#1101=CARTESIAN_POINT('',(2.,2.,10.));
#1102=CARTESIAN_POINT('',(2.,2.,0.));
#1103=CARTESIAN_POINT('',(7.5,2.,10.));
#1104=CARTESIAN_POINT('Origin',(2.,30.,0.));
#1105=CARTESIAN_POINT('',(2.,22.5,2.));
#1106=CARTESIAN_POINT('',(2.,22.5,10.));
#1107=CARTESIAN_POINT('Origin',(15.,15.,2.));
#1108=CARTESIAN_POINT('Origin',(30.,30.,0.));
#1109=CARTESIAN_POINT('',(30.,30.,0.));
#1110=CARTESIAN_POINT('',(2.46519032881566E-31,30.,0.));
#1111=CARTESIAN_POINT('',(30.,30.,0.));
#1112=CARTESIAN_POINT('',(2.46519032881566E-31,30.,10.));
#1113=CARTESIAN_POINT('',(2.46519032881566E-31,30.,0.));
#1114=CARTESIAN_POINT('',(30.,30.,10.));
#1115=CARTESIAN_POINT('',(30.,30.,10.));
#1116=CARTESIAN_POINT('',(30.,30.,0.));
#1117=CARTESIAN_POINT('Origin',(30.,-1.23259516440783E-31,0.));
#1118=CARTESIAN_POINT('',(30.,-1.23259516440783E-31,0.));
#1119=CARTESIAN_POINT('',(30.,-1.23259516440783E-31,0.));
#1120=CARTESIAN_POINT('',(30.,0.,10.));
#1121=CARTESIAN_POINT('',(30.,-1.23259516440783E-31,10.));
#1122=CARTESIAN_POINT('',(30.,-1.23259516440783E-31,0.));
#1123=CARTESIAN_POINT('Origin',(0.,0.,0.));
#1124=CARTESIAN_POINT('',(0.,0.,0.));
#1125=CARTESIAN_POINT('',(0.,0.,0.));
#1126=CARTESIAN_POINT('',(0.,0.,10.));
#1127=CARTESIAN_POINT('',(0.,0.,10.));
#1128=CARTESIAN_POINT('',(0.,0.,0.));
#1129=CARTESIAN_POINT('Origin',(2.46519032881566E-31,30.,0.));
#1130=CARTESIAN_POINT('',(2.46519032881566E-31,30.,0.));
#1131=CARTESIAN_POINT('',(2.46519032881566E-31,30.,10.));
#1132=CARTESIAN_POINT('Origin',(15.,15.,10.));
#1133=CARTESIAN_POINT('Origin',(15.,15.,0.));
#1134=CARTESIAN_POINT('Ctrl Pts',(20.8,-4.5,9.7287320373108));
#1135=CARTESIAN_POINT('Ctrl Pts',(20.8,-4.2287320373108,9.7287320373108));
#1136=CARTESIAN_POINT('Ctrl Pts',(20.8,-4.2287320373108,10.));
#1137=CARTESIAN_POINT('Ctrl Pts',(20.8,-4.2287320373108,10.2712679626892));
#1138=CARTESIAN_POINT('Ctrl Pts',(20.8,-4.5,10.2712679626892));
#1139=CARTESIAN_POINT('Ctrl Pts',(20.8,-4.7712679626892,10.2712679626892));
#1140=CARTESIAN_POINT('Ctrl Pts',(20.8,-4.7712679626892,10.));
#1141=CARTESIAN_POINT('Ctrl Pts',(20.8,-4.7712679626892,9.7287320373108));
#1142=CARTESIAN_POINT('Ctrl Pts',(20.8,-4.5,9.7287320373108));
#1143=CARTESIAN_POINT('Ctrl Pts',(20.8,-4.5,8.6349321602014));
#1144=CARTESIAN_POINT('Ctrl Pts',(20.8,-3.1349321602014,8.6349321602014));
#1145=CARTESIAN_POINT('Ctrl Pts',(20.8,-3.1349321602014,10.));
#1146=CARTESIAN_POINT('Ctrl Pts',(20.8,-3.1349321602014,11.3650678397986));
#1147=CARTESIAN_POINT('Ctrl Pts',(20.8,-4.5,11.3650678397986));
#1148=CARTESIAN_POINT('Ctrl Pts',(20.8,-5.8650678397986,11.3650678397986));
#1149=CARTESIAN_POINT('Ctrl Pts',(20.8,-5.8650678397986,10.));
#1150=CARTESIAN_POINT('Ctrl Pts',(20.8,-5.8650678397986,8.6349321602014));
#1151=CARTESIAN_POINT('Ctrl Pts',(20.8,-4.5,8.6349321602014));
#1152=CARTESIAN_POINT('Ctrl Pts',(21.8613093461605,-4.5,8.37031802052441));
#1153=CARTESIAN_POINT('Ctrl Pts',(21.8613093461605,-2.87031802052441,8.37031802052441));
#1154=CARTESIAN_POINT('Ctrl Pts',(21.8613093461605,-2.87031802052441,10.));
#1155=CARTESIAN_POINT('Ctrl Pts',(21.8613093461605,-2.87031802052441,11.6296819794756));
#1156=CARTESIAN_POINT('Ctrl Pts',(21.8613093461605,-4.5,11.6296819794756));
#1157=CARTESIAN_POINT('Ctrl Pts',(21.8613093461605,-6.12968197947559,11.6296819794756));
#1158=CARTESIAN_POINT('Ctrl Pts',(21.8613093461605,-6.12968197947559,10.));
#1159=CARTESIAN_POINT('Ctrl Pts',(21.8613093461605,-6.12968197947559,8.37031802052441));
#1160=CARTESIAN_POINT('Ctrl Pts',(21.8613093461605,-4.5,8.37031802052441));
#1161=CARTESIAN_POINT('',(20.8,-4.5,9.7287320373108));
#1162=CARTESIAN_POINT('Origin',(20.8,-4.5,10.));
#1163=CARTESIAN_POINT('',(21.8613093461605,-4.5,8.37031802052441));
#1164=CARTESIAN_POINT('Origin',(22.2,-4.5,9.7287320373108));
#1165=CARTESIAN_POINT('',(21.8613093461605,-2.87031802052441,10.));
#1166=CARTESIAN_POINT('Origin',(21.8613093461605,-4.5,10.));
#1167=CARTESIAN_POINT('Origin',(21.8613093461605,-4.5,10.));
#1168=CARTESIAN_POINT('Origin',(24.9032312417601,-4.5,10.));
#1169=CARTESIAN_POINT('',(24.4,-2.23735134996595,10.));
#1170=CARTESIAN_POINT('Origin',(24.4,-4.5,10.));
#1171=CARTESIAN_POINT('',(24.9032312417601,-2.1118817094896,10.));
#1172=CARTESIAN_POINT('Origin',(20.8,-4.5,10.));
#1173=CARTESIAN_POINT('Origin',(24.4,-2.38418579323607E-7,0.));
#1174=CARTESIAN_POINT('',(24.4,-1.11022302462516E-15,0.));
#1175=CARTESIAN_POINT('',(24.4,-7.29760135341201,7.14107945766461));
#1176=CARTESIAN_POINT('',(24.4,-2.38418579323607E-7,0.));
#1177=CARTESIAN_POINT('',(19.4,-7.29760135341201,7.14107945766461));
#1178=CARTESIAN_POINT('',(24.4,-7.29760135341201,7.14107945766461));
#1179=CARTESIAN_POINT('',(19.4,-1.11022302462516E-15,0.));
#1180=CARTESIAN_POINT('',(19.4,-2.38418579323607E-7,0.));
#1181=CARTESIAN_POINT('',(24.4,-1.11022302462516E-15,0.));
#1182=CARTESIAN_POINT('Origin',(24.4,0.,10.));
#1183=CARTESIAN_POINT('',(24.4,0.,10.));
#1184=CARTESIAN_POINT('',(24.4,-1.11022302462516E-15,0.));
#1185=CARTESIAN_POINT('',(19.4,0.,10.));
#1186=CARTESIAN_POINT('',(19.4,-1.11022302462516E-15,0.));
#1187=CARTESIAN_POINT('',(24.4,0.,10.));
#1188=CARTESIAN_POINT('Origin',(24.4,-0.50000024586916,10.0000001490116));
#1189=CARTESIAN_POINT('',(24.4,-0.50000024586916,10.0000001490116));
#1190=CARTESIAN_POINT('',(24.4,-2.38418579323607E-7,10.0000001490116));
#1191=CARTESIAN_POINT('',(19.4,-0.50000024586916,10.0000001490116));
#1192=CARTESIAN_POINT('',(19.4,-2.38418579323607E-7,10.0000001490116));
#1193=CARTESIAN_POINT('',(24.4,-0.50000024586916,10.0000001490116));
#1194=CARTESIAN_POINT('Origin',(24.4,-4.5,10.));
#1195=CARTESIAN_POINT('Origin',(24.4,-4.5,10.));
#1196=CARTESIAN_POINT('Origin',(19.4,-4.5,10.));
#1197=CARTESIAN_POINT('Origin',(19.4,-4.25,7.));
#1198=CARTESIAN_POINT('Origin',(24.4,-4.25,7.));
#1199=CARTESIAN_POINT('Origin',(5.6,-2.38418579323607E-7,0.));
#1200=CARTESIAN_POINT('',(5.6,-1.11022302462516E-15,0.));
#1201=CARTESIAN_POINT('',(5.6,-7.29760135341201,7.14107945766461));
#1202=CARTESIAN_POINT('',(5.6,-2.38418579323607E-7,0.));
#1203=CARTESIAN_POINT('',(10.6,-1.11022302462516E-15,0.));
#1204=CARTESIAN_POINT('',(5.6,-1.11022302462516E-15,0.));
#1205=CARTESIAN_POINT('',(10.6,-7.29760135341201,7.14107945766461));
#1206=CARTESIAN_POINT('',(10.6,-2.38418579323607E-7,0.));
#1207=CARTESIAN_POINT('',(5.6,-7.29760135341201,7.14107945766461));
#1208=CARTESIAN_POINT('Origin',(5.6,4.01004293487348E-31,10.));
#1209=CARTESIAN_POINT('',(5.6,4.01004293487348E-31,10.));
#1210=CARTESIAN_POINT('',(5.6,-1.11022302462516E-15,0.));
#1211=CARTESIAN_POINT('',(10.6,3.18831282526826E-31,10.));
#1212=CARTESIAN_POINT('',(5.6,4.01004293487348E-31,10.));
#1213=CARTESIAN_POINT('',(10.6,-1.11022302462516E-15,0.));
#1214=CARTESIAN_POINT('Origin',(5.6,-0.50000024586916,10.0000001490116));
#1215=CARTESIAN_POINT('',(5.6,-0.50000024586916,10.0000001490116));
#1216=CARTESIAN_POINT('',(5.6,-2.38418579323607E-7,10.0000001490116));
#1217=CARTESIAN_POINT('',(10.6,-0.50000024586916,10.0000001490116));
#1218=CARTESIAN_POINT('',(5.6,-0.50000024586916,10.0000001490116));
#1219=CARTESIAN_POINT('',(10.6,-2.38418579323607E-7,10.0000001490116));
#1220=CARTESIAN_POINT('Origin',(5.6,-4.5,10.));
#1221=CARTESIAN_POINT('Origin',(5.6,-4.5,10.));
#1222=CARTESIAN_POINT('Origin',(10.6,-4.5,10.));
#1223=CARTESIAN_POINT('Origin',(10.6,-4.25,7.));
#1224=CARTESIAN_POINT('Origin',(5.6,-4.25,7.));
#1225=CARTESIAN_POINT('',(0.,0.,0.));
#1226=CARTESIAN_POINT('Origin',(30.,-7.29760126003069,7.14107936628617));
#1227=CARTESIAN_POINT('',(30.,-1.23259516440783E-31,0.));
#1228=CARTESIAN_POINT('',(30.,-7.29760126003069,7.14107936628617));
#1229=CARTESIAN_POINT('',(30.,2.38418579323607E-7,0.));
#1230=CARTESIAN_POINT('',(25.,-7.29760126003069,7.14107936628617));
#1231=CARTESIAN_POINT('',(30.,-7.29760126003069,7.14107936628617));
#1232=CARTESIAN_POINT('',(25.,2.38418579323607E-7,-4.56151837058543E-48));
#1233=CARTESIAN_POINT('',(25.,2.38418579323607E-7,-4.56151837058543E-48));
#1234=CARTESIAN_POINT('',(0.,0.,0.));
#1235=CARTESIAN_POINT('Origin',(30.,-4.5,10.));
#1236=CARTESIAN_POINT('',(30.,-0.5,10.));
#1237=CARTESIAN_POINT('Origin',(30.,-4.5,10.));
#1238=CARTESIAN_POINT('',(25.,-0.5,10.));
#1239=CARTESIAN_POINT('',(30.,-0.5,10.));
#1240=CARTESIAN_POINT('Origin',(25.,-4.5,10.));
#1241=CARTESIAN_POINT('Origin',(25.,-4.24999988079071,7.));
#1242=CARTESIAN_POINT('',(25.,8.21730109605221E-32,10.));
#1243=CARTESIAN_POINT('',(25.,0.,3.5));
#1244=CARTESIAN_POINT('',(25.,8.21730109605221E-32,10.));
#1245=CARTESIAN_POINT('Origin',(0.,0.,0.));
#1246=CARTESIAN_POINT('',(5.,0.,10.));
#1247=CARTESIAN_POINT('',(0.,0.,10.));
#1248=CARTESIAN_POINT('',(5.,2.38418579323607E-7,-4.56151837058543E-48));
#1249=CARTESIAN_POINT('',(5.,0.,3.5));
#1250=CARTESIAN_POINT('',(0.,0.,0.));
#1251=CARTESIAN_POINT('Ctrl Pts',(8.8,-4.5,9.7287320373108));
#1252=CARTESIAN_POINT('Ctrl Pts',(8.8,-4.7712679626892,9.7287320373108));
#1253=CARTESIAN_POINT('Ctrl Pts',(8.8,-4.7712679626892,10.));
#1254=CARTESIAN_POINT('Ctrl Pts',(8.8,-4.7712679626892,10.2712679626892));
#1255=CARTESIAN_POINT('Ctrl Pts',(8.8,-4.5,10.2712679626892));
#1256=CARTESIAN_POINT('Ctrl Pts',(8.8,-4.2287320373108,10.2712679626892));
#1257=CARTESIAN_POINT('Ctrl Pts',(8.8,-4.2287320373108,10.));
#1258=CARTESIAN_POINT('Ctrl Pts',(8.8,-4.2287320373108,9.7287320373108));
#1259=CARTESIAN_POINT('Ctrl Pts',(8.8,-4.5,9.7287320373108));
#1260=CARTESIAN_POINT('Ctrl Pts',(8.8,-4.5,8.94744641080409));
#1261=CARTESIAN_POINT('Ctrl Pts',(8.8,-5.55255358919591,8.94744641080409));
#1262=CARTESIAN_POINT('Ctrl Pts',(8.8,-5.55255358919591,10.));
#1263=CARTESIAN_POINT('Ctrl Pts',(8.8,-5.55255358919591,11.0525535891959));
#1264=CARTESIAN_POINT('Ctrl Pts',(8.8,-4.5,11.0525535891959));
#1265=CARTESIAN_POINT('Ctrl Pts',(8.8,-3.44744641080409,11.0525535891959));
#1266=CARTESIAN_POINT('Ctrl Pts',(8.8,-3.44744641080409,10.));
#1267=CARTESIAN_POINT('Ctrl Pts',(8.8,-3.44744641080409,8.94744641080409));
#1268=CARTESIAN_POINT('Ctrl Pts',(8.8,-4.5,8.94744641080409));
#1269=CARTESIAN_POINT('Ctrl Pts',(8.04192189559967,-4.5,8.75843631103481));
#1270=CARTESIAN_POINT('Ctrl Pts',(8.04192189559967,-5.74156368896519,8.75843631103481));
#1271=CARTESIAN_POINT('Ctrl Pts',(8.04192189559967,-5.74156368896519,10.));
#1272=CARTESIAN_POINT('Ctrl Pts',(8.04192189559967,-5.74156368896519,11.2415636889652));
#1273=CARTESIAN_POINT('Ctrl Pts',(8.04192189559967,-4.5,11.2415636889652));
#1274=CARTESIAN_POINT('Ctrl Pts',(8.04192189559967,-3.25843631103481,11.2415636889652));
#1275=CARTESIAN_POINT('Ctrl Pts',(8.04192189559967,-3.25843631103481,10.));
#1276=CARTESIAN_POINT('Ctrl Pts',(8.04192189559967,-3.25843631103481,8.75843631103481));
#1277=CARTESIAN_POINT('Ctrl Pts',(8.04192189559967,-4.5,8.75843631103481));
#1278=CARTESIAN_POINT('',(8.04192189559967,-5.74156368896519,10.));
#1279=CARTESIAN_POINT('',(8.04192189559967,-4.5,8.75843631103481));
#1280=CARTESIAN_POINT('Origin',(8.04192189559967,-4.5,10.));
#1281=CARTESIAN_POINT('',(8.8,-4.5,9.7287320373108));
#1282=CARTESIAN_POINT('Origin',(7.8,-4.5,9.7287320373108));
#1283=CARTESIAN_POINT('Origin',(8.8,-4.5,10.));
#1284=CARTESIAN_POINT('Origin',(8.04192189559967,-4.5,10.));
#1285=CARTESIAN_POINT('Origin',(5.,-4.5,10.));
#1286=CARTESIAN_POINT('',(5.,-6.5,10.));
#1287=CARTESIAN_POINT('',(5.,-6.5,10.));
#1288=CARTESIAN_POINT('Origin',(5.,-4.5,10.));
#1289=CARTESIAN_POINT('Origin',(8.8,-4.5,10.));
#1290=CARTESIAN_POINT('Origin',(0.,-7.29760126003069,7.14107936628617));
#1291=CARTESIAN_POINT('',(0.,0.,0.));
#1292=CARTESIAN_POINT('',(0.,-7.29760126003069,7.14107936628617));
#1293=CARTESIAN_POINT('',(0.,2.38418579323607E-7,0.));
#1294=CARTESIAN_POINT('',(0.,0.,0.));
#1295=CARTESIAN_POINT('',(5.,-7.29760126003069,7.14107936628617));
#1296=CARTESIAN_POINT('',(5.,2.38418579323607E-7,-4.56151837058543E-48));
#1297=CARTESIAN_POINT('',(0.,-7.29760126003069,7.14107936628617));
#1298=CARTESIAN_POINT('Origin',(0.,-4.5,10.));
#1299=CARTESIAN_POINT('',(0.,-0.5,10.));
#1300=CARTESIAN_POINT('Origin',(0.,-4.5,10.));
#1301=CARTESIAN_POINT('',(5.,-0.5,10.));
#1302=CARTESIAN_POINT('Origin',(5.,-4.5,10.));
#1303=CARTESIAN_POINT('',(0.,-0.5,10.));
#1304=CARTESIAN_POINT('Origin',(5.,-4.24999988079071,7.));
#1305=CARTESIAN_POINT('',(5.,0.,10.));
#1306=CARTESIAN_POINT('Origin',(30.,28.,0.));
#1307=CARTESIAN_POINT('',(28.,28.,2.));
#1308=CARTESIAN_POINT('',(2.,28.,2.));
#1309=CARTESIAN_POINT('',(22.5,28.,2.));
#1310=CARTESIAN_POINT('',(28.,28.,10.));
#1311=CARTESIAN_POINT('',(28.,28.,0.));
#1312=CARTESIAN_POINT('',(2.,28.,10.));
#1313=CARTESIAN_POINT('',(22.5,28.,10.));
#1314=CARTESIAN_POINT('',(2.,28.,0.));
#1315=CARTESIAN_POINT('Origin',(28.,-1.23259516440783E-31,0.));
#1316=CARTESIAN_POINT('',(28.,2.,2.));
#1317=CARTESIAN_POINT('',(28.,7.5,2.));
#1318=CARTESIAN_POINT('',(28.,2.,10.));
#1319=CARTESIAN_POINT('',(28.,2.,0.));
#1320=CARTESIAN_POINT('',(28.,7.5,10.));
#1321=CARTESIAN_POINT('Origin',(8.21730109605221E-33,2.,0.));
#1322=CARTESIAN_POINT('',(2.,2.,2.));
#1323=CARTESIAN_POINT('',(7.5,2.,2.));
#1324=CARTESIAN_POINT('',(2.,2.,10.));
#1325=CARTESIAN_POINT('',(2.,2.,0.));
#1326=CARTESIAN_POINT('',(7.5,2.,10.));
#1327=CARTESIAN_POINT('Origin',(2.,30.,0.));
#1328=CARTESIAN_POINT('',(2.,22.5,2.));
#1329=CARTESIAN_POINT('',(2.,22.5,10.));
#1330=CARTESIAN_POINT('Origin',(15.,15.,2.));
#1331=CARTESIAN_POINT('Origin',(30.,30.,0.));
#1332=CARTESIAN_POINT('',(30.,30.,0.));
#1333=CARTESIAN_POINT('',(2.46519032881566E-31,30.,0.));
#1334=CARTESIAN_POINT('',(30.,30.,0.));
#1335=CARTESIAN_POINT('',(2.46519032881566E-31,30.,10.));
#1336=CARTESIAN_POINT('',(2.46519032881566E-31,30.,0.));
#1337=CARTESIAN_POINT('',(30.,30.,10.));
#1338=CARTESIAN_POINT('',(30.,30.,10.));
#1339=CARTESIAN_POINT('',(30.,30.,0.));
#1340=CARTESIAN_POINT('Origin',(30.,-1.23259516440783E-31,0.));
#1341=CARTESIAN_POINT('',(30.,-1.23259516440783E-31,0.));
#1342=CARTESIAN_POINT('',(30.,0.,10.));
#1343=CARTESIAN_POINT('Origin',(2.46519032881566E-31,30.,0.));
#1344=CARTESIAN_POINT('',(2.46519032881566E-31,30.,0.));
#1345=CARTESIAN_POINT('',(2.46519032881566E-31,30.,10.));
#1346=CARTESIAN_POINT('Origin',(15.,15.,10.));
#1347=CARTESIAN_POINT('Origin',(15.,15.,0.));
#1348=CARTESIAN_POINT('',(0.,0.,0.));
#1349=CARTESIAN_POINT('',(30.,-9.,0.));
#1350=UNCERTAINTY_MEASURE_WITH_UNIT(LENGTH_MEASURE(0.01),#1358,
'DISTANCE_ACCURACY_VALUE',
'Maximum model space distance between geometric entities at asserted c
onnectivities');
#1351=UNCERTAINTY_MEASURE_WITH_UNIT(LENGTH_MEASURE(0.01),#1358,
'DISTANCE_ACCURACY_VALUE',
'Maximum model space distance between geometric entities at asserted c
onnectivities');
#1352=UNCERTAINTY_MEASURE_WITH_UNIT(LENGTH_MEASURE(0.01),#1358,
'DISTANCE_ACCURACY_VALUE',
'Maximum model space distance between geometric entities at asserted c
onnectivities');
#1353=UNCERTAINTY_MEASURE_WITH_UNIT(LENGTH_MEASURE(0.01),#1358,
'DISTANCE_ACCURACY_VALUE',
'Maximum model space distance between geometric entities at asserted c
onnectivities');
#1354=(
GEOMETRIC_REPRESENTATION_CONTEXT(3)
GLOBAL_UNCERTAINTY_ASSIGNED_CONTEXT((#1350))
GLOBAL_UNIT_ASSIGNED_CONTEXT((#1358,#1360,#1361))
REPRESENTATION_CONTEXT('','3D')
);
#1355=(
GEOMETRIC_REPRESENTATION_CONTEXT(3)
GLOBAL_UNCERTAINTY_ASSIGNED_CONTEXT((#1351))
GLOBAL_UNIT_ASSIGNED_CONTEXT((#1358,#1360,#1361))
REPRESENTATION_CONTEXT('','3D')
);
#1356=(
GEOMETRIC_REPRESENTATION_CONTEXT(3)
GLOBAL_UNCERTAINTY_ASSIGNED_CONTEXT((#1352))
GLOBAL_UNIT_ASSIGNED_CONTEXT((#1358,#1360,#1361))
REPRESENTATION_CONTEXT('','3D')
);
#1357=(
GEOMETRIC_REPRESENTATION_CONTEXT(3)
GLOBAL_UNCERTAINTY_ASSIGNED_CONTEXT((#1353))
GLOBAL_UNIT_ASSIGNED_CONTEXT((#1358,#1360,#1361))
REPRESENTATION_CONTEXT('','3D')
);
#1358=(
LENGTH_UNIT()
NAMED_UNIT(*)
SI_UNIT(.MILLI.,.METRE.)
);
#1359=(
LENGTH_UNIT()
NAMED_UNIT(*)
SI_UNIT($,.METRE.)
);
#1360=(
NAMED_UNIT(*)
PLANE_ANGLE_UNIT()
SI_UNIT($,.RADIAN.)
);
#1361=(
NAMED_UNIT(*)
SI_UNIT($,.STERADIAN.)
SOLID_ANGLE_UNIT()
);
#1362=SHAPE_DEFINITION_REPRESENTATION(#1365,#1370);
#1363=SHAPE_DEFINITION_REPRESENTATION(#1366,#1371);
#1364=SHAPE_DEFINITION_REPRESENTATION(#1367,#1372);
#1365=PRODUCT_DEFINITION_SHAPE('',$,#1374);
#1366=PRODUCT_DEFINITION_SHAPE('',$,#1375);
#1367=PRODUCT_DEFINITION_SHAPE('',$,#1376);
#1368=PRODUCT_DEFINITION_SHAPE($,$,#17);
#1369=PRODUCT_DEFINITION_SHAPE($,$,#18);
#1370=SHAPE_REPRESENTATION('',(#798,#863,#864),#1354);
#1371=SHAPE_REPRESENTATION('',(#799),#1355);
#1372=SHAPE_REPRESENTATION('',(#834),#1356);
#1373=PRODUCT_DEFINITION_CONTEXT('part definition',#1384,'design');
#1374=PRODUCT_DEFINITION('2026-09-30-00-36-27-436',
'Printable Hinged Box',#1377,#1373);
#1375=PRODUCT_DEFINITION('2026-09-30-00-58-30-580','BoxBottom',#1378,#1373);
#1376=PRODUCT_DEFINITION('2026-09-30-01-03-17-098','BoxTop',#1379,#1373);
#1377=PRODUCT_DEFINITION_FORMATION('',$,#1386);
#1378=PRODUCT_DEFINITION_FORMATION('',$,#1387);
#1379=PRODUCT_DEFINITION_FORMATION('',$,#1388);
#1380=PRODUCT_RELATED_PRODUCT_CATEGORY('Printable Hinged Box',
'Printable Hinged Box',(#1386));
#1381=PRODUCT_RELATED_PRODUCT_CATEGORY('BoxBottom','BoxBottom',(#1387));
#1382=PRODUCT_RELATED_PRODUCT_CATEGORY('BoxTop','BoxTop',(#1388));
#1383=APPLICATION_PROTOCOL_DEFINITION('international standard',
'automotive_design',2009,#1384);
#1384=APPLICATION_CONTEXT(
'Core Data for Automotive Mechanical Design Process');
#1385=PRODUCT_CONTEXT('part definition',#1384,'mechanical');
#1386=PRODUCT('2026-09-30-00-36-27-436','Printable Hinged Box',$,(#1385));
#1387=PRODUCT('2026-09-30-00-58-30-580','BoxBottom',$,(#1385));
#1388=PRODUCT('2026-09-30-01-03-17-098','BoxTop',$,(#1385));
#1389=PRESENTATION_STYLE_ASSIGNMENT((#1390));
#1390=SURFACE_STYLE_USAGE(.BOTH.,#1391);
#1391=SURFACE_SIDE_STYLE('',(#1392));
#1392=SURFACE_STYLE_FILL_AREA(#1393);
#1393=FILL_AREA_STYLE('Steel - Satin',(#1394));
#1394=FILL_AREA_STYLE_COLOUR('Steel - Satin',#1395);
#1395=COLOUR_RGB('Steel - Satin',0.627450980392157,0.627450980392157,0.627450980392157);
ENDSEC;
END-ISO-10303-21;
