ISO-10303-21;
HEADER;
/* Generated by software containing ST-Developer
 * from STEP Tools, Inc. (www.steptools.com) 
 */

FILE_DESCRIPTION(
/* description */ (''),
/* implementation_level */ '2;1');

FILE_NAME(
/* name */ 'Sheet Metal - Napkin Holder.step',
/* time_stamp */ '2026-10-03T22:30:27-04:00',
/* author */ (''),
/* organization */ (''),
/* preprocessor_version */ 'ST-DEVELOPER v20.2',
/* originating_system */ 'Autodesk Translation Framework v15.15.0.0',
/* authorisation */ '');

FILE_SCHEMA (('AUTOMOTIVE_DESIGN { 1 0 10303 214 3 1 1 }'));
ENDSEC;

DATA;
#10=MECHANICAL_DESIGN_GEOMETRIC_PRESENTATION_REPRESENTATION('',(#17),#1024);
#11=ITEM_DEFINED_TRANSFORMATION($,$,#608,#668);
#12=(
REPRESENTATION_RELATIONSHIP($,$,#1035,#1034)
REPRESENTATION_RELATIONSHIP_WITH_TRANSFORMATION(#11)
SHAPE_REPRESENTATION_RELATIONSHIP()
);
#13=CONTEXT_DEPENDENT_SHAPE_REPRESENTATION(#12,#1033);
#14=NEXT_ASSEMBLY_USAGE_OCCURRENCE('Napkin holder:1','Napkin holder:1',
'Napkin holder:1',#1037,#1038,'Napkin holder:1');
#15=SHAPE_REPRESENTATION_RELATIONSHIP('SRR','None',#1035,#16);
#16=ADVANCED_BREP_SHAPE_REPRESENTATION('',(#18),#1023);
#17=STYLED_ITEM('',(#1048),#18);
#18=MANIFOLD_SOLID_BREP('Body1',#594);
#19=FACE_BOUND('',#83,.T.);
#20=FACE_BOUND('',#108,.T.);
#21=PLANE('',#612);
#22=PLANE('',#623);
#23=PLANE('',#632);
#24=PLANE('',#633);
#25=PLANE('',#638);
#26=PLANE('',#642);
#27=PLANE('',#647);
#28=PLANE('',#651);
#29=PLANE('',#652);
#30=PLANE('',#653);
#31=PLANE('',#654);
#32=PLANE('',#656);
#33=PLANE('',#658);
#34=PLANE('',#659);
#35=PLANE('',#661);
#36=PLANE('',#662);
#37=PLANE('',#664);
#38=PLANE('',#665);
#39=PLANE('',#666);
#40=PLANE('',#667);
#41=FACE_OUTER_BOUND('',#74,.T.);
#42=FACE_OUTER_BOUND('',#75,.T.);
#43=FACE_OUTER_BOUND('',#76,.T.);
#44=FACE_OUTER_BOUND('',#77,.T.);
#45=FACE_OUTER_BOUND('',#78,.T.);
#46=FACE_OUTER_BOUND('',#79,.T.);
#47=FACE_OUTER_BOUND('',#80,.T.);
#48=FACE_OUTER_BOUND('',#81,.T.);
#49=FACE_OUTER_BOUND('',#82,.T.);
#50=FACE_OUTER_BOUND('',#84,.T.);
#51=FACE_OUTER_BOUND('',#85,.T.);
#52=FACE_OUTER_BOUND('',#86,.T.);
#53=FACE_OUTER_BOUND('',#87,.T.);
#54=FACE_OUTER_BOUND('',#88,.T.);
#55=FACE_OUTER_BOUND('',#89,.T.);
#56=FACE_OUTER_BOUND('',#90,.T.);
#57=FACE_OUTER_BOUND('',#91,.T.);
#58=FACE_OUTER_BOUND('',#92,.T.);
#59=FACE_OUTER_BOUND('',#93,.T.);
#60=FACE_OUTER_BOUND('',#94,.T.);
#61=FACE_OUTER_BOUND('',#95,.T.);
#62=FACE_OUTER_BOUND('',#96,.T.);
#63=FACE_OUTER_BOUND('',#97,.T.);
#64=FACE_OUTER_BOUND('',#98,.T.);
#65=FACE_OUTER_BOUND('',#99,.T.);
#66=FACE_OUTER_BOUND('',#100,.T.);
#67=FACE_OUTER_BOUND('',#101,.T.);
#68=FACE_OUTER_BOUND('',#102,.T.);
#69=FACE_OUTER_BOUND('',#103,.T.);
#70=FACE_OUTER_BOUND('',#104,.T.);
#71=FACE_OUTER_BOUND('',#105,.T.);
#72=FACE_OUTER_BOUND('',#106,.T.);
#73=FACE_OUTER_BOUND('',#107,.T.);
#74=EDGE_LOOP('',(#382,#383,#384,#385));
#75=EDGE_LOOP('',(#386,#387,#388,#389,#390,#391,#392,#393,#394,#395,#396,
#397));
#76=EDGE_LOOP('',(#398,#399,#400,#401));
#77=EDGE_LOOP('',(#402,#403,#404,#405));
#78=EDGE_LOOP('',(#406,#407,#408,#409,#410,#411,#412,#413,#414,#415,#416,
#417));
#79=EDGE_LOOP('',(#418,#419,#420,#421));
#80=EDGE_LOOP('',(#422,#423,#424,#425));
#81=EDGE_LOOP('',(#426,#427,#428,#429));
#82=EDGE_LOOP('',(#430,#431,#432,#433));
#83=EDGE_LOOP('',(#434));
#84=EDGE_LOOP('',(#435,#436,#437,#438));
#85=EDGE_LOOP('',(#439,#440,#441,#442));
#86=EDGE_LOOP('',(#443,#444,#445,#446,#447,#448,#449,#450));
#87=EDGE_LOOP('',(#451,#452,#453,#454));
#88=EDGE_LOOP('',(#455,#456,#457,#458));
#89=EDGE_LOOP('',(#459,#460,#461,#462));
#90=EDGE_LOOP('',(#463,#464,#465,#466));
#91=EDGE_LOOP('',(#467,#468,#469,#470));
#92=EDGE_LOOP('',(#471,#472,#473,#474));
#93=EDGE_LOOP('',(#475,#476,#477,#478,#479,#480,#481,#482));
#94=EDGE_LOOP('',(#483,#484,#485,#486));
#95=EDGE_LOOP('',(#487,#488,#489,#490));
#96=EDGE_LOOP('',(#491,#492,#493,#494));
#97=EDGE_LOOP('',(#495,#496,#497,#498));
#98=EDGE_LOOP('',(#499,#500,#501,#502));
#99=EDGE_LOOP('',(#503,#504,#505,#506,#507,#508,#509,#510));
#100=EDGE_LOOP('',(#511,#512,#513,#514));
#101=EDGE_LOOP('',(#515,#516,#517,#518));
#102=EDGE_LOOP('',(#519,#520,#521,#522));
#103=EDGE_LOOP('',(#523,#524,#525,#526));
#104=EDGE_LOOP('',(#527,#528,#529,#530,#531,#532,#533,#534));
#105=EDGE_LOOP('',(#535,#536,#537,#538));
#106=EDGE_LOOP('',(#539,#540,#541,#542));
#107=EDGE_LOOP('',(#543,#544,#545,#546));
#108=EDGE_LOOP('',(#547));
#109=LINE('',#856,#166);
#110=LINE('',#863,#167);
#111=LINE('',#865,#168);
#112=LINE('',#867,#169);
#113=LINE('',#871,#170);
#114=LINE('',#875,#171);
#115=LINE('',#877,#172);
#116=LINE('',#879,#173);
#117=LINE('',#882,#174);
#118=LINE('',#887,#175);
#119=LINE('',#894,#176);
#120=LINE('',#900,#177);
#121=LINE('',#903,#178);
#122=LINE('',#905,#179);
#123=LINE('',#909,#180);
#124=LINE('',#912,#181);
#125=LINE('',#913,#182);
#126=LINE('',#916,#183);
#127=LINE('',#919,#184);
#128=LINE('',#922,#185);
#129=LINE('',#925,#186);
#130=LINE('',#928,#187);
#131=LINE('',#929,#188);
#132=LINE('',#932,#189);
#133=LINE('',#933,#190);
#134=LINE('',#936,#191);
#135=LINE('',#941,#192);
#136=LINE('',#944,#193);
#137=LINE('',#946,#194);
#138=LINE('',#950,#195);
#139=LINE('',#951,#196);
#140=LINE('',#954,#197);
#141=LINE('',#958,#198);
#142=LINE('',#959,#199);
#143=LINE('',#962,#200);
#144=LINE('',#968,#201);
#145=LINE('',#969,#202);
#146=LINE('',#971,#203);
#147=LINE('',#972,#204);
#148=LINE('',#978,#205);
#149=LINE('',#981,#206);
#150=LINE('',#984,#207);
#151=LINE('',#985,#208);
#152=LINE('',#986,#209);
#153=LINE('',#988,#210);
#154=LINE('',#989,#211);
#155=LINE('',#991,#212);
#156=LINE('',#992,#213);
#157=LINE('',#995,#214);
#158=LINE('',#998,#215);
#159=LINE('',#1000,#216);
#160=LINE('',#1003,#217);
#161=LINE('',#1006,#218);
#162=LINE('',#1008,#219);
#163=LINE('',#1010,#220);
#164=LINE('',#1012,#221);
#165=LINE('',#1015,#222);
#166=VECTOR('',#677,1.5);
#167=VECTOR('',#684,10.);
#168=VECTOR('',#685,10.);
#169=VECTOR('',#686,10.);
#170=VECTOR('',#689,10.);
#171=VECTOR('',#692,10.);
#172=VECTOR('',#693,10.);
#173=VECTOR('',#694,10.);
#174=VECTOR('',#697,10.);
#175=VECTOR('',#702,10.);
#176=VECTOR('',#711,10.);
#177=VECTOR('',#716,10.);
#178=VECTOR('',#719,10.);
#179=VECTOR('',#720,10.);
#180=VECTOR('',#723,10.);
#181=VECTOR('',#726,10.);
#182=VECTOR('',#727,10.);
#183=VECTOR('',#730,10.);
#184=VECTOR('',#733,10.);
#185=VECTOR('',#736,10.);
#186=VECTOR('',#739,10.);
#187=VECTOR('',#742,10.);
#188=VECTOR('',#743,10.);
#189=VECTOR('',#746,10.);
#190=VECTOR('',#747,10.);
#191=VECTOR('',#750,10.);
#192=VECTOR('',#757,10.);
#193=VECTOR('',#760,10.);
#194=VECTOR('',#761,2.5944);
#195=VECTOR('',#764,2.5944);
#196=VECTOR('',#765,10.);
#197=VECTOR('',#768,10.);
#198=VECTOR('',#773,10.);
#199=VECTOR('',#774,10.);
#200=VECTOR('',#777,10.);
#201=VECTOR('',#784,10.);
#202=VECTOR('',#785,10.);
#203=VECTOR('',#788,2.5944);
#204=VECTOR('',#789,10.);
#205=VECTOR('',#794,10.);
#206=VECTOR('',#797,10.);
#207=VECTOR('',#800,10.);
#208=VECTOR('',#801,2.5944);
#209=VECTOR('',#802,2.5944);
#210=VECTOR('',#805,2.5944);
#211=VECTOR('',#806,10.);
#212=VECTOR('',#809,10.);
#213=VECTOR('',#810,10.);
#214=VECTOR('',#813,10.);
#215=VECTOR('',#818,10.);
#216=VECTOR('',#821,10.);
#217=VECTOR('',#826,10.);
#218=VECTOR('',#829,10.);
#219=VECTOR('',#832,10.);
#220=VECTOR('',#835,10.);
#221=VECTOR('',#838,10.);
#222=VECTOR('',#843,10.);
#223=CIRCLE('',#610,1.5);
#224=CIRCLE('',#611,1.5);
#225=CIRCLE('',#613,3.76);
#226=CIRCLE('',#614,1.88);
#227=CIRCLE('',#615,1.88);
#228=CIRCLE('',#616,3.76);
#229=CIRCLE('',#618,7.50000000000007);
#230=CIRCLE('',#619,7.50000000000007);
#231=CIRCLE('',#621,7.50000000000007);
#232=CIRCLE('',#622,7.50000000000007);
#233=CIRCLE('',#624,3.76);
#234=CIRCLE('',#625,3.76);
#235=CIRCLE('',#626,1.88);
#236=CIRCLE('',#627,1.88);
#237=CIRCLE('',#629,3.76);
#238=CIRCLE('',#631,3.76);
#239=CIRCLE('',#635,3.76);
#240=CIRCLE('',#637,3.76);
#241=CIRCLE('',#639,62.5000000000001);
#242=CIRCLE('',#641,1.88);
#243=CIRCLE('',#644,1.88);
#244=CIRCLE('',#646,62.5000000000001);
#245=CIRCLE('',#649,62.5000000000001);
#246=CIRCLE('',#650,62.5000000000001);
#247=CIRCLE('',#655,1.88);
#248=CIRCLE('',#660,1.88);
#249=VERTEX_POINT('',#853);
#250=VERTEX_POINT('',#855);
#251=VERTEX_POINT('',#859);
#252=VERTEX_POINT('',#860);
#253=VERTEX_POINT('',#862);
#254=VERTEX_POINT('',#864);
#255=VERTEX_POINT('',#866);
#256=VERTEX_POINT('',#868);
#257=VERTEX_POINT('',#870);
#258=VERTEX_POINT('',#872);
#259=VERTEX_POINT('',#874);
#260=VERTEX_POINT('',#876);
#261=VERTEX_POINT('',#878);
#262=VERTEX_POINT('',#880);
#263=VERTEX_POINT('',#884);
#264=VERTEX_POINT('',#886);
#265=VERTEX_POINT('',#890);
#266=VERTEX_POINT('',#892);
#267=VERTEX_POINT('',#896);
#268=VERTEX_POINT('',#897);
#269=VERTEX_POINT('',#899);
#270=VERTEX_POINT('',#901);
#271=VERTEX_POINT('',#904);
#272=VERTEX_POINT('',#906);
#273=VERTEX_POINT('',#908);
#274=VERTEX_POINT('',#910);
#275=VERTEX_POINT('',#915);
#276=VERTEX_POINT('',#917);
#277=VERTEX_POINT('',#921);
#278=VERTEX_POINT('',#923);
#279=VERTEX_POINT('',#927);
#280=VERTEX_POINT('',#931);
#281=VERTEX_POINT('',#935);
#282=VERTEX_POINT('',#939);
#283=VERTEX_POINT('',#943);
#284=VERTEX_POINT('',#945);
#285=VERTEX_POINT('',#947);
#286=VERTEX_POINT('',#949);
#287=VERTEX_POINT('',#953);
#288=VERTEX_POINT('',#957);
#289=VERTEX_POINT('',#961);
#290=VERTEX_POINT('',#965);
#291=VERTEX_POINT('',#966);
#292=VERTEX_POINT('',#974);
#293=VERTEX_POINT('',#975);
#294=VERTEX_POINT('',#977);
#295=VERTEX_POINT('',#979);
#296=VERTEX_POINT('',#983);
#297=VERTEX_POINT('',#994);
#298=VERTEX_POINT('',#1004);
#299=EDGE_CURVE('',#249,#249,#223,.T.);
#300=EDGE_CURVE('',#249,#250,#109,.T.);
#301=EDGE_CURVE('',#250,#250,#224,.T.);
#302=EDGE_CURVE('',#251,#252,#225,.T.);
#303=EDGE_CURVE('',#253,#251,#110,.T.);
#304=EDGE_CURVE('',#254,#253,#111,.T.);
#305=EDGE_CURVE('',#255,#254,#112,.T.);
#306=EDGE_CURVE('',#256,#255,#226,.T.);
#307=EDGE_CURVE('',#257,#256,#113,.T.);
#308=EDGE_CURVE('',#258,#257,#227,.T.);
#309=EDGE_CURVE('',#259,#258,#114,.T.);
#310=EDGE_CURVE('',#260,#259,#115,.T.);
#311=EDGE_CURVE('',#261,#260,#116,.T.);
#312=EDGE_CURVE('',#262,#261,#228,.T.);
#313=EDGE_CURVE('',#252,#262,#117,.T.);
#314=EDGE_CURVE('',#263,#259,#229,.T.);
#315=EDGE_CURVE('',#264,#263,#118,.T.);
#316=EDGE_CURVE('',#260,#264,#230,.T.);
#317=EDGE_CURVE('',#254,#265,#231,.T.);
#318=EDGE_CURVE('',#266,#253,#232,.T.);
#319=EDGE_CURVE('',#265,#266,#119,.T.);
#320=EDGE_CURVE('',#267,#268,#233,.T.);
#321=EDGE_CURVE('',#269,#267,#120,.T.);
#322=EDGE_CURVE('',#270,#269,#234,.T.);
#323=EDGE_CURVE('',#264,#270,#121,.T.);
#324=EDGE_CURVE('',#271,#263,#122,.T.);
#325=EDGE_CURVE('',#272,#271,#235,.T.);
#326=EDGE_CURVE('',#273,#272,#123,.T.);
#327=EDGE_CURVE('',#274,#273,#236,.T.);
#328=EDGE_CURVE('',#265,#274,#124,.T.);
#329=EDGE_CURVE('',#268,#266,#125,.T.);
#330=EDGE_CURVE('',#275,#268,#126,.T.);
#331=EDGE_CURVE('',#275,#276,#237,.T.);
#332=EDGE_CURVE('',#267,#276,#127,.T.);
#333=EDGE_CURVE('',#277,#252,#128,.T.);
#334=EDGE_CURVE('',#277,#278,#238,.T.);
#335=EDGE_CURVE('',#251,#278,#129,.T.);
#336=EDGE_CURVE('',#279,#276,#130,.T.);
#337=EDGE_CURVE('',#279,#269,#131,.T.);
#338=EDGE_CURVE('',#262,#280,#132,.T.);
#339=EDGE_CURVE('',#277,#280,#133,.T.);
#340=EDGE_CURVE('',#281,#261,#134,.T.);
#341=EDGE_CURVE('',#281,#280,#239,.T.);
#342=EDGE_CURVE('',#279,#282,#240,.T.);
#343=EDGE_CURVE('',#270,#282,#135,.T.);
#344=EDGE_CURVE('',#274,#283,#136,.T.);
#345=EDGE_CURVE('',#284,#283,#137,.T.);
#346=EDGE_CURVE('',#285,#284,#241,.T.);
#347=EDGE_CURVE('',#285,#286,#138,.T.);
#348=EDGE_CURVE('',#286,#255,#139,.T.);
#349=EDGE_CURVE('',#287,#273,#140,.T.);
#350=EDGE_CURVE('',#283,#287,#242,.T.);
#351=EDGE_CURVE('',#272,#288,#141,.T.);
#352=EDGE_CURVE('',#288,#287,#142,.T.);
#353=EDGE_CURVE('',#289,#271,#143,.T.);
#354=EDGE_CURVE('',#289,#288,#243,.T.);
#355=EDGE_CURVE('',#290,#291,#244,.T.);
#356=EDGE_CURVE('',#291,#285,#144,.T.);
#357=EDGE_CURVE('',#284,#290,#145,.T.);
#358=EDGE_CURVE('',#278,#291,#146,.T.);
#359=EDGE_CURVE('',#278,#286,#147,.T.);
#360=EDGE_CURVE('',#292,#293,#245,.T.);
#361=EDGE_CURVE('',#293,#294,#148,.T.);
#362=EDGE_CURVE('',#294,#295,#246,.T.);
#363=EDGE_CURVE('',#295,#292,#149,.T.);
#364=EDGE_CURVE('',#258,#296,#150,.T.);
#365=EDGE_CURVE('',#293,#296,#151,.T.);
#366=EDGE_CURVE('',#292,#289,#152,.T.);
#367=EDGE_CURVE('',#282,#295,#153,.T.);
#368=EDGE_CURVE('',#282,#289,#154,.T.);
#369=EDGE_CURVE('',#283,#275,#155,.T.);
#370=EDGE_CURVE('',#276,#287,#156,.T.);
#371=EDGE_CURVE('',#297,#277,#157,.T.);
#372=EDGE_CURVE('',#286,#297,#247,.T.);
#373=EDGE_CURVE('',#290,#275,#158,.T.);
#374=EDGE_CURVE('',#256,#297,#159,.T.);
#375=EDGE_CURVE('',#296,#281,#160,.T.);
#376=EDGE_CURVE('',#296,#298,#248,.T.);
#377=EDGE_CURVE('',#280,#298,#161,.T.);
#378=EDGE_CURVE('',#288,#279,#162,.T.);
#379=EDGE_CURVE('',#294,#281,#163,.T.);
#380=EDGE_CURVE('',#298,#257,#164,.T.);
#381=EDGE_CURVE('',#297,#298,#165,.T.);
#382=ORIENTED_EDGE('',*,*,#299,.F.);
#383=ORIENTED_EDGE('',*,*,#300,.T.);
#384=ORIENTED_EDGE('',*,*,#301,.F.);
#385=ORIENTED_EDGE('',*,*,#300,.F.);
#386=ORIENTED_EDGE('',*,*,#302,.F.);
#387=ORIENTED_EDGE('',*,*,#303,.F.);
#388=ORIENTED_EDGE('',*,*,#304,.F.);
#389=ORIENTED_EDGE('',*,*,#305,.F.);
#390=ORIENTED_EDGE('',*,*,#306,.F.);
#391=ORIENTED_EDGE('',*,*,#307,.F.);
#392=ORIENTED_EDGE('',*,*,#308,.F.);
#393=ORIENTED_EDGE('',*,*,#309,.F.);
#394=ORIENTED_EDGE('',*,*,#310,.F.);
#395=ORIENTED_EDGE('',*,*,#311,.F.);
#396=ORIENTED_EDGE('',*,*,#312,.F.);
#397=ORIENTED_EDGE('',*,*,#313,.F.);
#398=ORIENTED_EDGE('',*,*,#314,.F.);
#399=ORIENTED_EDGE('',*,*,#315,.F.);
#400=ORIENTED_EDGE('',*,*,#316,.F.);
#401=ORIENTED_EDGE('',*,*,#310,.T.);
#402=ORIENTED_EDGE('',*,*,#317,.F.);
#403=ORIENTED_EDGE('',*,*,#304,.T.);
#404=ORIENTED_EDGE('',*,*,#318,.F.);
#405=ORIENTED_EDGE('',*,*,#319,.F.);
#406=ORIENTED_EDGE('',*,*,#320,.F.);
#407=ORIENTED_EDGE('',*,*,#321,.F.);
#408=ORIENTED_EDGE('',*,*,#322,.F.);
#409=ORIENTED_EDGE('',*,*,#323,.F.);
#410=ORIENTED_EDGE('',*,*,#315,.T.);
#411=ORIENTED_EDGE('',*,*,#324,.F.);
#412=ORIENTED_EDGE('',*,*,#325,.F.);
#413=ORIENTED_EDGE('',*,*,#326,.F.);
#414=ORIENTED_EDGE('',*,*,#327,.F.);
#415=ORIENTED_EDGE('',*,*,#328,.F.);
#416=ORIENTED_EDGE('',*,*,#319,.T.);
#417=ORIENTED_EDGE('',*,*,#329,.F.);
#418=ORIENTED_EDGE('',*,*,#320,.T.);
#419=ORIENTED_EDGE('',*,*,#330,.F.);
#420=ORIENTED_EDGE('',*,*,#331,.T.);
#421=ORIENTED_EDGE('',*,*,#332,.F.);
#422=ORIENTED_EDGE('',*,*,#302,.T.);
#423=ORIENTED_EDGE('',*,*,#333,.F.);
#424=ORIENTED_EDGE('',*,*,#334,.T.);
#425=ORIENTED_EDGE('',*,*,#335,.F.);
#426=ORIENTED_EDGE('',*,*,#321,.T.);
#427=ORIENTED_EDGE('',*,*,#332,.T.);
#428=ORIENTED_EDGE('',*,*,#336,.F.);
#429=ORIENTED_EDGE('',*,*,#337,.T.);
#430=ORIENTED_EDGE('',*,*,#313,.T.);
#431=ORIENTED_EDGE('',*,*,#338,.T.);
#432=ORIENTED_EDGE('',*,*,#339,.F.);
#433=ORIENTED_EDGE('',*,*,#333,.T.);
#434=ORIENTED_EDGE('',*,*,#301,.T.);
#435=ORIENTED_EDGE('',*,*,#312,.T.);
#436=ORIENTED_EDGE('',*,*,#340,.F.);
#437=ORIENTED_EDGE('',*,*,#341,.T.);
#438=ORIENTED_EDGE('',*,*,#338,.F.);
#439=ORIENTED_EDGE('',*,*,#322,.T.);
#440=ORIENTED_EDGE('',*,*,#337,.F.);
#441=ORIENTED_EDGE('',*,*,#342,.T.);
#442=ORIENTED_EDGE('',*,*,#343,.F.);
#443=ORIENTED_EDGE('',*,*,#305,.T.);
#444=ORIENTED_EDGE('',*,*,#317,.T.);
#445=ORIENTED_EDGE('',*,*,#328,.T.);
#446=ORIENTED_EDGE('',*,*,#344,.T.);
#447=ORIENTED_EDGE('',*,*,#345,.F.);
#448=ORIENTED_EDGE('',*,*,#346,.F.);
#449=ORIENTED_EDGE('',*,*,#347,.T.);
#450=ORIENTED_EDGE('',*,*,#348,.T.);
#451=ORIENTED_EDGE('',*,*,#327,.T.);
#452=ORIENTED_EDGE('',*,*,#349,.F.);
#453=ORIENTED_EDGE('',*,*,#350,.F.);
#454=ORIENTED_EDGE('',*,*,#344,.F.);
#455=ORIENTED_EDGE('',*,*,#326,.T.);
#456=ORIENTED_EDGE('',*,*,#351,.T.);
#457=ORIENTED_EDGE('',*,*,#352,.T.);
#458=ORIENTED_EDGE('',*,*,#349,.T.);
#459=ORIENTED_EDGE('',*,*,#325,.T.);
#460=ORIENTED_EDGE('',*,*,#353,.F.);
#461=ORIENTED_EDGE('',*,*,#354,.T.);
#462=ORIENTED_EDGE('',*,*,#351,.F.);
#463=ORIENTED_EDGE('',*,*,#355,.T.);
#464=ORIENTED_EDGE('',*,*,#356,.T.);
#465=ORIENTED_EDGE('',*,*,#346,.T.);
#466=ORIENTED_EDGE('',*,*,#357,.T.);
#467=ORIENTED_EDGE('',*,*,#356,.F.);
#468=ORIENTED_EDGE('',*,*,#358,.F.);
#469=ORIENTED_EDGE('',*,*,#359,.T.);
#470=ORIENTED_EDGE('',*,*,#347,.F.);
#471=ORIENTED_EDGE('',*,*,#360,.T.);
#472=ORIENTED_EDGE('',*,*,#361,.T.);
#473=ORIENTED_EDGE('',*,*,#362,.T.);
#474=ORIENTED_EDGE('',*,*,#363,.T.);
#475=ORIENTED_EDGE('',*,*,#309,.T.);
#476=ORIENTED_EDGE('',*,*,#364,.T.);
#477=ORIENTED_EDGE('',*,*,#365,.F.);
#478=ORIENTED_EDGE('',*,*,#360,.F.);
#479=ORIENTED_EDGE('',*,*,#366,.T.);
#480=ORIENTED_EDGE('',*,*,#353,.T.);
#481=ORIENTED_EDGE('',*,*,#324,.T.);
#482=ORIENTED_EDGE('',*,*,#314,.T.);
#483=ORIENTED_EDGE('',*,*,#363,.F.);
#484=ORIENTED_EDGE('',*,*,#367,.F.);
#485=ORIENTED_EDGE('',*,*,#368,.T.);
#486=ORIENTED_EDGE('',*,*,#366,.F.);
#487=ORIENTED_EDGE('',*,*,#369,.F.);
#488=ORIENTED_EDGE('',*,*,#350,.T.);
#489=ORIENTED_EDGE('',*,*,#370,.F.);
#490=ORIENTED_EDGE('',*,*,#331,.F.);
#491=ORIENTED_EDGE('',*,*,#359,.F.);
#492=ORIENTED_EDGE('',*,*,#334,.F.);
#493=ORIENTED_EDGE('',*,*,#371,.F.);
#494=ORIENTED_EDGE('',*,*,#372,.F.);
#495=ORIENTED_EDGE('',*,*,#357,.F.);
#496=ORIENTED_EDGE('',*,*,#345,.T.);
#497=ORIENTED_EDGE('',*,*,#369,.T.);
#498=ORIENTED_EDGE('',*,*,#373,.F.);
#499=ORIENTED_EDGE('',*,*,#306,.T.);
#500=ORIENTED_EDGE('',*,*,#348,.F.);
#501=ORIENTED_EDGE('',*,*,#372,.T.);
#502=ORIENTED_EDGE('',*,*,#374,.F.);
#503=ORIENTED_EDGE('',*,*,#303,.T.);
#504=ORIENTED_EDGE('',*,*,#335,.T.);
#505=ORIENTED_EDGE('',*,*,#358,.T.);
#506=ORIENTED_EDGE('',*,*,#355,.F.);
#507=ORIENTED_EDGE('',*,*,#373,.T.);
#508=ORIENTED_EDGE('',*,*,#330,.T.);
#509=ORIENTED_EDGE('',*,*,#329,.T.);
#510=ORIENTED_EDGE('',*,*,#318,.T.);
#511=ORIENTED_EDGE('',*,*,#375,.F.);
#512=ORIENTED_EDGE('',*,*,#376,.T.);
#513=ORIENTED_EDGE('',*,*,#377,.F.);
#514=ORIENTED_EDGE('',*,*,#341,.F.);
#515=ORIENTED_EDGE('',*,*,#368,.F.);
#516=ORIENTED_EDGE('',*,*,#342,.F.);
#517=ORIENTED_EDGE('',*,*,#378,.F.);
#518=ORIENTED_EDGE('',*,*,#354,.F.);
#519=ORIENTED_EDGE('',*,*,#361,.F.);
#520=ORIENTED_EDGE('',*,*,#365,.T.);
#521=ORIENTED_EDGE('',*,*,#375,.T.);
#522=ORIENTED_EDGE('',*,*,#379,.F.);
#523=ORIENTED_EDGE('',*,*,#308,.T.);
#524=ORIENTED_EDGE('',*,*,#380,.F.);
#525=ORIENTED_EDGE('',*,*,#376,.F.);
#526=ORIENTED_EDGE('',*,*,#364,.F.);
#527=ORIENTED_EDGE('',*,*,#323,.T.);
#528=ORIENTED_EDGE('',*,*,#343,.T.);
#529=ORIENTED_EDGE('',*,*,#367,.T.);
#530=ORIENTED_EDGE('',*,*,#362,.F.);
#531=ORIENTED_EDGE('',*,*,#379,.T.);
#532=ORIENTED_EDGE('',*,*,#340,.T.);
#533=ORIENTED_EDGE('',*,*,#311,.T.);
#534=ORIENTED_EDGE('',*,*,#316,.T.);
#535=ORIENTED_EDGE('',*,*,#371,.T.);
#536=ORIENTED_EDGE('',*,*,#339,.T.);
#537=ORIENTED_EDGE('',*,*,#377,.T.);
#538=ORIENTED_EDGE('',*,*,#381,.F.);
#539=ORIENTED_EDGE('',*,*,#370,.T.);
#540=ORIENTED_EDGE('',*,*,#352,.F.);
#541=ORIENTED_EDGE('',*,*,#378,.T.);
#542=ORIENTED_EDGE('',*,*,#336,.T.);
#543=ORIENTED_EDGE('',*,*,#307,.T.);
#544=ORIENTED_EDGE('',*,*,#374,.T.);
#545=ORIENTED_EDGE('',*,*,#381,.T.);
#546=ORIENTED_EDGE('',*,*,#380,.T.);
#547=ORIENTED_EDGE('',*,*,#299,.T.);
#548=CYLINDRICAL_SURFACE('',#609,1.5);
#549=CYLINDRICAL_SURFACE('',#617,7.50000000000007);
#550=CYLINDRICAL_SURFACE('',#620,7.50000000000007);
#551=CYLINDRICAL_SURFACE('',#628,3.76);
#552=CYLINDRICAL_SURFACE('',#630,3.76);
#553=CYLINDRICAL_SURFACE('',#634,3.76);
#554=CYLINDRICAL_SURFACE('',#636,3.76);
#555=CYLINDRICAL_SURFACE('',#640,1.88);
#556=CYLINDRICAL_SURFACE('',#643,1.88);
#557=CYLINDRICAL_SURFACE('',#645,62.5000000000001);
#558=CYLINDRICAL_SURFACE('',#648,62.5000000000001);
#559=CYLINDRICAL_SURFACE('',#657,1.88);
#560=CYLINDRICAL_SURFACE('',#663,1.88);
#561=ADVANCED_FACE('',(#41),#548,.F.);
#562=ADVANCED_FACE('',(#42),#21,.F.);
#563=ADVANCED_FACE('',(#43),#549,.F.);
#564=ADVANCED_FACE('',(#44),#550,.F.);
#565=ADVANCED_FACE('',(#45),#22,.F.);
#566=ADVANCED_FACE('',(#46),#551,.T.);
#567=ADVANCED_FACE('',(#47),#552,.T.);
#568=ADVANCED_FACE('',(#48),#23,.F.);
#569=ADVANCED_FACE('',(#49,#19),#24,.F.);
#570=ADVANCED_FACE('',(#50),#553,.T.);
#571=ADVANCED_FACE('',(#51),#554,.T.);
#572=ADVANCED_FACE('',(#52),#25,.F.);
#573=ADVANCED_FACE('',(#53),#555,.F.);
#574=ADVANCED_FACE('',(#54),#26,.T.);
#575=ADVANCED_FACE('',(#55),#556,.F.);
#576=ADVANCED_FACE('',(#56),#557,.T.);
#577=ADVANCED_FACE('',(#57),#27,.T.);
#578=ADVANCED_FACE('',(#58),#558,.T.);
#579=ADVANCED_FACE('',(#59),#28,.F.);
#580=ADVANCED_FACE('',(#60),#29,.T.);
#581=ADVANCED_FACE('',(#61),#30,.T.);
#582=ADVANCED_FACE('',(#62),#31,.T.);
#583=ADVANCED_FACE('',(#63),#32,.T.);
#584=ADVANCED_FACE('',(#64),#559,.F.);
#585=ADVANCED_FACE('',(#65),#33,.T.);
#586=ADVANCED_FACE('',(#66),#34,.T.);
#587=ADVANCED_FACE('',(#67),#35,.T.);
#588=ADVANCED_FACE('',(#68),#36,.T.);
#589=ADVANCED_FACE('',(#69),#560,.F.);
#590=ADVANCED_FACE('',(#70),#37,.T.);
#591=ADVANCED_FACE('',(#71),#38,.T.);
#592=ADVANCED_FACE('',(#72),#39,.T.);
#593=ADVANCED_FACE('',(#73,#20),#40,.T.);
#594=CLOSED_SHELL('',(#561,#562,#563,#564,#565,#566,#567,#568,#569,#570,
#571,#572,#573,#574,#575,#576,#577,#578,#579,#580,#581,#582,#583,#584,#585,
#586,#587,#588,#589,#590,#591,#592,#593));
#595=DERIVED_UNIT_ELEMENT(#597,1.);
#596=DERIVED_UNIT_ELEMENT(#1026,-3.);
#597=(
MASS_UNIT()
NAMED_UNIT(*)
SI_UNIT(.KILO.,.GRAM.)
);
#598=DERIVED_UNIT((#595,#596));
#599=MEASURE_REPRESENTATION_ITEM('density measure',
POSITIVE_RATIO_MEASURE(7850.),#598);
#600=PROPERTY_DEFINITION_REPRESENTATION(#605,#602);
#601=PROPERTY_DEFINITION_REPRESENTATION(#606,#603);
#602=REPRESENTATION('material name',(#604),#1023);
#603=REPRESENTATION('density',(#599),#1023);
#604=DESCRIPTIVE_REPRESENTATION_ITEM('Steel','Steel');
#605=PROPERTY_DEFINITION('material property','material name',#1038);
#606=PROPERTY_DEFINITION('material property','density of part',#1038);
#607=AXIS2_PLACEMENT_3D('',#850,#669,#670);
#608=AXIS2_PLACEMENT_3D('',#851,#671,#672);
#609=AXIS2_PLACEMENT_3D('',#852,#673,#674);
#610=AXIS2_PLACEMENT_3D('',#854,#675,#676);
#611=AXIS2_PLACEMENT_3D('',#857,#678,#679);
#612=AXIS2_PLACEMENT_3D('',#858,#680,#681);
#613=AXIS2_PLACEMENT_3D('',#861,#682,#683);
#614=AXIS2_PLACEMENT_3D('',#869,#687,#688);
#615=AXIS2_PLACEMENT_3D('',#873,#690,#691);
#616=AXIS2_PLACEMENT_3D('',#881,#695,#696);
#617=AXIS2_PLACEMENT_3D('',#883,#698,#699);
#618=AXIS2_PLACEMENT_3D('',#885,#700,#701);
#619=AXIS2_PLACEMENT_3D('',#888,#703,#704);
#620=AXIS2_PLACEMENT_3D('',#889,#705,#706);
#621=AXIS2_PLACEMENT_3D('',#891,#707,#708);
#622=AXIS2_PLACEMENT_3D('',#893,#709,#710);
#623=AXIS2_PLACEMENT_3D('',#895,#712,#713);
#624=AXIS2_PLACEMENT_3D('',#898,#714,#715);
#625=AXIS2_PLACEMENT_3D('',#902,#717,#718);
#626=AXIS2_PLACEMENT_3D('',#907,#721,#722);
#627=AXIS2_PLACEMENT_3D('',#911,#724,#725);
#628=AXIS2_PLACEMENT_3D('',#914,#728,#729);
#629=AXIS2_PLACEMENT_3D('',#918,#731,#732);
#630=AXIS2_PLACEMENT_3D('',#920,#734,#735);
#631=AXIS2_PLACEMENT_3D('',#924,#737,#738);
#632=AXIS2_PLACEMENT_3D('',#926,#740,#741);
#633=AXIS2_PLACEMENT_3D('',#930,#744,#745);
#634=AXIS2_PLACEMENT_3D('',#934,#748,#749);
#635=AXIS2_PLACEMENT_3D('',#937,#751,#752);
#636=AXIS2_PLACEMENT_3D('',#938,#753,#754);
#637=AXIS2_PLACEMENT_3D('',#940,#755,#756);
#638=AXIS2_PLACEMENT_3D('',#942,#758,#759);
#639=AXIS2_PLACEMENT_3D('',#948,#762,#763);
#640=AXIS2_PLACEMENT_3D('',#952,#766,#767);
#641=AXIS2_PLACEMENT_3D('',#955,#769,#770);
#642=AXIS2_PLACEMENT_3D('',#956,#771,#772);
#643=AXIS2_PLACEMENT_3D('',#960,#775,#776);
#644=AXIS2_PLACEMENT_3D('',#963,#778,#779);
#645=AXIS2_PLACEMENT_3D('',#964,#780,#781);
#646=AXIS2_PLACEMENT_3D('',#967,#782,#783);
#647=AXIS2_PLACEMENT_3D('',#970,#786,#787);
#648=AXIS2_PLACEMENT_3D('',#973,#790,#791);
#649=AXIS2_PLACEMENT_3D('',#976,#792,#793);
#650=AXIS2_PLACEMENT_3D('',#980,#795,#796);
#651=AXIS2_PLACEMENT_3D('',#982,#798,#799);
#652=AXIS2_PLACEMENT_3D('',#987,#803,#804);
#653=AXIS2_PLACEMENT_3D('',#990,#807,#808);
#654=AXIS2_PLACEMENT_3D('',#993,#811,#812);
#655=AXIS2_PLACEMENT_3D('',#996,#814,#815);
#656=AXIS2_PLACEMENT_3D('',#997,#816,#817);
#657=AXIS2_PLACEMENT_3D('',#999,#819,#820);
#658=AXIS2_PLACEMENT_3D('',#1001,#822,#823);
#659=AXIS2_PLACEMENT_3D('',#1002,#824,#825);
#660=AXIS2_PLACEMENT_3D('',#1005,#827,#828);
#661=AXIS2_PLACEMENT_3D('',#1007,#830,#831);
#662=AXIS2_PLACEMENT_3D('',#1009,#833,#834);
#663=AXIS2_PLACEMENT_3D('',#1011,#836,#837);
#664=AXIS2_PLACEMENT_3D('',#1013,#839,#840);
#665=AXIS2_PLACEMENT_3D('',#1014,#841,#842);
#666=AXIS2_PLACEMENT_3D('',#1016,#844,#845);
#667=AXIS2_PLACEMENT_3D('',#1017,#846,#847);
#668=AXIS2_PLACEMENT_3D('',#1018,#848,#849);
#669=DIRECTION('axis',(0.,0.,1.));
#670=DIRECTION('refdir',(1.,0.,0.));
#671=DIRECTION('axis',(0.,0.,1.));
#672=DIRECTION('refdir',(1.,0.,0.));
#673=DIRECTION('center_axis',(0.,0.,-1.));
#674=DIRECTION('ref_axis',(-1.,0.,0.));
#675=DIRECTION('center_axis',(0.,0.,-1.));
#676=DIRECTION('ref_axis',(-1.,0.,0.));
#677=DIRECTION('',(0.,0.,-1.));
#678=DIRECTION('center_axis',(0.,0.,1.));
#679=DIRECTION('ref_axis',(-1.,0.,0.));
#680=DIRECTION('center_axis',(-1.,0.,-9.05735759028996E-16));
#681=DIRECTION('ref_axis',(-9.05735759028996E-16,0.,1.));
#682=DIRECTION('center_axis',(-1.,0.,-9.05735759028996E-16));
#683=DIRECTION('ref_axis',(0.,0.,-1.));
#684=DIRECTION('',(9.05735759028996E-16,-6.12323399573677E-17,-1.));
#685=DIRECTION('',(0.,1.,0.));
#686=DIRECTION('',(-9.05735759028996E-16,3.06161699786838E-17,1.));
#687=DIRECTION('center_axis',(1.,0.,9.05735759028996E-16));
#688=DIRECTION('ref_axis',(0.,0.,-1.));
#689=DIRECTION('',(0.,1.,0.));
#690=DIRECTION('center_axis',(1.,0.,9.05735759028996E-16));
#691=DIRECTION('ref_axis',(0.,0.,-1.));
#692=DIRECTION('',(9.05735759028996E-16,3.06161699786838E-17,-1.));
#693=DIRECTION('',(0.,1.,0.));
#694=DIRECTION('',(-9.05735759028996E-16,-6.12323399573677E-17,1.));
#695=DIRECTION('center_axis',(-1.,0.,-9.05735759028996E-16));
#696=DIRECTION('ref_axis',(0.,0.,-1.));
#697=DIRECTION('',(0.,-1.,0.));
#698=DIRECTION('center_axis',(0.,1.,0.));
#699=DIRECTION('ref_axis',(1.,0.,-1.18423789293349E-15));
#700=DIRECTION('center_axis',(0.,-1.,-3.06161699786838E-17));
#701=DIRECTION('ref_axis',(1.,0.,-1.18423789293349E-15));
#702=DIRECTION('',(0.,1.,0.));
#703=DIRECTION('center_axis',(0.,1.,6.12323399573677E-17));
#704=DIRECTION('ref_axis',(1.,0.,-1.18423789293349E-15));
#705=DIRECTION('center_axis',(0.,1.,0.));
#706=DIRECTION('ref_axis',(1.,0.,-1.18423789293349E-15));
#707=DIRECTION('center_axis',(0.,1.,-3.06161699786838E-17));
#708=DIRECTION('ref_axis',(1.,0.,-1.18423789293349E-15));
#709=DIRECTION('center_axis',(0.,-1.,6.12323399573677E-17));
#710=DIRECTION('ref_axis',(1.,0.,-1.18423789293349E-15));
#711=DIRECTION('',(0.,1.,0.));
#712=DIRECTION('center_axis',(1.,0.,0.));
#713=DIRECTION('ref_axis',(0.,0.,-1.));
#714=DIRECTION('center_axis',(1.,0.,0.));
#715=DIRECTION('ref_axis',(0.,0.,-1.));
#716=DIRECTION('',(0.,1.,0.));
#717=DIRECTION('center_axis',(1.,0.,0.));
#718=DIRECTION('ref_axis',(0.,0.,-1.));
#719=DIRECTION('',(0.,6.12323399573677E-17,-1.));
#720=DIRECTION('',(0.,-3.06161699786838E-17,1.));
#721=DIRECTION('center_axis',(-1.,0.,0.));
#722=DIRECTION('ref_axis',(0.,0.,-1.));
#723=DIRECTION('',(0.,-1.,0.));
#724=DIRECTION('center_axis',(-1.,0.,0.));
#725=DIRECTION('ref_axis',(0.,0.,-1.));
#726=DIRECTION('',(0.,-3.06161699786838E-17,-1.));
#727=DIRECTION('',(0.,6.12323399573677E-17,1.));
#728=DIRECTION('center_axis',(1.,0.,0.));
#729=DIRECTION('ref_axis',(0.,0.,-1.));
#730=DIRECTION('',(-1.,0.,0.));
#731=DIRECTION('center_axis',(-1.,0.,0.));
#732=DIRECTION('ref_axis',(0.,1.,0.));
#733=DIRECTION('',(1.,0.,0.));
#734=DIRECTION('center_axis',(1.,0.,0.));
#735=DIRECTION('ref_axis',(0.,0.,-1.));
#736=DIRECTION('',(1.,0.,0.));
#737=DIRECTION('center_axis',(1.,0.,0.));
#738=DIRECTION('ref_axis',(0.,0.,-1.));
#739=DIRECTION('',(-1.,0.,0.));
#740=DIRECTION('center_axis',(0.,0.,1.));
#741=DIRECTION('ref_axis',(1.,0.,0.));
#742=DIRECTION('',(0.,1.,0.));
#743=DIRECTION('',(-1.,0.,0.));
#744=DIRECTION('center_axis',(0.,0.,1.));
#745=DIRECTION('ref_axis',(1.,0.,0.));
#746=DIRECTION('',(-1.,0.,0.));
#747=DIRECTION('',(0.,-1.,0.));
#748=DIRECTION('center_axis',(-1.,0.,0.));
#749=DIRECTION('ref_axis',(0.,0.,-1.));
#750=DIRECTION('',(1.,0.,0.));
#751=DIRECTION('center_axis',(1.,0.,0.));
#752=DIRECTION('ref_axis',(0.,-1.,0.));
#753=DIRECTION('center_axis',(-1.,0.,0.));
#754=DIRECTION('ref_axis',(0.,0.,-1.));
#755=DIRECTION('center_axis',(-1.,0.,0.));
#756=DIRECTION('ref_axis',(0.,0.,-1.));
#757=DIRECTION('',(1.,0.,0.));
#758=DIRECTION('center_axis',(0.,1.,-3.06161699786838E-17));
#759=DIRECTION('ref_axis',(-1.,0.,0.));
#760=DIRECTION('',(1.,0.,0.));
#761=DIRECTION('',(0.,0.,-1.));
#762=DIRECTION('center_axis',(0.,1.,-3.06161699786838E-17));
#763=DIRECTION('ref_axis',(1.,0.,0.));
#764=DIRECTION('',(0.,0.,-1.));
#765=DIRECTION('',(1.,0.,0.));
#766=DIRECTION('center_axis',(1.,0.,0.));
#767=DIRECTION('ref_axis',(0.,0.,-1.));
#768=DIRECTION('',(-1.,0.,0.));
#769=DIRECTION('center_axis',(-1.,0.,0.));
#770=DIRECTION('ref_axis',(0.,1.,0.));
#771=DIRECTION('center_axis',(0.,0.,1.));
#772=DIRECTION('ref_axis',(1.,0.,0.));
#773=DIRECTION('',(1.,0.,0.));
#774=DIRECTION('',(0.,1.,0.));
#775=DIRECTION('center_axis',(-1.,0.,0.));
#776=DIRECTION('ref_axis',(0.,0.,-1.));
#777=DIRECTION('',(-1.,0.,0.));
#778=DIRECTION('center_axis',(1.,0.,0.));
#779=DIRECTION('ref_axis',(0.,-1.,0.));
#780=DIRECTION('center_axis',(0.,-1.,6.12323399573677E-17));
#781=DIRECTION('ref_axis',(1.,0.,0.));
#782=DIRECTION('center_axis',(0.,-1.,6.12323399573677E-17));
#783=DIRECTION('ref_axis',(1.,0.,0.));
#784=DIRECTION('',(0.,-1.,6.12323399573677E-17));
#785=DIRECTION('',(0.,1.,-6.12323399573677E-17));
#786=DIRECTION('center_axis',(-1.,0.,0.));
#787=DIRECTION('ref_axis',(0.,0.,1.));
#788=DIRECTION('',(0.,0.,1.));
#789=DIRECTION('',(0.,-1.,6.12323399573677E-17));
#790=DIRECTION('center_axis',(0.,-1.,-6.12323399573677E-17));
#791=DIRECTION('ref_axis',(1.,0.,0.));
#792=DIRECTION('center_axis',(0.,-1.,-3.06161699786838E-17));
#793=DIRECTION('ref_axis',(1.,0.,0.));
#794=DIRECTION('',(0.,-1.,-6.12323399573677E-17));
#795=DIRECTION('center_axis',(0.,1.,6.12323399573677E-17));
#796=DIRECTION('ref_axis',(1.,0.,0.));
#797=DIRECTION('',(0.,1.,6.12323399573677E-17));
#798=DIRECTION('center_axis',(0.,-1.,-3.06161699786838E-17));
#799=DIRECTION('ref_axis',(-1.,0.,0.));
#800=DIRECTION('',(-1.,0.,0.));
#801=DIRECTION('',(0.,0.,-1.));
#802=DIRECTION('',(0.,0.,-1.));
#803=DIRECTION('center_axis',(1.,0.,0.));
#804=DIRECTION('ref_axis',(0.,0.,1.));
#805=DIRECTION('',(0.,0.,1.));
#806=DIRECTION('',(0.,1.,6.12323399573677E-17));
#807=DIRECTION('center_axis',(1.,0.,0.));
#808=DIRECTION('ref_axis',(0.,0.,-1.));
#809=DIRECTION('',(0.,1.,-6.12323399573677E-17));
#810=DIRECTION('',(0.,0.,1.));
#811=DIRECTION('center_axis',(-1.,0.,0.));
#812=DIRECTION('ref_axis',(0.,0.,1.));
#813=DIRECTION('',(0.,0.,-1.));
#814=DIRECTION('center_axis',(-1.,0.,0.));
#815=DIRECTION('ref_axis',(0.,1.,0.));
#816=DIRECTION('center_axis',(1.,0.,0.));
#817=DIRECTION('ref_axis',(0.,-6.12323399573677E-17,-1.));
#818=DIRECTION('',(0.,-6.12323399573677E-17,-1.));
#819=DIRECTION('center_axis',(1.,0.,0.));
#820=DIRECTION('ref_axis',(0.,0.,-1.));
#821=DIRECTION('',(-1.,0.,0.));
#822=DIRECTION('center_axis',(0.,1.,-6.12323399573677E-17));
#823=DIRECTION('ref_axis',(-1.,0.,0.));
#824=DIRECTION('center_axis',(-1.,0.,0.));
#825=DIRECTION('ref_axis',(0.,0.,1.));
#826=DIRECTION('',(0.,-1.,-6.12323399573677E-17));
#827=DIRECTION('center_axis',(1.,0.,0.));
#828=DIRECTION('ref_axis',(0.,-1.,0.));
#829=DIRECTION('',(0.,0.,1.));
#830=DIRECTION('center_axis',(1.,0.,0.));
#831=DIRECTION('ref_axis',(0.,0.,-1.));
#832=DIRECTION('',(0.,0.,-1.));
#833=DIRECTION('center_axis',(-1.,0.,0.));
#834=DIRECTION('ref_axis',(0.,6.12323399573677E-17,-1.));
#835=DIRECTION('',(0.,6.12323399573677E-17,-1.));
#836=DIRECTION('center_axis',(-1.,0.,0.));
#837=DIRECTION('ref_axis',(0.,0.,-1.));
#838=DIRECTION('',(1.,0.,0.));
#839=DIRECTION('center_axis',(0.,-1.,-6.12323399573677E-17));
#840=DIRECTION('ref_axis',(-1.,0.,0.));
#841=DIRECTION('center_axis',(-1.,0.,0.));
#842=DIRECTION('ref_axis',(0.,-1.,0.));
#843=DIRECTION('',(0.,-1.,0.));
#844=DIRECTION('center_axis',(1.,0.,0.));
#845=DIRECTION('ref_axis',(0.,1.,0.));
#846=DIRECTION('center_axis',(0.,0.,1.));
#847=DIRECTION('ref_axis',(1.,0.,0.));
#848=DIRECTION('',(0.,0.,1.));
#849=DIRECTION('',(1.,0.,0.));
#850=CARTESIAN_POINT('',(0.,0.,0.));
#851=CARTESIAN_POINT('',(0.,0.,0.));
#852=CARTESIAN_POINT('Origin',(-25.,0.,1.88));
#853=CARTESIAN_POINT('',(-23.5,1.83697019872103E-16,1.88));
#854=CARTESIAN_POINT('Origin',(-25.,0.,1.88));
#855=CARTESIAN_POINT('',(-23.5,1.83697019872103E-16,0.));
#856=CARTESIAN_POINT('',(-23.5,-1.83697019872103E-16,1.88));
#857=CARTESIAN_POINT('Origin',(-25.,0.,0.));
#858=CARTESIAN_POINT('Origin',(-7.50000000000001,-30.,0.));
#859=CARTESIAN_POINT('',(-7.50000000000001,30.,3.76));
#860=CARTESIAN_POINT('',(-7.5,26.24,5.55111512312578E-16));
#861=CARTESIAN_POINT('Origin',(-7.50000000000001,26.24,3.76));
#862=CARTESIAN_POINT('',(-7.50000000000007,30.,67.5));
#863=CARTESIAN_POINT('',(-7.50000000000004,30.,32.4211815024408));
#864=CARTESIAN_POINT('',(-7.50000000000007,28.12,67.5));
#865=CARTESIAN_POINT('',(-7.50000000000007,-30.,67.5));
#866=CARTESIAN_POINT('',(-7.50000000000001,28.12,3.76));
#867=CARTESIAN_POINT('',(-7.50000000000004,28.12,32.4211815024408));
#868=CARTESIAN_POINT('',(-7.5,26.24,1.88));
#869=CARTESIAN_POINT('Origin',(-7.50000000000001,26.24,3.76));
#870=CARTESIAN_POINT('',(-7.5,-26.24,1.88));
#871=CARTESIAN_POINT('',(-7.50000000000001,-15.,1.88));
#872=CARTESIAN_POINT('',(-7.50000000000001,-28.12,3.76));
#873=CARTESIAN_POINT('Origin',(-7.50000000000001,-26.24,3.76));
#874=CARTESIAN_POINT('',(-7.50000000000007,-28.12,67.5));
#875=CARTESIAN_POINT('',(-7.50000000000004,-28.12,32.4211815024408));
#876=CARTESIAN_POINT('',(-7.50000000000007,-30.,67.5));
#877=CARTESIAN_POINT('',(-7.50000000000007,-30.,67.5));
#878=CARTESIAN_POINT('',(-7.50000000000001,-30.,3.76));
#879=CARTESIAN_POINT('',(-7.50000000000004,-30.,32.4211815024408));
#880=CARTESIAN_POINT('',(-7.5,-26.24,5.55111512312578E-16));
#881=CARTESIAN_POINT('Origin',(-7.50000000000001,-26.24,3.76));
#882=CARTESIAN_POINT('',(-7.50000000000001,-15.,0.));
#883=CARTESIAN_POINT('Origin',(4.44089209850063E-15,-30.,67.5));
#884=CARTESIAN_POINT('',(7.50000000000007,-28.12,67.5));
#885=CARTESIAN_POINT('Origin',(4.44089209850063E-15,-28.12,67.5));
#886=CARTESIAN_POINT('',(7.50000000000007,-30.,67.5));
#887=CARTESIAN_POINT('',(7.50000000000007,-30.,67.5));
#888=CARTESIAN_POINT('Origin',(4.44089209850063E-15,-30.,67.5));
#889=CARTESIAN_POINT('Origin',(4.44089209850063E-15,-30.,67.5));
#890=CARTESIAN_POINT('',(7.50000000000007,28.12,67.5));
#891=CARTESIAN_POINT('Origin',(4.44089209850063E-15,28.12,67.5));
#892=CARTESIAN_POINT('',(7.50000000000007,30.,67.5));
#893=CARTESIAN_POINT('Origin',(4.44089209850063E-15,30.,67.5));
#894=CARTESIAN_POINT('',(7.50000000000007,-30.,67.5));
#895=CARTESIAN_POINT('Origin',(7.50000000000006,-30.,67.5));
#896=CARTESIAN_POINT('',(7.50000000000006,26.24,-5.55111512312578E-16));
#897=CARTESIAN_POINT('',(7.50000000000006,30.,3.76));
#898=CARTESIAN_POINT('Origin',(7.50000000000006,26.24,3.76));
#899=CARTESIAN_POINT('',(7.50000000000006,-26.24,-5.55111512312578E-16));
#900=CARTESIAN_POINT('',(7.50000000000006,-15.,0.));
#901=CARTESIAN_POINT('',(7.50000000000006,-30.,3.76));
#902=CARTESIAN_POINT('Origin',(7.50000000000006,-26.24,3.76));
#903=CARTESIAN_POINT('',(7.50000000000006,-30.,66.1711815024408));
#904=CARTESIAN_POINT('',(7.50000000000006,-28.12,3.76));
#905=CARTESIAN_POINT('',(7.50000000000006,-28.12,66.1711815024408));
#906=CARTESIAN_POINT('',(7.50000000000006,-26.24,1.88));
#907=CARTESIAN_POINT('Origin',(7.50000000000006,-26.24,3.76));
#908=CARTESIAN_POINT('',(7.50000000000006,26.24,1.88));
#909=CARTESIAN_POINT('',(7.50000000000006,-15.,1.88));
#910=CARTESIAN_POINT('',(7.50000000000006,28.12,3.76));
#911=CARTESIAN_POINT('Origin',(7.50000000000006,26.24,3.76));
#912=CARTESIAN_POINT('',(7.50000000000006,28.12,66.1711815024408));
#913=CARTESIAN_POINT('',(7.50000000000006,30.,66.1711815024408));
#914=CARTESIAN_POINT('Origin',(-3.5527136788005E-14,26.24,3.76));
#915=CARTESIAN_POINT('',(62.5,30.,3.76));
#916=CARTESIAN_POINT('',(-2.22044604925031E-14,30.,3.76));
#917=CARTESIAN_POINT('',(62.5,26.24,0.));
#918=CARTESIAN_POINT('Origin',(62.5,26.24,3.76));
#919=CARTESIAN_POINT('',(31.25,26.24,0.));
#920=CARTESIAN_POINT('Origin',(-3.5527136788005E-14,26.24,3.76));
#921=CARTESIAN_POINT('',(-62.5,26.24,0.));
#922=CARTESIAN_POINT('',(31.25,26.24,0.));
#923=CARTESIAN_POINT('',(-62.5000000000001,30.,3.76));
#924=CARTESIAN_POINT('Origin',(-62.5000000000001,26.24,3.76));
#925=CARTESIAN_POINT('',(-2.22044604925031E-14,30.,3.76));
#926=CARTESIAN_POINT('Origin',(0.,0.,0.));
#927=CARTESIAN_POINT('',(62.5,-26.24,0.));
#928=CARTESIAN_POINT('',(62.5,-30.,0.));
#929=CARTESIAN_POINT('',(-31.25,-26.24,0.));
#930=CARTESIAN_POINT('Origin',(0.,0.,0.));
#931=CARTESIAN_POINT('',(-62.5,-26.24,0.));
#932=CARTESIAN_POINT('',(-31.25,-26.24,0.));
#933=CARTESIAN_POINT('',(-62.5,30.,0.));
#934=CARTESIAN_POINT('Origin',(3.5527136788005E-14,-26.24,3.76));
#935=CARTESIAN_POINT('',(-62.5,-30.,3.76));
#936=CARTESIAN_POINT('',(2.22044604925031E-14,-30.,3.76));
#937=CARTESIAN_POINT('Origin',(-62.5,-26.24,3.76));
#938=CARTESIAN_POINT('Origin',(3.5527136788005E-14,-26.24,3.76));
#939=CARTESIAN_POINT('',(62.5000000000001,-30.,3.76));
#940=CARTESIAN_POINT('Origin',(62.5000000000001,-26.24,3.76));
#941=CARTESIAN_POINT('',(2.22044604925031E-14,-30.,3.76));
#942=CARTESIAN_POINT('Origin',(-8.34900385694048E-15,28.12,64.8423630048816));
#943=CARTESIAN_POINT('',(62.5,28.12,3.76));
#944=CARTESIAN_POINT('',(-2.19380703224727E-14,28.12,3.76));
#945=CARTESIAN_POINT('',(62.5,28.12,67.5));
#946=CARTESIAN_POINT('',(62.5,28.12,-4.39054798047337));
#947=CARTESIAN_POINT('',(-62.5000000000001,28.12,67.5));
#948=CARTESIAN_POINT('Origin',(-5.32907051820075E-14,28.12,67.5));
#949=CARTESIAN_POINT('',(-62.5000000000001,28.12,3.76));
#950=CARTESIAN_POINT('',(-62.5000000000001,28.12,-4.39054798047337));
#951=CARTESIAN_POINT('',(-2.19380703224727E-14,28.12,3.76));
#952=CARTESIAN_POINT('Origin',(-3.5527136788005E-14,26.24,3.76));
#953=CARTESIAN_POINT('',(62.5,26.24,1.88));
#954=CARTESIAN_POINT('',(31.25,26.24,1.88));
#955=CARTESIAN_POINT('Origin',(62.5,26.24,3.76));
#956=CARTESIAN_POINT('Origin',(0.,0.,1.88));
#957=CARTESIAN_POINT('',(62.5,-26.24,1.88));
#958=CARTESIAN_POINT('',(-31.25,-26.24,1.88));
#959=CARTESIAN_POINT('',(62.5,-30.,1.88));
#960=CARTESIAN_POINT('Origin',(3.5527136788005E-14,-26.24,3.76));
#961=CARTESIAN_POINT('',(62.5000000000001,-28.12,3.76));
#962=CARTESIAN_POINT('',(2.19380703224727E-14,-28.12,3.76));
#963=CARTESIAN_POINT('Origin',(62.5000000000001,-26.24,3.76));
#964=CARTESIAN_POINT('Origin',(-5.32907051820075E-14,28.12,67.5));
#965=CARTESIAN_POINT('',(62.5,30.,67.5));
#966=CARTESIAN_POINT('',(-62.5000000000001,30.,67.5));
#967=CARTESIAN_POINT('Origin',(-5.32907051820075E-14,30.,67.5));
#968=CARTESIAN_POINT('',(-62.5000000000001,28.12,67.5));
#969=CARTESIAN_POINT('',(62.5,28.12,67.5));
#970=CARTESIAN_POINT('Origin',(-62.5000000000001,28.12,-0.315273990236684));
#971=CARTESIAN_POINT('',(-62.5000000000001,30.,-4.39054798047337));
#972=CARTESIAN_POINT('',(-62.5000000000001,28.4772,3.76));
#973=CARTESIAN_POINT('Origin',(8.88178419700125E-15,-28.12,67.5));
#974=CARTESIAN_POINT('',(62.5000000000001,-28.12,67.5));
#975=CARTESIAN_POINT('',(-62.5,-28.12,67.5));
#976=CARTESIAN_POINT('Origin',(8.88178419700125E-15,-28.12,67.5));
#977=CARTESIAN_POINT('',(-62.5,-30.,67.5));
#978=CARTESIAN_POINT('',(-62.5,-28.12,67.5));
#979=CARTESIAN_POINT('',(62.5000000000001,-30.,67.5));
#980=CARTESIAN_POINT('Origin',(8.88178419700125E-15,-30.,67.5));
#981=CARTESIAN_POINT('',(62.5000000000001,-28.12,67.5));
#982=CARTESIAN_POINT('Origin',(8.34900385694048E-15,-28.12,64.8423630048816));
#983=CARTESIAN_POINT('',(-62.5,-28.12,3.76));
#984=CARTESIAN_POINT('',(2.19380703224727E-14,-28.12,3.76));
#985=CARTESIAN_POINT('',(-62.5,-28.12,-4.39054798047337));
#986=CARTESIAN_POINT('',(62.5000000000001,-28.12,-4.39054798047337));
#987=CARTESIAN_POINT('Origin',(62.5000000000001,-28.12,-0.315273990236684));
#988=CARTESIAN_POINT('',(62.5000000000001,-30.,-4.39054798047337));
#989=CARTESIAN_POINT('',(62.5000000000001,-28.4772,3.76));
#990=CARTESIAN_POINT('Origin',(62.5,28.12,3.76));
#991=CARTESIAN_POINT('',(62.5,28.4772,3.75999999999999));
#992=CARTESIAN_POINT('',(62.5,26.24,0.94));
#993=CARTESIAN_POINT('Origin',(-62.5000000000001,30.,3.76));
#994=CARTESIAN_POINT('',(-62.5,26.24,1.88));
#995=CARTESIAN_POINT('',(-62.5,26.24,0.94));
#996=CARTESIAN_POINT('Origin',(-62.5000000000001,26.24,3.76));
#997=CARTESIAN_POINT('Origin',(62.5,28.12,130.));
#998=CARTESIAN_POINT('',(62.5,30.,3.76));
#999=CARTESIAN_POINT('Origin',(-3.5527136788005E-14,26.24,3.76));
#1000=CARTESIAN_POINT('',(31.25,26.24,1.88));
#1001=CARTESIAN_POINT('Origin',(-8.88178419700125E-15,30.,64.8423630048816));
#1002=CARTESIAN_POINT('Origin',(-62.5,-28.12,3.76));
#1003=CARTESIAN_POINT('',(-62.5,-28.4772,3.75999999999999));
#1004=CARTESIAN_POINT('',(-62.5,-26.24,1.88));
#1005=CARTESIAN_POINT('Origin',(-62.5,-26.24,3.76));
#1006=CARTESIAN_POINT('',(-62.5,-26.24,0.94));
#1007=CARTESIAN_POINT('Origin',(62.5000000000001,-30.,3.76));
#1008=CARTESIAN_POINT('',(62.5,-26.24,0.94));
#1009=CARTESIAN_POINT('Origin',(-62.5,-28.12,130.));
#1010=CARTESIAN_POINT('',(-62.5,-30.,3.76));
#1011=CARTESIAN_POINT('Origin',(3.5527136788005E-14,-26.24,3.76));
#1012=CARTESIAN_POINT('',(-31.25,-26.24,1.88));
#1013=CARTESIAN_POINT('Origin',(8.88178419700125E-15,-30.,64.8423630048816));
#1014=CARTESIAN_POINT('Origin',(-62.5,30.,0.));
#1015=CARTESIAN_POINT('',(-62.5,30.,1.88));
#1016=CARTESIAN_POINT('Origin',(62.5,-30.,0.));
#1017=CARTESIAN_POINT('Origin',(0.,0.,1.88));
#1018=CARTESIAN_POINT('',(0.,0.,0.));
#1019=UNCERTAINTY_MEASURE_WITH_UNIT(LENGTH_MEASURE(0.01),#1025,
'DISTANCE_ACCURACY_VALUE',
'Maximum model space distance between geometric entities at asserted c
onnectivities');
#1020=UNCERTAINTY_MEASURE_WITH_UNIT(LENGTH_MEASURE(0.01),#1025,
'DISTANCE_ACCURACY_VALUE',
'Maximum model space distance between geometric entities at asserted c
onnectivities');
#1021=UNCERTAINTY_MEASURE_WITH_UNIT(LENGTH_MEASURE(0.01),#1025,
'DISTANCE_ACCURACY_VALUE',
'Maximum model space distance between geometric entities at asserted c
onnectivities');
#1022=(
GEOMETRIC_REPRESENTATION_CONTEXT(3)
GLOBAL_UNCERTAINTY_ASSIGNED_CONTEXT((#1019))
GLOBAL_UNIT_ASSIGNED_CONTEXT((#1025,#1027,#1028))
REPRESENTATION_CONTEXT('','3D')
);
#1023=(
GEOMETRIC_REPRESENTATION_CONTEXT(3)
GLOBAL_UNCERTAINTY_ASSIGNED_CONTEXT((#1020))
GLOBAL_UNIT_ASSIGNED_CONTEXT((#1025,#1027,#1028))
REPRESENTATION_CONTEXT('','3D')
);
#1024=(
GEOMETRIC_REPRESENTATION_CONTEXT(3)
GLOBAL_UNCERTAINTY_ASSIGNED_CONTEXT((#1021))
GLOBAL_UNIT_ASSIGNED_CONTEXT((#1025,#1027,#1028))
REPRESENTATION_CONTEXT('','3D')
);
#1025=(
LENGTH_UNIT()
NAMED_UNIT(*)
SI_UNIT(.MILLI.,.METRE.)
);
#1026=(
LENGTH_UNIT()
NAMED_UNIT(*)
SI_UNIT($,.METRE.)
);
#1027=(
NAMED_UNIT(*)
PLANE_ANGLE_UNIT()
SI_UNIT($,.RADIAN.)
);
#1028=(
NAMED_UNIT(*)
SI_UNIT($,.STERADIAN.)
SOLID_ANGLE_UNIT()
);
#1029=SHAPE_DEFINITION_REPRESENTATION(#1031,#1034);
#1030=SHAPE_DEFINITION_REPRESENTATION(#1032,#1035);
#1031=PRODUCT_DEFINITION_SHAPE('',$,#1037);
#1032=PRODUCT_DEFINITION_SHAPE('',$,#1038);
#1033=PRODUCT_DEFINITION_SHAPE($,$,#14);
#1034=SHAPE_REPRESENTATION('',(#607,#668),#1022);
#1035=SHAPE_REPRESENTATION('',(#608),#1023);
#1036=PRODUCT_DEFINITION_CONTEXT('part definition',#1044,'design');
#1037=PRODUCT_DEFINITION('2026-10-01-20-25-25-804',
'Sheet Metal - Napkin Holder',#1039,#1036);
#1038=PRODUCT_DEFINITION('2026-10-01-20-07-13-351','Napkin holder',#1040,
#1036);
#1039=PRODUCT_DEFINITION_FORMATION('',$,#1046);
#1040=PRODUCT_DEFINITION_FORMATION('',$,#1047);
#1041=PRODUCT_RELATED_PRODUCT_CATEGORY('Sheet Metal - Napkin Holder',
'Sheet Metal - Napkin Holder',(#1046));
#1042=PRODUCT_RELATED_PRODUCT_CATEGORY('Napkin holder','Napkin holder',
(#1047));
#1043=APPLICATION_PROTOCOL_DEFINITION('international standard',
'automotive_design',2009,#1044);
#1044=APPLICATION_CONTEXT(
'Core Data for Automotive Mechanical Design Process');
#1045=PRODUCT_CONTEXT('part definition',#1044,'mechanical');
#1046=PRODUCT('2026-10-01-20-25-25-804','Sheet Metal - Napkin Holder',$,
(#1045));
#1047=PRODUCT('2026-10-01-20-07-13-351','Napkin holder',$,(#1045));
#1048=PRESENTATION_STYLE_ASSIGNMENT((#1049));
#1049=SURFACE_STYLE_USAGE(.BOTH.,#1050);
#1050=SURFACE_SIDE_STYLE('',(#1051));
#1051=SURFACE_STYLE_FILL_AREA(#1052);
#1052=FILL_AREA_STYLE('Steel - Satin',(#1053));
#1053=FILL_AREA_STYLE_COLOUR('Steel - Satin',#1054);
#1054=COLOUR_RGB('Steel - Satin',0.627450980392157,0.627450980392157,0.627450980392157);
ENDSEC;
END-ISO-10303-21;
